<svg width="377" height="377" viewBox="0 0 377 377" fill="none" xmlns="http://www.w3.org/2000/svg">
<path d="M199.09 256.35C194.37 260.39 187.77 260.33 182.71 256.85C176.68 252.7 173.91 245.38 175.26 238.07C176.27 232.59 178.55 227.28 182.45 223.06L207.5 195.9C209.32 193.93 212.87 188.83 214.36 186.39C217.65 181.01 221.36 172.18 216.51 166.79C212.31 162.13 207.31 167.78 207.71 164.41C211.52 161.82 217.94 163.74 220.54 166.99C222.72 169.72 223.84 172.67 223.92 176.17C224 179.3 223.67 182.28 222.5 185.25C220.83 189.49 218.47 193.35 215.52 196.9C211.99 201.15 208.22 205.25 204.16 209.08L192.62 219.95C191.67 220.85 190.72 221.71 189.8 222.71C192.49 221.98 194.69 221.24 197.47 221.12C203.29 220.87 209.13 222.89 213.59 226.62C220.36 232.28 223.9 240.21 223.65 248.99C223.12 267.66 206.21 283.49 187.44 282.53C180.72 282.19 174.95 279.77 169.82 275.7C155.4 264.23 156.68 246.1 164.33 231.02C169.93 219.98 168.71 214.1 160.92 204.63C155.45 197.98 152.34 190.03 152.64 181.34C152.93 173 156.93 164.51 163.15 158.87C172.13 150.73 184.6 152.06 192.16 161.34C201.14 172.37 196.54 192.38 184.14 196.65C178.04 198.75 171.73 194.36 169.68 188.88C168.4 185.46 167.9 182.05 168.83 178.42C168.92 178.08 169.39 177.59 169.69 177.58C170.16 177.57 170.51 178.25 170.41 178.77C169.47 183.94 171.18 189.09 175.05 192.48C177.35 194.5 180.33 194.92 183.17 193.43C187.31 191.26 189.97 186.91 190.57 182.17C191.68 173.48 188.47 164.47 181.32 159.37C176.39 155.86 170.15 156.22 165.74 160.07C154.41 169.96 157.3 187.64 164.62 199.25C168.81 205.89 172.02 211.49 170.79 219.55C170.17 223.57 168.94 227.3 167.41 231.12C162.37 243.69 164.49 257.75 173.14 268.09C176.62 272.25 180.6 275.66 185.72 277.49C192.4 279.88 199.34 278.87 205 274.64C209.01 271.64 212.58 267.58 214.35 262.67C217.26 254.64 216.81 245.94 213.6 237.98C210.57 230.47 203.66 223.82 195.15 224.37C189.85 224.71 185.66 227.06 182.3 231.03C176.44 237.97 177.35 248.44 184.34 254.29C189.77 258.83 196.05 257.51 200.58 252.37C200.86 252.43 201.53 252.8 201.66 253.11C201.79 253.42 201.39 254.35 201.14 254.56L199.09 256.32V256.35Z" fill="#171717"/>
<path d="M250.36 228.12C259.84 235.45 276.98 239.63 283.91 227.23C285.52 224.35 286.35 221.39 286.84 218.15C288.78 205.31 286.36 193.13 282.02 180.97C275.91 163.87 266.65 147.55 255.06 133.54C246.79 123.54 233.94 110.43 220.84 107.81C216.96 107.03 213.17 107.03 209.73 108.64C202.37 112.07 201.83 120.41 204.17 127.17C207.41 136.54 214.02 144.3 222.49 149.41C224.53 150.64 226.58 151.28 228.79 151.86C233.86 153.17 240.57 151.84 242.75 146.5C244.3 142.7 243.62 138.33 241.38 134.98C239.89 132.74 237.84 130.73 235.86 129.13C235.38 128.74 236 124.97 241.97 132.58C244.74 136.11 245.96 140.01 245.55 144.56C244.93 151.41 238.03 156.26 231.23 156.49C224.43 156.72 218.19 153.99 212.81 149.81C207.43 145.63 203.38 139.93 200.96 133.39C199.66 129.88 199.29 126.33 199.22 122.55C199.09 116.13 201.62 110.06 207.12 106.51C210.89 104.08 215.31 103.71 219.67 104.18C228.2 105.1 235.8 108.6 243.03 113.36C253.44 120.21 263.73 131.15 270.78 141.47L272.71 144.3C281.35 156.94 287.77 170.98 292.06 185.76C295.84 198.77 296.48 214.34 289.44 226.17C284.06 235.21 274.31 240.45 263.8 239.52C257.25 238.94 251.37 236.9 245.93 233.27C234.29 225.51 225.3 211.33 226.56 196.95C227.04 191.49 228.88 186.53 233 183.05C236.25 180.31 239.84 178.97 244.15 179.15C257.11 179.71 267.48 193.85 267.6 206.07C267.29 206.4 266.31 206.5 265.88 206.28C265.06 196.68 257.8 184.18 247.86 182.12C244.8 181.49 241.92 181.53 239.06 182.86C232.28 186.03 231.86 195.51 233.39 202.06C235.81 212.46 241.79 221.49 250.37 228.12H250.36Z" fill="#171717"/>
<path d="M91.04 228.94C98.79 239.35 114.55 234.86 123.24 228.27C131.74 221.81 137.82 212.79 140.35 202.44C141.98 195.78 141.64 185.95 134.65 182.81C131.85 181.55 129.07 181.48 126.06 182.09C116.08 184.09 108.72 196.67 107.95 206.29C107.65 206.53 106.46 206.39 106.19 206.01C106.32 199.12 109.54 192.19 114.13 187.1C121.21 179.25 132.49 175.73 141.09 183.26C145.04 186.72 146.77 191.51 147.25 196.8C148.56 211.25 139.59 225.44 127.92 233.23C122.4 236.92 116.46 238.95 109.8 239.52C103.91 240.02 98.01 238.49 93.06 235.25C83.92 229.28 79.53 218.34 79.07 207.86C78.46 194.25 82.13 182.29 87.43 169.9C93.04 156.78 100.04 144.49 109.14 133.44C115.51 125.7 122.52 118.79 130.85 113.32C137.9 108.67 145.75 105.03 154.06 104.19C157.97 103.79 161.9 103.92 165.55 105.86C171.61 109.08 174.85 115.59 174.54 122.45C175.22 138.36 161.52 154.56 145.82 156.39C139.93 157.08 134.25 155.13 130.54 150.39C126.83 145.65 127.75 137.94 131.59 132.9C132.18 132.13 137.55 125.54 138.07 128.45C138.13 128.76 137.86 129.24 137.52 129.5C132.3 133.63 128.31 140.02 131.09 146.57C133.34 151.89 140.07 153.2 145.11 151.82C146.45 151.45 147.87 151.18 149.21 150.51C157.97 146.09 164.72 138.68 168.71 129.69C171.91 122.47 172.41 112.08 163.71 108.47C155.01 104.86 143.77 110.41 136.57 115.93C129.93 121.03 124.28 126.85 118.93 133.3C107.16 147.48 97.7 164.16 91.57 181.56C88.03 191.62 85.82 201.79 86.34 212.42C86.61 217.98 87.7 224.47 91.03 228.93L91.04 228.94Z" fill="#171717"/>
<path d="M325.584 50.8956C327.936 45.8144 329.211 40.2426 329.211 34.475C329.211 25.2763 325.633 16.6168 319.146 10.0976C312.643 3.59465 304.017 0 294.802 0C286.845 0 279.361 3.10439 273.741 8.72478L273.708 8.75746C268.071 14.4109 264.967 21.9101 264.967 29.9C264.967 36.6643 267.597 43.02 272.368 47.8071C277.155 52.5943 283.478 55.2248 290.226 55.2248C295.749 55.2085 300.945 53.0681 304.866 49.1469C308.771 45.2255 310.928 40.0134 310.928 34.4746C310.911 30.1447 309.245 26.0765 306.189 23.0537C303.134 19.9983 299.098 18.3154 294.768 18.3154C291.697 18.3154 288.788 19.5082 286.632 21.6813C284.622 23.7563 283.217 26.7955 283.217 29.8995C283.217 31.7621 283.952 33.5267 285.259 34.8502C286.566 36.1737 288.331 36.9089 290.21 36.9089C291.55 36.9252 292.644 35.8305 292.644 34.4908C292.644 33.151 291.566 32.0563 290.226 32.0563C289.638 32.0563 289.099 31.8276 288.707 31.4191C288.298 31.0106 288.086 30.4715 288.086 29.8996C288.086 28.1023 288.789 26.4031 290.063 25.1288C291.435 23.887 293.004 23.1517 294.801 23.1681C297.824 23.1681 300.65 24.3445 302.774 26.4685C304.898 28.5926 306.075 31.4355 306.075 34.4747C306.075 38.7227 304.425 42.7097 301.434 45.7158C298.444 48.7058 294.458 50.3562 290.226 50.3725C284.785 50.3725 279.655 48.2484 275.799 44.3761C271.943 40.5038 269.819 35.3736 269.819 29.9C269.819 23.201 272.417 16.9105 277.139 12.1886L277.155 12.1723C281.86 7.46672 288.118 4.86882 294.784 4.86882C302.692 4.86882 310.094 7.95686 315.682 13.5447C321.269 19.1487 324.341 26.5831 324.341 34.491C324.341 43.6244 320.796 52.2187 314.342 58.689C314.342 58.7053 314.326 58.7053 314.326 58.7217C307.888 65.1593 299.327 68.7046 290.226 68.7046C279.883 68.7046 270.178 64.6689 262.875 57.3493C252.663 47.1376 239.085 41.5005 224.674 41.4842C211.048 41.4678 198.206 46.4675 188.223 55.6172C178.256 46.4675 165.414 41.4679 151.771 41.4842C137.36 41.5005 123.799 47.1376 113.571 57.3493C113.554 57.3657 113.538 57.3657 113.538 57.382C106.235 64.6855 96.5294 68.7047 86.2198 68.7047C77.1027 68.7047 68.541 65.1428 62.1038 58.6891C55.6498 52.2188 52.1045 43.6408 52.1045 34.5078C52.1045 26.5999 55.1762 19.1492 60.764 13.5615L60.7967 13.5288C66.3681 7.9574 73.7862 4.8856 81.6615 4.8856C88.3443 4.8856 94.6021 7.48346 99.324 12.2217C104.046 16.9599 106.644 23.2503 106.644 29.9331C106.644 35.4066 104.52 40.5372 100.664 44.4092C100.647 44.4092 100.647 44.4255 100.647 44.4255C96.7914 48.2815 91.6775 50.3893 86.2365 50.4056C82.0049 50.4056 78.0183 48.7554 75.028 45.7652C72.0381 42.7589 70.3877 38.7721 70.3877 34.5241C70.3877 31.5014 71.5641 28.6587 73.6881 26.5179C73.7045 26.5179 73.7045 26.5179 73.7045 26.5016C75.8285 24.3776 78.6552 23.2012 81.6613 23.2012C83.4586 23.2012 85.1251 23.9037 86.3995 25.1782C87.6576 26.4526 88.3602 28.1355 88.3602 29.9327C88.3438 31.1091 87.3472 32.0894 86.2198 32.0894C84.88 32.0894 83.8017 33.1841 83.7853 34.5075C83.7853 35.8473 84.88 36.942 86.2198 36.942C89.9287 36.9584 93.2129 33.7069 93.2129 29.9326C93.2129 26.8282 92.0039 23.9199 89.8308 21.7469C87.6577 19.5575 84.7496 18.3485 81.6615 18.3485C77.3646 18.3485 73.3123 20.015 70.2568 23.0704L70.2405 23.0867C67.2015 26.1421 65.5186 30.194 65.5186 34.524C65.5186 40.0628 67.6753 45.2749 71.5802 49.1962C75.4852 53.1012 80.681 55.2578 86.2198 55.2742C92.9678 55.2578 99.2909 52.6436 104.062 47.8728C104.062 47.8565 104.078 47.8565 104.078 47.8401C108.865 43.053 111.479 36.6969 111.479 29.933C111.479 21.9598 108.391 14.4439 102.738 8.79046C97.1012 3.15337 89.6183 0.0326298 81.6448 0.0326298C72.4787 0.0326298 63.8518 3.61084 57.3489 10.0971C57.3325 10.1135 57.3162 10.1135 57.3162 10.1298C50.8133 16.649 47.2517 25.2923 47.2517 34.5073C47.2517 40.2748 48.5261 45.8299 50.8789 50.9116C45.7977 48.5588 40.2422 47.2843 34.4746 47.3007C25.2759 47.3007 16.6164 50.8789 10.0972 57.3652L10.0645 57.3979C3.5616 63.9008 0 72.5114 0 81.6937C0 89.6669 3.1207 97.1665 8.75782 102.787C14.4112 108.424 21.9268 111.528 29.9003 111.528C36.6647 111.528 43.0203 108.898 47.8075 104.127L47.8238 104.111C52.5947 99.3399 55.2252 93.0005 55.2252 86.2688C55.2252 80.7463 53.0685 75.5342 49.1472 71.6292C45.226 67.7242 40.0138 65.5676 34.475 65.5676C30.1618 65.5676 26.0932 67.2505 23.054 70.2895L23.0377 70.3058C19.9823 73.3612 18.3158 77.3968 18.3158 81.6942C18.3158 84.7822 19.5249 87.6906 21.7143 89.8798C23.8873 92.0692 26.8122 93.2783 29.9162 93.2619C33.6742 93.2456 36.9257 89.9941 36.9257 86.2688C36.9257 84.929 35.8473 83.8343 34.5075 83.8343C33.1678 83.8343 32.0731 84.929 32.0894 86.2524C32.073 87.3962 31.0763 88.3928 29.9327 88.3928C28.1354 88.3928 26.4361 87.6902 25.1618 86.4158C23.8874 85.1577 23.1848 83.4748 23.1848 81.6776C23.1848 78.6713 24.3449 75.8448 26.4852 73.7208C26.4852 73.7208 26.5016 73.7208 26.5016 73.7044C28.642 71.5804 31.4686 70.404 34.5078 70.404C38.7558 70.404 42.7428 72.0542 45.7489 75.0443C48.755 78.0345 50.3892 82.0048 50.4055 86.2528C50.4055 91.6937 48.2815 96.8076 44.4255 100.664C44.4091 100.664 44.4091 100.68 44.4091 100.68C40.5368 104.536 35.4066 106.66 29.9331 106.66C23.2503 106.66 16.9599 104.062 12.2217 99.3402C7.48347 94.6347 4.88557 88.3605 4.88557 81.6778C4.88557 73.7862 7.90827 66.2376 13.5614 60.7804C19.1491 55.1926 26.5835 52.1208 34.5077 52.1372C43.6412 52.1372 52.2355 55.6827 58.689 62.1201C65.1593 68.5578 68.7046 77.1353 68.7046 86.2361C68.7046 96.5625 64.6852 106.251 57.3819 113.554C57.3656 113.571 57.3656 113.571 57.3492 113.587C47.1375 123.799 41.5004 137.36 41.4841 151.787C41.4677 165.414 46.4674 178.256 55.6172 188.239C46.4674 198.222 41.4678 211.064 41.4841 224.691C41.5004 239.102 47.1375 252.663 57.3492 262.891C64.669 270.194 68.7045 279.9 68.7045 290.226C68.7045 299.327 65.159 307.888 58.7216 314.326C58.7052 314.342 58.7052 314.342 58.6889 314.342C52.2186 320.796 43.6243 324.341 34.4909 324.325C26.583 324.325 19.1486 321.27 13.5446 315.682C7.95685 310.11 4.86873 302.692 4.86873 294.801C4.86873 288.134 7.46659 281.877 12.1722 277.171C12.1722 277.155 12.1886 277.155 12.1886 277.139C16.9268 272.417 23.2172 269.819 29.9 269.819C35.3735 269.819 40.5204 271.943 44.3923 275.799C48.2643 279.655 50.3887 284.785 50.3887 290.226C50.3887 294.458 48.7221 298.444 45.7484 301.434C42.742 304.424 38.7552 306.075 34.5072 306.075C31.4682 306.058 28.6255 304.898 26.5011 302.758C24.3607 300.634 23.1843 297.791 23.1843 294.801C23.1843 293.004 24.0339 291.354 25.1613 290.063C26.4357 288.789 28.1186 288.102 29.9158 288.086C30.4877 288.086 31.0268 288.315 31.4353 288.723C31.8438 289.115 32.0562 289.671 32.0562 290.243C32.0562 291.582 33.1509 292.661 34.4907 292.661C35.8305 292.644 36.9088 291.566 36.9088 290.226C36.8925 288.364 36.1736 286.599 34.8501 285.292C33.5266 283.968 31.7621 283.25 29.8994 283.233C26.8114 283.233 23.8867 284.442 21.7138 286.615C19.6388 288.739 18.3153 291.697 18.3153 294.785C18.299 299.098 19.9819 303.15 23.0535 306.206C26.0925 309.245 30.1608 310.928 34.4908 310.944C40.0296 310.928 45.2417 308.787 49.163 304.882C53.0843 300.977 55.2247 295.765 55.241 290.243C55.241 283.495 52.6104 277.155 47.8233 272.384C43.0362 267.614 36.6801 264.983 29.9161 264.983C21.943 264.983 14.427 268.087 8.77364 273.724L8.74096 273.757C3.13692 279.328 0.0488029 286.812 0.0324902 294.785C0.048828 303.967 3.62706 312.627 10.1464 319.113C16.6656 325.616 25.3251 329.178 34.5238 329.178C40.2914 329.194 45.8628 327.903 50.9444 325.55C48.5916 330.632 47.3172 336.204 47.3172 341.971C47.3172 351.17 50.8954 359.829 57.3817 366.349C63.8683 372.851 72.5115 376.446 81.7265 376.446C89.6833 376.43 97.1667 373.342 102.787 367.721C102.804 367.705 102.804 367.689 102.82 367.689C108.441 362.035 111.545 354.536 111.561 346.546C111.561 339.782 108.931 333.41 104.16 328.622C99.389 323.835 93.0497 321.205 86.3016 321.205C80.7792 321.221 75.567 323.378 71.662 327.283C67.7571 331.204 65.6004 336.416 65.6004 341.955C65.6168 346.285 67.2833 350.337 70.3386 353.376C73.394 356.447 77.4459 358.13 81.7596 358.114C84.8476 358.098 87.7234 356.905 89.8963 354.732C92.102 352.788 93.3111 349.618 93.3274 346.514C93.3274 344.651 92.5922 342.886 91.2851 341.563C89.978 340.239 88.2134 339.504 86.3507 339.504C85.0109 339.504 83.9162 340.582 83.9162 341.922C83.9162 343.262 84.9946 344.357 86.3343 344.357C86.9062 344.357 87.4454 344.586 87.8539 344.978C88.2623 345.386 88.4911 345.925 88.4911 346.497C88.4911 348.294 87.7885 349.994 86.514 351.268L86.4977 351.284C85.2396 352.542 83.573 353.229 81.7758 353.245C78.7695 353.245 75.943 352.069 73.819 349.928C71.6786 347.788 70.5022 344.961 70.5022 341.938C70.5022 337.69 72.1524 333.703 75.1425 330.697C78.1325 327.691 82.1193 326.057 86.351 326.041C91.7919 326.041 96.9221 328.165 100.778 332.037C104.634 335.909 106.758 341.056 106.774 346.529C106.758 353.212 104.16 359.519 99.4547 364.224C99.4384 364.241 99.4384 364.241 99.422 364.257C94.7164 368.963 88.4586 371.561 81.7926 371.561C73.8847 371.544 66.4666 368.473 60.8952 362.885C55.3075 357.281 52.2357 349.846 52.2357 341.922C52.2357 332.789 55.7812 324.194 62.2186 317.724C62.235 317.724 62.235 317.708 62.2513 317.708C68.689 311.27 77.2502 307.708 86.351 307.708C96.6774 307.708 106.399 311.744 113.702 319.064C123.914 329.276 137.475 334.913 151.903 334.913C165.529 334.945 178.371 329.929 188.354 320.78C198.321 329.929 211.163 334.929 224.806 334.913C239.217 334.896 252.778 329.276 263.006 319.064L263.039 319.031C270.342 311.728 280.031 307.708 290.357 307.708C299.474 307.708 308.036 311.254 314.49 317.724C320.943 324.194 324.489 332.789 324.472 341.922C324.472 349.846 321.417 357.281 315.829 362.868C315.813 362.868 315.813 362.885 315.813 362.885C310.225 368.472 302.823 371.544 294.948 371.544C288.265 371.528 281.991 368.946 277.286 364.208C272.564 359.47 269.966 353.179 269.966 346.48C269.95 341.023 272.09 335.893 275.946 332.004C275.962 331.988 275.962 331.988 275.979 331.988C279.835 328.132 284.948 326.024 290.389 326.008C294.621 326.008 298.591 327.658 301.582 330.648C304.588 333.655 306.222 337.658 306.222 341.889C306.206 347.967 300.945 353.212 294.948 353.212C293.151 353.212 291.468 352.509 290.21 351.235C288.936 349.961 288.233 348.278 288.233 346.48C288.233 345.32 289.262 344.307 290.373 344.324C291.713 344.324 292.791 343.245 292.808 341.906C292.808 340.566 291.713 339.487 290.39 339.471C288.527 339.471 286.762 340.19 285.423 341.53C284.116 342.853 283.397 344.602 283.38 346.481C283.397 349.585 284.589 352.493 286.779 354.666C288.952 356.856 291.86 358.065 294.948 358.065C303.542 358.065 311.058 350.581 311.075 341.905C311.075 336.367 308.918 331.171 305.013 327.233C301.108 323.312 295.896 321.155 290.373 321.155C283.625 321.155 277.302 323.786 272.532 328.557L272.499 328.589C267.728 333.377 265.098 339.733 265.098 346.48C265.098 354.47 268.202 361.969 273.839 367.639C279.459 373.292 286.959 376.397 294.932 376.397C304.098 376.397 312.741 372.819 319.244 366.316L319.277 366.283C325.78 359.78 329.342 351.12 329.342 341.905C329.342 336.138 328.067 330.583 325.714 325.501C330.796 327.854 336.351 329.128 342.119 329.128C351.317 329.128 359.977 325.55 366.496 319.064C366.512 319.048 366.529 319.048 366.529 319.031C373.032 312.528 376.61 303.901 376.593 294.719C376.593 286.746 373.489 279.246 367.835 273.625C362.182 267.988 354.666 264.884 346.677 264.884C339.929 264.884 333.557 267.499 328.769 272.286C328.753 272.302 328.753 272.302 328.737 272.318C323.982 277.073 321.352 283.412 321.352 290.16C321.352 295.699 323.525 300.895 327.413 304.8C331.335 308.705 336.547 310.845 342.086 310.862C350.745 310.845 358.245 303.313 358.245 294.735C358.245 291.647 357.036 288.739 354.846 286.566C352.673 284.393 349.748 283.184 346.644 283.167C344.782 283.167 343.033 283.902 341.694 285.21C340.37 286.533 339.651 288.298 339.651 290.16C339.651 291.5 340.746 292.595 342.086 292.578C343.409 292.562 344.52 291.484 344.504 290.144C344.504 289 345.533 288.003 346.644 288.003C348.458 288.003 350.141 288.706 351.415 289.98C352.69 291.239 353.392 292.921 353.392 294.719C353.392 300.731 348.147 305.976 342.086 305.992C337.838 305.992 333.851 304.342 330.845 301.352C327.839 298.362 326.204 294.392 326.204 290.144C326.204 284.703 328.328 279.589 332.168 275.733C332.184 275.733 332.184 275.716 332.201 275.716C336.073 271.844 341.203 269.72 346.677 269.736C353.376 269.72 359.666 272.334 364.388 277.056C369.11 281.762 371.724 288.036 371.724 294.719C371.741 302.594 368.653 310.012 363.081 315.583C363.065 315.6 363.065 315.6 363.048 315.616C357.444 321.188 350.01 324.259 342.102 324.259C332.969 324.259 324.374 320.714 317.921 314.26C311.451 307.822 307.905 299.261 307.905 290.144C307.905 279.834 311.925 270.129 319.228 262.826C319.244 262.809 319.261 262.793 319.261 262.793C329.472 252.581 335.109 239.004 335.126 224.593C335.142 210.966 330.142 198.124 320.993 188.141C330.142 178.175 335.142 165.316 335.126 151.706C335.109 137.279 329.472 123.717 319.261 113.506C311.941 106.202 307.905 96.4805 307.905 86.1542C307.905 77.0534 311.467 68.508 317.905 62.0545C317.905 62.0381 317.921 62.0381 317.921 62.0218C324.391 55.5841 332.985 52.0225 342.119 52.0225C350.043 52.0225 357.478 55.0943 363.082 60.6821C368.669 66.2698 371.741 73.6716 371.757 81.5795C371.757 88.2459 369.16 94.5033 364.454 99.2089L364.438 99.2252C359.699 103.947 353.409 106.529 346.726 106.545C341.253 106.545 336.106 104.405 332.234 100.549C328.361 96.6927 326.237 91.5624 326.237 86.1215C326.237 81.8898 327.888 77.9033 330.878 74.913C333.884 71.923 337.871 70.2727 342.119 70.2727C345.158 70.289 348.001 71.4491 350.125 73.5895C352.265 75.7299 353.442 78.5565 353.425 81.5626C353.425 83.3599 352.739 85.1899 351.448 86.3008C350.174 87.5753 348.491 88.2615 346.694 88.2779C346.122 88.2779 345.583 88.0491 345.174 87.6407C344.766 87.2322 344.554 86.7093 344.554 86.1375C344.554 84.7977 343.459 83.7193 342.119 83.7193C340.796 83.7357 339.685 84.814 339.701 86.1538C339.717 88.0328 340.436 89.781 341.743 91.0882C343.067 92.4117 344.831 93.1469 346.71 93.1469C349.798 93.1306 352.707 91.9378 354.88 89.7648C357.036 87.3793 358.278 84.6836 358.278 81.5955C358.294 77.2822 356.612 73.23 353.54 70.1745C350.501 67.1355 346.433 65.4526 342.103 65.4363C336.564 65.4363 331.352 67.593 327.43 71.4979C323.525 75.4029 321.369 80.615 321.369 86.1375C321.369 92.8855 323.999 99.2249 328.786 103.996C333.574 108.767 339.93 111.397 346.71 111.397C354.7 111.381 362.199 108.276 367.853 102.656C367.869 102.64 367.869 102.64 367.885 102.623C373.506 97.0025 376.61 89.5196 376.627 81.5624C376.61 72.3637 373.032 63.7205 366.513 57.2339C359.993 50.731 351.334 47.1693 342.135 47.1693C336.22 47.2674 330.665 48.5428 325.584 50.8956ZM302.922 86.2364C302.938 97.8695 307.48 108.8 315.715 117.019C325.012 126.316 330.142 138.668 330.158 151.788C330.175 164.908 325.077 177.244 315.813 186.508C314.865 187.456 314.865 188.992 315.813 189.939C325.077 199.203 330.175 211.539 330.158 224.659C330.142 237.779 325.011 250.131 315.731 259.412C315.715 259.428 315.699 259.445 315.682 259.461C307.464 267.679 302.938 278.594 302.938 290.211C302.938 295.93 304.212 301.436 306.532 306.484C301.484 304.148 295.978 302.89 290.243 302.89C278.642 302.89 267.712 307.415 259.509 315.634L259.46 315.683C250.163 324.98 237.811 330.094 224.691 330.11C211.571 330.127 199.235 325.029 189.971 315.765C189.023 314.801 187.487 314.817 186.54 315.765C177.259 325.029 164.94 330.127 151.803 330.11C138.683 330.11 126.331 324.98 117.034 315.683C108.816 307.432 97.8854 302.89 86.2519 302.89C80.5333 302.89 75.0108 304.164 69.9622 306.484C72.2987 301.436 73.5568 295.93 73.5568 290.195C73.5568 278.562 69.0148 267.631 60.7798 259.412C51.4828 250.115 46.3527 237.763 46.3364 224.643C46.32 211.523 51.4176 199.204 60.6819 189.923C61.6296 188.975 61.6296 187.44 60.6819 186.492C51.418 177.211 46.3201 164.892 46.3364 151.772C46.3527 138.652 51.4832 126.3 60.7798 117.003C60.7961 116.986 60.7961 116.97 60.8125 116.97C69.0307 108.752 73.5569 97.8374 73.5569 86.2202C73.5569 80.5016 72.2988 74.9954 69.9623 69.9468C75.0109 72.2833 80.517 73.5414 86.2357 73.5414C97.8524 73.5414 108.767 69.0157 116.986 60.797L117.018 60.7643C126.315 51.4674 138.667 46.3372 151.787 46.3209C164.907 46.3046 177.243 51.4021 186.507 60.6665C187.455 61.6141 188.991 61.6141 189.938 60.6665C199.219 51.3858 211.539 46.3046 224.659 46.3209C237.779 46.3372 250.131 51.4678 259.428 60.7643C267.646 68.9993 278.577 73.5414 290.21 73.5414C295.929 73.5414 301.451 72.2669 306.5 69.9468C304.196 74.9954 302.938 80.5015 302.922 86.2364Z" fill="#171717"/>
</svg>
