<svg width="434" height="360" viewBox="0 0 434 360" fill="none" xmlns="http://www.w3.org/2000/svg">
<path d="M234.204 210.73C227.675 216.318 218.546 216.235 211.547 211.421C203.206 205.681 199.374 195.556 201.242 185.444C202.639 177.864 205.793 170.519 211.187 164.682L245.837 127.114C248.355 124.389 253.265 117.334 255.326 113.959C259.877 106.517 265.009 94.3034 258.3 86.8478C252.49 80.402 245.574 88.2172 246.128 83.5558C251.398 79.9732 260.278 82.629 263.874 87.1245C266.89 90.9007 268.439 94.9812 268.55 99.8225C268.66 104.152 268.204 108.274 266.585 112.382C264.275 118.247 261.011 123.586 256.931 128.497C252.048 134.376 246.833 140.047 241.217 145.345L225.255 160.38C223.941 161.625 222.626 162.815 221.354 164.198C225.075 163.188 228.118 162.165 231.963 161.999C240.014 161.653 248.092 164.447 254.261 169.606C263.625 177.435 268.522 188.404 268.176 200.549C267.443 226.374 244.053 248.271 218.09 246.943C208.794 246.472 200.813 243.125 193.717 237.495C173.771 221.63 175.541 196.552 186.123 175.693C193.869 160.422 192.182 152.288 181.406 139.189C173.84 129.991 169.538 118.994 169.953 106.974C170.354 95.4377 175.887 83.6941 184.491 75.8927C196.912 64.6332 214.161 66.4729 224.618 79.3092C237.04 94.5662 230.677 122.245 213.525 128.151C205.087 131.056 196.359 124.983 193.523 117.403C191.753 112.673 191.061 107.956 192.348 102.935C192.472 102.464 193.122 101.787 193.537 101.773C194.187 101.759 194.671 102.7 194.533 103.419C193.233 110.57 195.598 117.694 200.951 122.383C204.133 125.177 208.255 125.758 212.183 123.697C217.91 120.695 221.589 114.678 222.419 108.122C223.954 96.1016 219.514 83.6388 209.624 76.5843C202.805 71.7292 194.174 72.2271 188.073 77.5525C172.402 91.2327 176.399 115.688 186.524 131.747C192.32 140.932 196.76 148.678 195.059 159.827C194.201 165.387 192.5 170.547 190.383 175.831C183.412 193.218 186.344 212.666 198.309 226.969C203.123 232.723 208.628 237.44 215.71 239.971C224.95 243.277 234.55 241.88 242.379 236.029C247.926 231.879 252.864 226.263 255.312 219.472C259.337 208.364 258.715 196.33 254.275 185.32C250.084 174.932 240.525 165.733 228.754 166.494C221.423 166.964 215.627 170.215 210.98 175.706C202.874 185.306 204.133 199.788 213.801 207.88C221.312 214.16 229.999 212.334 236.265 205.224C236.652 205.307 237.579 205.819 237.759 206.248C237.939 206.677 237.386 207.963 237.04 208.254L234.204 210.688V210.73Z" fill="#ECECE0"/>
<path d="M305.122 171.681C318.235 181.82 341.944 187.602 351.529 170.45C353.756 166.466 354.905 162.372 355.582 157.89C358.266 140.13 354.918 123.282 348.915 106.462C340.464 82.8088 327.655 60.2346 311.623 40.8556C300.184 27.0233 282.41 8.88916 264.289 5.26511C258.922 4.18619 253.68 4.18619 248.922 6.41318C238.741 11.1577 237.994 22.6938 241.231 32.0444C245.713 45.0052 254.856 55.7391 266.572 62.8074C269.393 64.5087 272.229 65.394 275.286 66.1963C282.299 68.0083 291.58 66.1686 294.596 58.7822C296.74 53.5259 295.799 47.4812 292.701 42.8474C290.64 39.749 287.804 36.9687 285.065 34.7555C284.401 34.2161 285.259 29.0013 293.517 39.5277C297.348 44.4105 299.036 49.805 298.469 56.0987C297.611 65.5738 288.067 72.2825 278.661 72.6006C269.255 72.9188 260.624 69.1426 253.182 63.3607C245.74 57.5788 240.138 49.6944 236.791 40.6481C234.993 35.7929 234.481 30.8825 234.384 25.6539C234.204 16.7736 237.704 8.37737 245.311 3.46691C250.526 0.105666 256.64 -0.406129 262.671 0.243988C274.47 1.51656 284.982 6.35785 294.983 12.942C309.383 22.4171 323.616 37.5496 333.368 51.8246L336.037 55.7391C347.988 73.2231 356.869 92.6436 362.803 113.088C368.031 131.083 368.917 152.62 359.179 168.984C351.737 181.488 338.25 188.736 323.713 187.45C314.653 186.648 306.519 183.826 298.994 178.805C282.894 168.071 270.458 148.457 272.201 128.566C272.865 121.014 275.41 114.153 281.109 109.339C285.605 105.549 290.571 103.696 296.532 103.945C314.459 104.719 328.803 124.278 328.969 141.181C328.54 141.638 327.185 141.776 326.59 141.472C325.456 128.193 315.413 110.902 301.664 108.053C297.431 107.181 293.448 107.237 289.492 109.076C280.113 113.461 279.532 126.574 281.649 135.634C284.996 150.02 293.268 162.51 305.136 171.681H305.122Z" fill="#ECECE0"/>
<path d="M84.7463 172.815C95.4663 187.215 117.266 181.004 129.286 171.888C141.044 162.953 149.454 150.476 152.953 136.16C155.208 126.947 154.738 113.35 145.069 109.007C141.196 107.264 137.35 107.167 133.187 108.011C119.382 110.777 109.202 128.178 108.137 141.485C107.722 141.817 106.076 141.623 105.702 141.098C105.882 131.567 110.336 121.981 116.685 114.941C126.478 104.083 142.081 99.2136 153.977 109.629C159.441 114.415 161.834 121.041 162.498 128.358C164.31 148.346 151.902 167.974 135.76 178.749C128.124 183.853 119.908 186.661 110.696 187.45C102.548 188.141 94.3874 186.025 87.5405 181.543C74.8978 173.285 68.8254 158.153 68.1891 143.657C67.3453 124.831 72.4218 108.288 79.7529 91.1494C87.5128 73.0014 97.1954 56.0015 109.783 40.7169C118.594 30.0107 128.29 20.4526 139.813 12.8863C149.564 6.45432 160.423 1.41937 171.917 0.257459C177.326 -0.295832 182.762 -0.116012 187.811 2.56745C196.193 7.02144 200.675 16.0263 200.246 25.5152C201.186 47.5223 182.236 69.9306 160.52 72.4619C152.372 73.4164 144.516 70.7191 139.384 64.1626C134.252 57.6061 135.525 46.9414 140.836 39.9699C141.652 38.9048 149.08 29.7894 149.8 33.8146C149.883 34.2434 149.509 34.9073 149.039 35.2669C141.818 40.9797 136.299 49.8185 140.145 58.8786C143.257 66.2374 152.566 68.0494 159.537 66.1406C161.391 65.6288 163.355 65.2553 165.209 64.3286C177.326 58.2147 186.663 47.965 192.182 35.5298C196.608 25.5429 197.3 11.1711 185.265 6.17767C173.231 1.18422 157.684 8.86114 147.725 16.4966C138.54 23.551 130.725 31.6014 123.325 40.5232C107.044 60.1374 93.9586 83.2096 85.4794 107.278C80.5828 121.193 77.5259 135.26 78.2452 149.964C78.6186 157.655 80.1264 166.632 84.7325 172.801L84.7463 172.815Z" fill="#ECECE0"/>
<path d="M33.761 358.452C27.0451 358.452 21.146 357.091 16.0637 354.368C10.9814 351.585 7.01842 347.713 4.17475 342.751C1.39158 337.73 0 331.861 0 325.145C0 320.063 0.816799 315.373 2.4504 311.078C4.084 306.782 6.35288 303.061 9.25706 299.915C12.1612 296.708 15.5797 294.227 19.5124 292.473C23.5057 290.718 27.8014 289.841 32.3997 289.841C35.3039 289.841 38.0265 290.174 40.5677 290.839C43.1693 291.444 45.4685 292.17 47.4651 293.017C49.5222 293.864 51.2768 294.681 52.7289 295.468C54.181 296.194 55.2398 296.678 55.9054 296.92L56.2684 305.723H55.9054C54.9373 303.424 53.2432 301.306 50.8231 299.37C48.4634 297.374 45.65 295.77 42.3828 294.56C39.1156 293.29 35.6669 292.654 32.0367 292.654C26.7124 292.654 21.9628 293.925 17.7881 296.466C13.6738 299.007 10.4369 302.516 8.07724 306.994C5.7781 311.471 4.62853 316.614 4.62853 322.422C4.62853 326.839 5.35457 331.044 6.80666 335.037C8.25875 339.03 10.3461 342.57 13.0688 345.656C15.7914 348.681 19.0284 351.071 22.7796 352.825C26.5308 354.58 30.7056 355.457 35.3039 355.457C40.3257 355.457 44.8332 354.338 48.8264 352.099C52.8197 349.861 55.7844 346.745 57.7205 342.751H58.0835L57.6297 351.282C57.0247 351.524 56.3894 351.797 55.7239 352.099C55.1188 352.402 54.423 352.734 53.6365 353.098C49.8247 354.973 46.376 356.334 43.2904 357.182C40.2047 358.029 37.0282 358.452 33.761 358.452Z" fill="#ECECE0"/>
<path d="M67.7887 357L67.6071 356.637C67.8492 355.306 68.0004 354.096 68.0609 353.007C68.1819 351.918 68.2727 350.708 68.3332 349.377C68.3937 347.985 68.4239 346.321 68.4239 344.385V303.908C68.4239 301.911 68.3937 300.248 68.3332 298.917C68.2727 297.585 68.1819 296.375 68.0609 295.286C68.0004 294.137 67.8492 292.927 67.6071 291.656L67.7887 291.293C70.4508 291.293 73.1432 291.233 75.8659 291.112C78.6491 290.991 81.3717 290.93 84.0339 290.93C88.0271 290.93 91.6573 291.505 94.9245 292.654C98.2522 293.743 100.884 295.468 102.82 297.827C104.817 300.187 105.815 303.303 105.815 307.175C105.815 310.805 104.908 314.073 103.093 316.977C101.277 319.881 98.827 322.241 95.7413 324.056C92.7162 325.871 89.2977 326.99 85.486 327.414C86.8775 328.987 88.1179 330.167 89.2069 330.953C90.3565 331.74 91.6271 332.284 93.0187 332.587L101.55 343.024C104.091 346.23 106.602 349.074 109.082 351.555C111.624 354.035 113.499 355.699 114.709 356.546L114.528 357H111.442C109.385 357 107.842 356.697 106.813 356.092C105.785 355.427 104.756 354.429 103.728 353.098L89.8422 336.035C87.6641 333.252 85.6675 331.256 83.8524 330.046C82.0978 328.836 80.4037 328.11 78.7701 327.867C77.197 327.565 75.5331 327.414 73.7785 327.414H72.7802V344.385C72.7802 346.321 72.8105 347.985 72.871 349.377C72.9315 350.708 73.0222 351.918 73.1432 353.007C73.2642 354.096 73.4155 355.306 73.597 356.637L73.4155 357H67.7887ZM81.4927 324.963C87.6036 324.963 92.3531 323.541 95.7413 320.698C99.19 317.794 100.914 313.8 100.914 308.718C100.914 303.878 99.2505 300.157 95.9228 297.555C92.6556 294.893 87.8759 293.562 81.5835 293.562C80.6759 293.562 79.5869 293.592 78.3163 293.653C77.1062 293.713 75.9869 293.804 74.9583 293.925C73.9298 294.046 73.2037 294.167 72.7802 294.288V324.419C75.8054 324.782 78.7096 324.963 81.4927 324.963Z" fill="#ECECE0"/>
<path d="M120.168 357L119.987 356.637C120.229 355.306 120.38 354.096 120.44 353.007C120.561 351.918 120.652 350.708 120.713 349.377C120.773 347.985 120.803 346.321 120.803 344.385V303.908C120.803 301.911 120.773 300.248 120.713 298.917C120.652 297.585 120.561 296.375 120.44 295.286C120.38 294.137 120.229 292.927 119.987 291.656L120.168 291.293H153.475V291.656L150.753 296.103C148.151 295.498 145.64 295.014 143.22 294.651C140.8 294.288 138.168 294.046 135.324 293.925C132.481 293.743 129.092 293.653 125.16 293.653V321.515C127.943 321.515 130.756 321.484 133.6 321.424C136.504 321.303 139.227 321.182 141.768 321.061C144.309 320.879 146.396 320.728 148.03 320.607L148.302 320.879L146.306 324.963C143.159 324.54 139.741 324.237 136.05 324.056C132.42 323.874 128.79 323.784 125.16 323.784V354.731C129.032 354.731 132.36 354.701 135.143 354.64C137.926 354.519 140.376 354.368 142.494 354.187C144.672 353.945 146.729 353.612 148.665 353.188C150.601 352.765 152.628 352.22 154.746 351.555L155.018 351.827L152.931 357H120.168Z" fill="#ECECE0"/>
<path d="M192.484 358.452C185.889 358.452 180.081 357.061 175.059 354.277C170.037 351.494 166.104 347.622 163.261 342.661C160.477 337.699 159.086 332.012 159.086 325.599C159.086 320.637 159.933 316.009 161.627 311.713C163.321 307.357 165.681 303.545 168.706 300.278C171.731 297.011 175.24 294.469 179.234 292.654C183.227 290.779 187.523 289.841 192.121 289.841C198.716 289.841 204.494 291.263 209.455 294.106C214.477 296.95 218.41 300.883 221.253 305.905C224.097 310.926 225.519 316.705 225.519 323.239C225.519 328.14 224.672 332.708 222.978 336.943C221.284 341.178 218.924 344.93 215.899 348.197C212.874 351.403 209.364 353.914 205.371 355.729C201.378 357.545 197.082 358.452 192.484 358.452ZM193.754 355.276C199.079 355.276 203.737 354.005 207.731 351.464C211.784 348.923 214.931 345.383 217.169 340.846C219.468 336.247 220.618 330.953 220.618 324.963C220.618 320.486 219.831 316.342 218.258 312.53C216.746 308.658 214.628 305.269 211.905 302.365C209.243 299.401 206.097 297.101 202.467 295.468C198.837 293.834 194.934 293.017 190.759 293.017C185.738 293.017 181.2 294.288 177.146 296.829C173.092 299.31 169.855 302.849 167.435 307.448C165.076 311.985 163.896 317.37 163.896 323.602C163.896 328.019 164.652 332.163 166.165 336.035C167.677 339.847 169.795 343.205 172.518 346.109C175.24 349.014 178.417 351.282 182.047 352.916C185.677 354.489 189.58 355.276 193.754 355.276Z" fill="#ECECE0"/>
<path d="M280.644 357C279.979 356.697 278.89 355.941 277.377 354.731C275.864 353.461 274.14 351.887 272.204 350.012C268.876 352.916 265.367 355.124 261.676 356.637C257.986 358.089 254.355 358.694 250.786 358.452C246.127 358.15 242.376 356.97 239.532 354.913C236.688 352.856 234.752 350.314 233.724 347.289C232.695 344.203 232.574 340.997 233.361 337.669C234.147 334.341 235.811 331.225 238.352 328.321C240.954 325.357 244.433 322.967 248.789 321.152C247.397 318.792 246.278 316.523 245.431 314.345C244.645 312.167 244.251 310.231 244.251 308.537C244.251 305.209 245.008 302.214 246.52 299.552C248.033 296.829 250.06 294.681 252.601 293.108C255.202 291.475 258.076 290.658 261.223 290.658C264.127 290.658 266.517 291.172 268.392 292.201C270.268 293.229 271.841 294.197 273.112 295.105L273.928 303.908H273.565C271.932 300.217 270.056 297.555 267.938 295.922C265.821 294.227 263.31 293.38 260.406 293.38C258.228 293.38 256.231 293.985 254.416 295.196C252.661 296.345 251.239 297.918 250.15 299.915C249.122 301.911 248.608 304.15 248.608 306.631C248.608 308.99 249.334 311.743 250.786 314.889C252.298 317.975 254.265 321.273 256.685 324.782C259.105 328.291 261.767 331.77 264.671 335.219C267.636 338.667 270.57 341.844 273.475 344.748C276.016 341.783 278.164 338.395 279.918 334.583C281.733 330.711 282.943 326.597 283.548 322.241H283.911L285.727 329.501C284.577 332.889 283.095 336.035 281.28 338.94C279.525 341.844 277.589 344.445 275.471 346.745C277.952 349.165 280.251 351.252 282.369 353.007C284.486 354.761 286.211 355.971 287.542 356.637V357H280.644ZM237.717 339.756C237.717 342.842 238.413 345.565 239.804 347.924C241.196 350.224 243.102 352.039 245.522 353.37C247.942 354.64 250.665 355.276 253.69 355.276C256.534 355.276 259.377 354.64 262.221 353.37C265.065 352.039 267.727 350.254 270.207 348.015C267.908 345.656 265.458 343.054 262.856 340.21C260.315 337.306 257.865 334.281 255.505 331.135C253.145 327.989 251.058 324.933 249.243 321.968C245.492 324.026 242.618 326.657 240.621 329.864C238.685 333.01 237.717 336.308 237.717 339.756Z" fill="#ECECE0"/>
<path d="M326.589 358.452C319.873 358.452 313.974 357.091 308.892 354.368C303.81 351.585 299.847 347.713 297.003 342.751C294.22 337.73 292.828 331.861 292.828 325.145C292.828 320.063 293.645 315.373 295.279 311.078C296.912 306.782 299.181 303.061 302.085 299.915C304.989 296.708 308.408 294.227 312.341 292.473C316.334 290.718 320.63 289.841 325.228 289.841C328.132 289.841 330.855 290.174 333.396 290.839C335.998 291.444 338.297 292.17 340.293 293.017C342.35 293.864 344.105 294.681 345.557 295.468C347.009 296.194 348.068 296.678 348.734 296.92L349.097 305.723H348.734C347.765 303.424 346.071 301.306 343.651 299.37C341.292 297.374 338.478 295.77 335.211 294.56C331.944 293.29 328.495 292.654 324.865 292.654C319.541 292.654 314.791 293.925 310.616 296.466C306.502 299.007 303.265 302.516 300.905 306.994C298.606 311.471 297.457 316.614 297.457 322.422C297.457 326.839 298.183 331.044 299.635 335.037C301.087 339.03 303.174 342.57 305.897 345.656C308.62 348.681 311.857 351.071 315.608 352.825C319.359 354.58 323.534 355.457 328.132 355.457C333.154 355.457 337.661 354.338 341.655 352.099C345.648 349.861 348.612 346.745 350.549 342.751H350.912L350.458 351.282C349.853 351.524 349.218 351.797 348.552 352.099C347.947 352.402 347.251 352.734 346.465 353.098C342.653 354.973 339.204 356.334 336.118 357.182C333.033 358.029 329.856 358.452 326.589 358.452Z" fill="#ECECE0"/>
<path d="M389.593 358.452C382.998 358.452 377.19 357.061 372.168 354.277C367.146 351.494 363.214 347.622 360.37 342.661C357.587 337.699 356.195 332.012 356.195 325.599C356.195 320.637 357.042 316.009 358.736 311.713C360.431 307.357 362.79 303.545 365.815 300.278C368.841 297.011 372.35 294.469 376.343 292.654C380.336 290.779 384.632 289.841 389.23 289.841C395.825 289.841 401.603 291.263 406.565 294.106C411.586 296.95 415.519 300.883 418.363 305.905C421.206 310.926 422.628 316.705 422.628 323.239C422.628 328.14 421.781 332.708 420.087 336.943C418.393 341.178 416.033 344.93 413.008 348.197C409.983 351.403 406.474 353.914 402.481 355.729C398.487 357.545 394.192 358.452 389.593 358.452ZM390.864 355.276C396.188 355.276 400.847 354.005 404.84 351.464C408.894 348.923 412.04 345.383 414.279 340.846C416.578 336.247 417.728 330.953 417.728 324.963C417.728 320.486 416.941 316.342 415.368 312.53C413.855 308.658 411.738 305.269 409.015 302.365C406.353 299.401 403.207 297.101 399.576 295.468C395.946 293.834 392.044 293.017 387.869 293.017C382.847 293.017 378.309 294.288 374.256 296.829C370.202 299.31 366.965 302.849 364.545 307.448C362.185 311.985 361.005 317.37 361.005 323.602C361.005 328.019 361.762 332.163 363.274 336.035C364.787 339.847 366.904 343.205 369.627 346.109C372.35 349.014 375.526 351.282 379.156 352.916C382.787 354.489 386.689 355.276 390.864 355.276Z" fill="#ECECE0"/>
<path d="M429.156 359.813L424.709 355.366V355.003L429.156 350.556H429.519L433.966 355.003V355.366L429.519 359.813H429.156Z" fill="#ECECE0"/>
</svg>
