<svg width="935" height="261" viewBox="0 0 935 261" fill="none" xmlns="http://www.w3.org/2000/svg">
<mask id="path-1-outside-1_249_188" maskUnits="userSpaceOnUse" x="0" y="0" width="935" height="261" fill="black">
<rect fill="white" width="935" height="261"/>
<path d="M73.5633 148.467C59.1287 148.467 46.4496 145.541 35.5261 139.69C24.6026 133.708 16.0848 125.385 9.97288 114.722C3.99096 103.928 1 91.314 1 76.8794C1 65.9558 2.75556 55.8776 6.26669 46.6446C9.77782 37.4117 14.6544 29.4141 20.8964 22.652C27.1384 15.7597 34.4858 10.428 42.9385 6.65681C51.5212 2.8856 60.7542 1 70.6374 1C76.8794 1 82.7312 1.71523 88.193 3.14568C93.7848 4.4461 98.7264 6.0066 103.018 7.82719C107.439 9.64777 111.21 11.4033 114.331 13.0939C117.452 14.6544 119.728 15.6947 121.159 16.2149L121.939 35.136H121.159C119.078 30.1944 115.437 25.6429 110.235 21.4816C105.163 17.1902 99.1165 13.7441 92.0943 11.1433C85.072 8.41237 77.6596 7.04693 69.8571 7.04693C58.4134 7.04693 48.2052 9.77781 39.2323 15.2396C30.3894 20.7013 23.4322 28.2437 18.3606 37.8668C13.419 47.4899 10.9482 58.5435 10.9482 71.0275C10.9482 80.5205 12.5087 89.5584 15.6297 98.1412C18.7507 106.724 23.2371 114.331 29.089 120.964C34.9409 127.466 41.8981 132.602 49.9607 136.373C58.0233 140.145 66.9962 142.03 76.8794 142.03C87.6728 142.03 97.3609 139.625 105.944 134.813C114.526 130.001 120.898 123.304 125.06 114.722H125.84L124.865 133.057C123.564 133.578 122.199 134.163 120.768 134.813C119.468 135.463 117.973 136.178 116.282 136.959C108.089 140.99 100.677 143.916 94.0449 145.736C87.4127 147.557 80.5856 148.467 73.5633 148.467Z"/>
<path d="M146.7 145.346L146.309 144.566C146.83 141.705 147.155 139.104 147.285 136.764C147.545 134.423 147.74 131.822 147.87 128.961C148 125.97 148.065 122.394 148.065 118.233V31.2347C148.065 26.9433 148 23.3672 147.87 20.5063C147.74 17.6453 147.545 15.0445 147.285 12.7038C147.155 10.233 146.83 7.63212 146.309 4.90125L146.7 4.121C152.421 4.121 158.208 3.99096 164.06 3.73088C170.042 3.47079 175.894 3.34074 181.616 3.34074C190.199 3.34074 198.001 4.57614 205.023 7.04693C212.176 9.38769 217.832 13.0939 221.994 18.1655C226.285 23.2371 228.431 29.9343 228.431 38.257C228.431 46.0595 226.48 53.0817 222.579 59.3237C218.678 65.5657 213.411 70.6374 206.779 74.5386C200.277 78.4399 192.929 80.8456 184.737 81.7559C187.728 85.137 190.394 87.6728 192.734 89.3634C195.205 91.0539 197.936 92.2243 200.927 92.8745L219.263 115.307C224.725 122.199 230.121 128.311 235.453 133.643C240.915 138.974 244.946 142.55 247.547 144.371L247.157 145.346H240.525C236.103 145.346 232.787 144.696 230.577 143.396C228.366 141.965 226.155 139.82 223.944 136.959L194.1 100.287C189.418 94.305 185.127 90.0136 181.226 87.4127C177.454 84.8119 173.813 83.2514 170.302 82.7312C166.921 82.081 163.345 81.7559 159.574 81.7559H157.428V118.233C157.428 122.394 157.493 125.97 157.623 128.961C157.753 131.822 157.948 134.423 158.208 136.764C158.468 139.104 158.793 141.705 159.184 144.566L158.793 145.346H146.7ZM176.154 76.4892C189.288 76.4892 199.497 73.4332 206.779 67.3213C214.191 61.0793 217.897 52.4965 217.897 41.573C217.897 31.1697 214.321 23.1721 207.169 17.5803C200.147 11.8585 189.873 8.99756 176.349 8.99756C174.398 8.99756 172.058 9.06258 169.327 9.19263C166.726 9.32267 164.32 9.51773 162.11 9.77781C159.899 10.0379 158.338 10.298 157.428 10.5581V75.3189C163.93 76.0991 170.172 76.4892 176.154 76.4892Z"/>
<path d="M259.28 145.346L258.89 144.566C259.41 141.705 259.735 139.104 259.865 136.764C260.125 134.423 260.32 131.822 260.45 128.961C260.58 125.97 260.645 122.394 260.645 118.233V31.2347C260.645 26.9433 260.58 23.3672 260.45 20.5063C260.32 17.6453 260.125 15.0445 259.865 12.7038C259.735 10.233 259.41 7.63212 258.89 4.90125L259.28 4.121H330.868V4.90125L325.016 14.4593C319.424 13.1589 314.027 12.1186 308.826 11.3383C303.624 10.5581 297.967 10.0379 291.855 9.77781C285.743 9.38769 278.461 9.19263 270.008 9.19263V69.0769C275.99 69.0769 282.037 69.0118 288.149 68.8818C294.391 68.6217 300.243 68.3616 305.705 68.1015C311.166 67.7114 315.653 67.3863 319.164 67.1262L319.749 67.7114L315.458 76.4892C308.696 75.5789 301.348 74.9287 293.416 74.5386C285.613 74.1485 277.811 73.9534 270.008 73.9534V140.47C278.331 140.47 285.483 140.405 291.465 140.275C297.447 140.015 302.714 139.69 307.265 139.299C311.947 138.779 316.368 138.064 320.529 137.154C324.691 136.243 329.047 135.073 333.599 133.643L334.184 134.228L329.697 145.346H259.28Z"/>
<path d="M414.71 148.467C400.535 148.467 388.051 145.476 377.258 139.494C366.464 133.513 358.011 125.19 351.899 114.526C345.917 103.863 342.926 91.6391 342.926 77.8547C342.926 67.1912 344.747 57.2431 348.388 48.0101C352.029 38.6471 357.101 30.4545 363.603 23.4322C370.105 16.4099 377.648 10.9482 386.23 7.04693C394.813 3.01564 404.046 1 413.929 1C428.104 1 440.523 4.05598 451.186 10.1679C461.98 16.2799 470.432 24.7326 476.544 35.5261C482.656 46.3195 485.712 58.7385 485.712 72.783C485.712 83.3164 483.892 93.1346 480.251 102.238C476.609 111.34 471.538 119.403 465.036 126.425C458.534 133.317 450.991 138.714 442.408 142.615C433.826 146.517 424.593 148.467 414.71 148.467ZM417.44 141.64C428.884 141.64 438.897 138.909 447.48 133.448C456.193 127.986 462.955 120.378 467.767 110.625C472.708 100.742 475.179 89.3634 475.179 76.4892C475.179 66.8661 473.488 57.9583 470.107 49.7657C466.856 41.443 462.305 34.1606 456.453 27.9186C450.731 21.5466 443.969 16.605 436.166 13.0939C428.364 9.58275 419.976 7.82719 411.003 7.82719C400.21 7.82719 390.457 10.5581 381.744 16.0198C373.031 21.3515 366.074 28.959 360.872 38.8422C355.801 48.5953 353.265 60.169 353.265 73.5633C353.265 83.0563 354.89 91.9642 358.141 100.287C361.392 108.48 365.944 115.697 371.796 121.939C377.648 128.181 384.475 133.057 392.277 136.569C400.08 139.95 408.468 141.64 417.44 141.64Z"/>
<path d="M604.195 145.346C602.764 144.696 600.423 143.071 597.172 140.47C593.921 137.739 590.215 134.358 586.054 130.327C578.901 136.569 571.359 141.315 563.427 144.566C555.494 147.687 547.691 148.988 540.019 148.467C530.006 147.817 521.943 145.281 515.831 140.86C509.719 136.438 505.558 130.977 503.347 124.475C501.136 117.843 500.876 110.95 502.567 103.798C504.257 96.6457 507.834 89.9486 513.295 83.7066C518.887 77.3345 526.365 72.1979 535.728 68.2966C532.737 63.225 530.331 58.3484 528.51 53.6669C526.82 48.9854 525.974 44.8241 525.974 41.1829C525.974 34.0306 527.6 27.5935 530.851 21.8717C534.102 16.0198 538.458 11.4033 543.92 8.02225C549.512 4.51112 555.689 2.75556 562.451 2.75556C568.693 2.75556 573.83 3.86092 577.861 6.07162C581.892 8.28233 585.274 10.363 588.004 12.3136L589.76 31.2347H588.98C585.469 23.3022 581.437 17.5803 576.886 14.0692C572.334 10.428 566.938 8.60744 560.696 8.60744C556.014 8.60744 551.723 9.90785 547.821 12.5087C544.05 14.9795 540.994 18.3606 538.654 22.652C536.443 26.9433 535.337 31.7549 535.337 37.0866C535.337 42.1582 536.898 48.0751 540.019 54.8373C543.27 61.4694 547.496 68.5567 552.698 76.0991C557.9 83.6415 563.622 91.1189 569.864 98.5313C576.236 105.944 582.543 112.771 588.785 119.013C594.246 112.641 598.863 105.358 602.634 97.1659C606.535 88.8432 609.136 80.0004 610.437 70.6374H611.217L615.118 86.2424C612.647 93.5247 609.461 100.287 605.56 106.529C601.789 112.771 597.627 118.363 593.076 123.304C598.408 128.506 603.349 132.992 607.901 136.764C612.452 140.535 616.158 143.136 619.019 144.566V145.346H604.195ZM511.93 108.284C511.93 114.917 513.425 120.768 516.416 125.84C519.407 130.782 523.504 134.683 528.705 137.544C533.907 140.275 539.759 141.64 546.261 141.64C552.373 141.64 558.485 140.275 564.597 137.544C570.709 134.683 576.431 130.847 581.762 126.035C576.821 120.964 571.554 115.372 565.962 109.26C560.501 103.018 555.234 96.5157 550.162 89.7535C545.091 82.9913 540.604 76.4242 536.703 70.0522C528.64 74.4736 522.463 80.1304 518.172 87.0226C514.011 93.7848 511.93 100.872 511.93 108.284Z"/>
<path d="M702.945 148.467C688.51 148.467 675.831 145.541 664.908 139.69C653.984 133.708 645.467 125.385 639.355 114.722C633.373 103.928 630.382 91.314 630.382 76.8794C630.382 65.9558 632.137 55.8776 635.648 46.6446C639.16 37.4117 644.036 29.4141 650.278 22.652C656.52 15.7597 663.867 10.428 672.32 6.65681C680.903 2.8856 690.136 1 700.019 1C706.261 1 712.113 1.71523 717.575 3.14568C723.167 4.4461 728.108 6.0066 732.399 7.82719C736.821 9.64777 740.592 11.4033 743.713 13.0939C746.834 14.6544 749.11 15.6947 750.54 16.2149L751.321 35.136H750.54C748.46 30.1944 744.818 25.6429 739.617 21.4816C734.545 17.1902 728.498 13.7441 721.476 11.1433C714.454 8.41237 707.041 7.04693 699.239 7.04693C687.795 7.04693 677.587 9.77781 668.614 15.2396C659.771 20.7013 652.814 28.2437 647.742 37.8668C642.801 47.4899 640.33 58.5435 640.33 71.0275C640.33 80.5205 641.89 89.5584 645.011 98.1412C648.132 106.724 652.619 114.331 658.471 120.964C664.323 127.466 671.28 132.602 679.342 136.373C687.405 140.145 696.378 142.03 706.261 142.03C717.055 142.03 726.743 139.625 735.325 134.813C743.908 130.001 750.28 123.304 754.442 114.722H755.222L754.246 133.057C752.946 133.578 751.581 134.163 750.15 134.813C748.85 135.463 747.354 136.178 745.664 136.959C737.471 140.99 730.059 143.916 723.427 145.736C716.794 147.557 709.967 148.467 702.945 148.467Z"/>
<path d="M838.361 148.467C824.187 148.467 811.703 145.476 800.909 139.494C790.116 133.513 781.663 125.19 775.551 114.526C769.569 103.863 766.578 91.6391 766.578 77.8547C766.578 67.1912 768.399 57.2431 772.04 48.0101C775.681 38.6471 780.753 30.4545 787.255 23.4322C793.757 16.4099 801.299 10.9482 809.882 7.04693C818.465 3.01564 827.698 1 837.581 1C851.755 1 864.174 4.05598 874.838 10.1679C885.631 16.2799 894.084 24.7326 900.196 35.5261C906.308 46.3195 909.364 58.7385 909.364 72.783C909.364 83.3164 907.543 93.1346 903.902 102.238C900.261 111.34 895.189 119.403 888.687 126.425C882.185 133.317 874.643 138.714 866.06 142.615C857.477 146.517 848.244 148.467 838.361 148.467ZM841.092 141.64C852.536 141.64 862.549 138.909 871.132 133.448C879.845 127.986 886.607 120.378 891.418 110.625C896.36 100.742 898.831 89.3634 898.831 76.4892C898.831 66.8661 897.14 57.9583 893.759 49.7657C890.508 41.443 885.956 34.1606 880.105 27.9186C874.383 21.5466 867.621 16.605 859.818 13.0939C852.016 9.58275 843.628 7.82719 834.655 7.82719C823.862 7.82719 814.108 10.5581 805.396 16.0198C796.683 21.3515 789.726 28.959 784.524 38.8422C779.452 48.5953 776.916 60.169 776.916 73.5633C776.916 83.0563 778.542 91.9642 781.793 100.287C785.044 108.48 789.596 115.697 795.447 121.939C801.299 128.181 808.126 133.057 815.929 136.569C823.731 139.95 832.119 141.64 841.092 141.64Z"/>
<path d="M923.395 151.393L913.837 141.835V141.055L923.395 131.497H924.175L933.733 141.055V141.835L924.175 151.393H923.395Z"/>
<path d="M58.338 259L58.164 258.652C59.295 253.954 59.382 250.387 59.382 244.297V204.103C59.382 201.145 57.468 198.1 53.727 196.273V195.925H61.992L90.789 249.691L119.151 195.925H126.285V196.273C121.761 198.274 121.674 200.71 121.674 206.887V246.907C121.674 252.562 121.848 254.911 122.457 258.652L122.283 259H116.802L116.628 258.652C117.324 254.911 117.498 252.562 117.498 246.907V205.234L90.18 257.173H89.832L62.34 205.669V244.297C62.34 250.387 62.34 254.128 63.384 258.826L63.21 259H58.338Z"/>
<path d="M141.637 259V258.652C143.725 255.433 146.248 250.561 148.162 245.95L164.257 206.8C164.866 205.234 165.736 202.972 165.736 202.015C165.736 200.275 163.648 197.752 162.082 196.36V196.012H167.563L189.226 244.993C191.923 250.996 193.837 255.085 196.012 258.652V259H188.443C188.443 255.433 188.095 252.736 185.311 246.385L182.266 239.599H153.991L151.207 246.385C148.336 253.432 148.075 256.303 147.988 259H141.637ZM154.948 237.163H181.222L167.563 206.452L154.948 237.163Z"/>
<path d="M214.007 259L213.833 258.652C214.442 254.911 214.616 252.562 214.616 246.907V208.105C214.616 202.45 214.442 200.101 213.833 196.36L214.007 196.012C219.14 196.012 224.447 195.664 229.58 195.664C240.977 195.664 250.46 200.188 250.46 211.237C250.46 221.677 241.847 229.42 230.972 230.638C233.669 233.683 235.496 235.075 238.193 235.597L246.371 245.602C251.243 251.779 256.637 256.999 258.986 258.565L258.812 259H255.854C251.852 259 250.46 257.782 248.459 255.259L235.148 238.903C228.797 230.899 224.795 230.638 219.749 230.638H218.792V246.907C218.792 252.562 218.966 254.911 219.575 258.652L219.401 259H214.007ZM227.144 228.289C238.889 228.289 245.762 222.46 245.762 212.716C245.762 203.407 239.237 198.187 227.231 198.187C224.534 198.187 219.923 198.535 218.792 198.883V227.767C221.663 228.115 224.534 228.289 227.144 228.289Z"/>
<path d="M315.897 259L292.581 236.554C285.969 230.116 283.533 228.376 280.314 228.376V246.907C280.314 252.562 280.488 254.911 281.097 258.652L280.923 259H275.529L275.355 258.652C275.964 254.911 276.138 252.562 276.138 246.907V208.105C276.138 202.45 275.964 200.101 275.355 196.36L275.529 196.012H280.923L281.097 196.36C280.488 200.101 280.314 202.45 280.314 208.105V224.809L303.543 205.756C308.763 201.493 311.286 198.883 313.287 196.012H320.16V196.36C315.201 199.753 311.46 202.711 306.153 207.061L282.75 226.288C286.839 228.898 290.493 229.333 291.102 229.333L299.976 237.859C315.549 252.823 319.551 256.303 323.379 258.478L323.727 259H315.897Z"/>
<path d="M340.279 259L340.105 258.652C340.714 254.911 340.888 252.562 340.888 246.907V208.105C340.888 202.45 340.714 200.101 340.105 196.36L340.279 196.012H372.208V196.36L369.598 200.623C362.116 198.883 356.374 198.274 345.064 198.274V224.983C352.981 224.983 362.29 224.548 366.988 224.113L367.249 224.374L365.335 228.289C359.245 227.506 352.024 227.158 345.064 227.158V256.825C359.941 256.825 365.248 256.303 373.426 253.78L373.687 254.041L371.686 259H340.279Z"/>
<path d="M408.297 258.913L408.124 258.565C408.733 254.824 408.906 252.475 408.906 246.82V198.274C398.118 198.274 392.29 199.405 385.939 200.797L385.677 200.623L387.156 195.838C390.201 196.012 393.246 196.099 396.378 196.099H425.611C428.743 196.099 431.787 196.012 434.832 195.838L436.311 200.623L436.051 200.884C429.613 199.405 423.87 198.274 413.082 198.274V246.82C413.082 252.475 413.257 254.824 413.866 258.565L413.691 258.913H408.297Z"/>
<path d="M454.912 259L454.738 258.652C455.347 254.911 455.521 252.562 455.521 246.907V208.105C455.521 202.45 455.347 200.101 454.738 196.36L454.912 196.012H460.306L460.48 196.36C459.871 200.101 459.697 202.45 459.697 208.105V246.907C459.697 252.562 459.871 254.911 460.48 258.652L460.306 259H454.912Z"/>
<path d="M536.233 259.087L489.775 206.539V244.297C489.775 250.3 489.862 254.041 490.819 258.652V259H485.773L485.599 258.652C486.73 254.041 486.817 250.3 486.817 244.297V205.756C486.817 201.58 483.337 197.665 480.466 196.36V196.012H486.382L533.623 249.343V210.715C533.623 204.712 533.536 201.058 532.492 196.447V196.012H537.712V196.447C536.668 201.058 536.581 204.712 536.581 210.715V259.087H536.233Z"/>
<path d="M594.167 259.087C573.287 259.087 559.106 246.646 559.106 228.202C559.106 208.888 572.591 194.62 590.687 194.62C602.606 194.62 611.741 200.536 614.612 201.493L614.96 210.106H614.612C611.48 203.494 601.388 197.317 590.339 197.317C575.114 197.317 563.717 209.323 563.717 225.331C563.717 242.731 576.419 256.216 596.168 256.216C600.17 256.216 607.913 255.346 611.828 254.302V230.29C611.828 224.635 611.654 222.286 611.045 218.545L611.219 218.197H616.526L616.7 218.545C616.091 222.286 615.917 224.635 615.917 230.29V250.126C615.917 254.215 616.613 255.52 618.962 255.955L618.875 256.303C613.568 256.39 604.955 259.087 594.167 259.087Z"/>
<path d="M668.629 259L668.455 258.652C669.064 254.911 669.238 252.562 669.238 246.907V208.105C669.238 202.45 669.064 200.101 668.455 196.36L668.629 196.012H701.776V196.36L699.079 200.71C691.423 198.622 683.68 198.187 673.414 198.187V226.375C682.288 226.375 692.032 226.027 696.208 225.592L696.469 225.853L695.077 229.681C688.726 228.985 680.2 228.55 673.414 228.55V246.907C673.414 252.562 673.588 254.911 674.197 258.652L674.023 259H668.629Z"/>
<path d="M720.381 259L720.207 258.652C720.816 254.911 720.99 252.562 720.99 246.907V208.105C720.99 202.45 720.816 200.101 720.207 196.36L720.381 196.012H725.775L725.949 196.36C725.34 200.101 725.166 202.45 725.166 208.105V246.907C725.166 252.562 725.34 254.911 725.949 258.652L725.775 259H720.381Z"/>
<path d="M750.807 259L750.633 258.652C751.242 254.911 751.416 252.562 751.416 246.907V208.105C751.416 202.45 751.242 200.101 750.633 196.36L750.807 196.012C755.94 196.012 761.247 195.664 766.38 195.664C777.777 195.664 787.26 200.188 787.26 211.237C787.26 221.677 778.647 229.42 767.772 230.638C770.469 233.683 772.296 235.075 774.993 235.597L783.171 245.602C788.043 251.779 793.437 256.999 795.786 258.565L795.612 259H792.654C788.652 259 787.26 257.782 785.259 255.259L771.948 238.903C765.597 230.899 761.595 230.638 756.549 230.638H755.592V246.907C755.592 252.562 755.766 254.911 756.375 258.652L756.201 259H750.807ZM763.944 228.289C775.689 228.289 782.562 222.46 782.562 212.716C782.562 203.407 776.037 198.187 764.031 198.187C761.334 198.187 756.723 198.535 755.592 198.883V227.767C758.463 228.115 761.334 228.289 763.944 228.289Z"/>
<path d="M812.329 259L812.155 258.652C813.286 253.954 813.373 250.387 813.373 244.297V204.103C813.373 201.145 811.459 198.1 807.718 196.273V195.925H815.983L844.78 249.691L873.142 195.925H880.276V196.273C875.752 198.274 875.665 200.71 875.665 206.887V246.907C875.665 252.562 875.839 254.911 876.448 258.652L876.274 259H870.793L870.619 258.652C871.315 254.911 871.489 252.562 871.489 246.907V205.234L844.171 257.173H843.823L816.331 205.669V244.297C816.331 250.387 816.331 254.128 817.375 258.826L817.201 259H812.329Z"/>
</mask>
<path d="M73.5633 148.467C59.1287 148.467 46.4496 145.541 35.5261 139.69C24.6026 133.708 16.0848 125.385 9.97288 114.722C3.99096 103.928 1 91.314 1 76.8794C1 65.9558 2.75556 55.8776 6.26669 46.6446C9.77782 37.4117 14.6544 29.4141 20.8964 22.652C27.1384 15.7597 34.4858 10.428 42.9385 6.65681C51.5212 2.8856 60.7542 1 70.6374 1C76.8794 1 82.7312 1.71523 88.193 3.14568C93.7848 4.4461 98.7264 6.0066 103.018 7.82719C107.439 9.64777 111.21 11.4033 114.331 13.0939C117.452 14.6544 119.728 15.6947 121.159 16.2149L121.939 35.136H121.159C119.078 30.1944 115.437 25.6429 110.235 21.4816C105.163 17.1902 99.1165 13.7441 92.0943 11.1433C85.072 8.41237 77.6596 7.04693 69.8571 7.04693C58.4134 7.04693 48.2052 9.77781 39.2323 15.2396C30.3894 20.7013 23.4322 28.2437 18.3606 37.8668C13.419 47.4899 10.9482 58.5435 10.9482 71.0275C10.9482 80.5205 12.5087 89.5584 15.6297 98.1412C18.7507 106.724 23.2371 114.331 29.089 120.964C34.9409 127.466 41.8981 132.602 49.9607 136.373C58.0233 140.145 66.9962 142.03 76.8794 142.03C87.6728 142.03 97.3609 139.625 105.944 134.813C114.526 130.001 120.898 123.304 125.06 114.722H125.84L124.865 133.057C123.564 133.578 122.199 134.163 120.768 134.813C119.468 135.463 117.973 136.178 116.282 136.959C108.089 140.99 100.677 143.916 94.0449 145.736C87.4127 147.557 80.5856 148.467 73.5633 148.467Z" fill="#ECECE0"/>
<path d="M146.7 145.346L146.309 144.566C146.83 141.705 147.155 139.104 147.285 136.764C147.545 134.423 147.74 131.822 147.87 128.961C148 125.97 148.065 122.394 148.065 118.233V31.2347C148.065 26.9433 148 23.3672 147.87 20.5063C147.74 17.6453 147.545 15.0445 147.285 12.7038C147.155 10.233 146.83 7.63212 146.309 4.90125L146.7 4.121C152.421 4.121 158.208 3.99096 164.06 3.73088C170.042 3.47079 175.894 3.34074 181.616 3.34074C190.199 3.34074 198.001 4.57614 205.023 7.04693C212.176 9.38769 217.832 13.0939 221.994 18.1655C226.285 23.2371 228.431 29.9343 228.431 38.257C228.431 46.0595 226.48 53.0817 222.579 59.3237C218.678 65.5657 213.411 70.6374 206.779 74.5386C200.277 78.4399 192.929 80.8456 184.737 81.7559C187.728 85.137 190.394 87.6728 192.734 89.3634C195.205 91.0539 197.936 92.2243 200.927 92.8745L219.263 115.307C224.725 122.199 230.121 128.311 235.453 133.643C240.915 138.974 244.946 142.55 247.547 144.371L247.157 145.346H240.525C236.103 145.346 232.787 144.696 230.577 143.396C228.366 141.965 226.155 139.82 223.944 136.959L194.1 100.287C189.418 94.305 185.127 90.0136 181.226 87.4127C177.454 84.8119 173.813 83.2514 170.302 82.7312C166.921 82.081 163.345 81.7559 159.574 81.7559H157.428V118.233C157.428 122.394 157.493 125.97 157.623 128.961C157.753 131.822 157.948 134.423 158.208 136.764C158.468 139.104 158.793 141.705 159.184 144.566L158.793 145.346H146.7ZM176.154 76.4892C189.288 76.4892 199.497 73.4332 206.779 67.3213C214.191 61.0793 217.897 52.4965 217.897 41.573C217.897 31.1697 214.321 23.1721 207.169 17.5803C200.147 11.8585 189.873 8.99756 176.349 8.99756C174.398 8.99756 172.058 9.06258 169.327 9.19263C166.726 9.32267 164.32 9.51773 162.11 9.77781C159.899 10.0379 158.338 10.298 157.428 10.5581V75.3189C163.93 76.0991 170.172 76.4892 176.154 76.4892Z" fill="#ECECE0"/>
<path d="M259.28 145.346L258.89 144.566C259.41 141.705 259.735 139.104 259.865 136.764C260.125 134.423 260.32 131.822 260.45 128.961C260.58 125.97 260.645 122.394 260.645 118.233V31.2347C260.645 26.9433 260.58 23.3672 260.45 20.5063C260.32 17.6453 260.125 15.0445 259.865 12.7038C259.735 10.233 259.41 7.63212 258.89 4.90125L259.28 4.121H330.868V4.90125L325.016 14.4593C319.424 13.1589 314.027 12.1186 308.826 11.3383C303.624 10.5581 297.967 10.0379 291.855 9.77781C285.743 9.38769 278.461 9.19263 270.008 9.19263V69.0769C275.99 69.0769 282.037 69.0118 288.149 68.8818C294.391 68.6217 300.243 68.3616 305.705 68.1015C311.166 67.7114 315.653 67.3863 319.164 67.1262L319.749 67.7114L315.458 76.4892C308.696 75.5789 301.348 74.9287 293.416 74.5386C285.613 74.1485 277.811 73.9534 270.008 73.9534V140.47C278.331 140.47 285.483 140.405 291.465 140.275C297.447 140.015 302.714 139.69 307.265 139.299C311.947 138.779 316.368 138.064 320.529 137.154C324.691 136.243 329.047 135.073 333.599 133.643L334.184 134.228L329.697 145.346H259.28Z" fill="#ECECE0"/>
<path d="M414.71 148.467C400.535 148.467 388.051 145.476 377.258 139.494C366.464 133.513 358.011 125.19 351.899 114.526C345.917 103.863 342.926 91.6391 342.926 77.8547C342.926 67.1912 344.747 57.2431 348.388 48.0101C352.029 38.6471 357.101 30.4545 363.603 23.4322C370.105 16.4099 377.648 10.9482 386.23 7.04693C394.813 3.01564 404.046 1 413.929 1C428.104 1 440.523 4.05598 451.186 10.1679C461.98 16.2799 470.432 24.7326 476.544 35.5261C482.656 46.3195 485.712 58.7385 485.712 72.783C485.712 83.3164 483.892 93.1346 480.251 102.238C476.609 111.34 471.538 119.403 465.036 126.425C458.534 133.317 450.991 138.714 442.408 142.615C433.826 146.517 424.593 148.467 414.71 148.467ZM417.44 141.64C428.884 141.64 438.897 138.909 447.48 133.448C456.193 127.986 462.955 120.378 467.767 110.625C472.708 100.742 475.179 89.3634 475.179 76.4892C475.179 66.8661 473.488 57.9583 470.107 49.7657C466.856 41.443 462.305 34.1606 456.453 27.9186C450.731 21.5466 443.969 16.605 436.166 13.0939C428.364 9.58275 419.976 7.82719 411.003 7.82719C400.21 7.82719 390.457 10.5581 381.744 16.0198C373.031 21.3515 366.074 28.959 360.872 38.8422C355.801 48.5953 353.265 60.169 353.265 73.5633C353.265 83.0563 354.89 91.9642 358.141 100.287C361.392 108.48 365.944 115.697 371.796 121.939C377.648 128.181 384.475 133.057 392.277 136.569C400.08 139.95 408.468 141.64 417.44 141.64Z" fill="#ECECE0"/>
<path d="M604.195 145.346C602.764 144.696 600.423 143.071 597.172 140.47C593.921 137.739 590.215 134.358 586.054 130.327C578.901 136.569 571.359 141.315 563.427 144.566C555.494 147.687 547.691 148.988 540.019 148.467C530.006 147.817 521.943 145.281 515.831 140.86C509.719 136.438 505.558 130.977 503.347 124.475C501.136 117.843 500.876 110.95 502.567 103.798C504.257 96.6457 507.834 89.9486 513.295 83.7066C518.887 77.3345 526.365 72.1979 535.728 68.2966C532.737 63.225 530.331 58.3484 528.51 53.6669C526.82 48.9854 525.974 44.8241 525.974 41.1829C525.974 34.0306 527.6 27.5935 530.851 21.8717C534.102 16.0198 538.458 11.4033 543.92 8.02225C549.512 4.51112 555.689 2.75556 562.451 2.75556C568.693 2.75556 573.83 3.86092 577.861 6.07162C581.892 8.28233 585.274 10.363 588.004 12.3136L589.76 31.2347H588.98C585.469 23.3022 581.437 17.5803 576.886 14.0692C572.334 10.428 566.938 8.60744 560.696 8.60744C556.014 8.60744 551.723 9.90785 547.821 12.5087C544.05 14.9795 540.994 18.3606 538.654 22.652C536.443 26.9433 535.337 31.7549 535.337 37.0866C535.337 42.1582 536.898 48.0751 540.019 54.8373C543.27 61.4694 547.496 68.5567 552.698 76.0991C557.9 83.6415 563.622 91.1189 569.864 98.5313C576.236 105.944 582.543 112.771 588.785 119.013C594.246 112.641 598.863 105.358 602.634 97.1659C606.535 88.8432 609.136 80.0004 610.437 70.6374H611.217L615.118 86.2424C612.647 93.5247 609.461 100.287 605.56 106.529C601.789 112.771 597.627 118.363 593.076 123.304C598.408 128.506 603.349 132.992 607.901 136.764C612.452 140.535 616.158 143.136 619.019 144.566V145.346H604.195ZM511.93 108.284C511.93 114.917 513.425 120.768 516.416 125.84C519.407 130.782 523.504 134.683 528.705 137.544C533.907 140.275 539.759 141.64 546.261 141.64C552.373 141.64 558.485 140.275 564.597 137.544C570.709 134.683 576.431 130.847 581.762 126.035C576.821 120.964 571.554 115.372 565.962 109.26C560.501 103.018 555.234 96.5157 550.162 89.7535C545.091 82.9913 540.604 76.4242 536.703 70.0522C528.64 74.4736 522.463 80.1304 518.172 87.0226C514.011 93.7848 511.93 100.872 511.93 108.284Z" fill="#ECECE0"/>
<path d="M702.945 148.467C688.51 148.467 675.831 145.541 664.908 139.69C653.984 133.708 645.467 125.385 639.355 114.722C633.373 103.928 630.382 91.314 630.382 76.8794C630.382 65.9558 632.137 55.8776 635.648 46.6446C639.16 37.4117 644.036 29.4141 650.278 22.652C656.52 15.7597 663.867 10.428 672.32 6.65681C680.903 2.8856 690.136 1 700.019 1C706.261 1 712.113 1.71523 717.575 3.14568C723.167 4.4461 728.108 6.0066 732.399 7.82719C736.821 9.64777 740.592 11.4033 743.713 13.0939C746.834 14.6544 749.11 15.6947 750.54 16.2149L751.321 35.136H750.54C748.46 30.1944 744.818 25.6429 739.617 21.4816C734.545 17.1902 728.498 13.7441 721.476 11.1433C714.454 8.41237 707.041 7.04693 699.239 7.04693C687.795 7.04693 677.587 9.77781 668.614 15.2396C659.771 20.7013 652.814 28.2437 647.742 37.8668C642.801 47.4899 640.33 58.5435 640.33 71.0275C640.33 80.5205 641.89 89.5584 645.011 98.1412C648.132 106.724 652.619 114.331 658.471 120.964C664.323 127.466 671.28 132.602 679.342 136.373C687.405 140.145 696.378 142.03 706.261 142.03C717.055 142.03 726.743 139.625 735.325 134.813C743.908 130.001 750.28 123.304 754.442 114.722H755.222L754.246 133.057C752.946 133.578 751.581 134.163 750.15 134.813C748.85 135.463 747.354 136.178 745.664 136.959C737.471 140.99 730.059 143.916 723.427 145.736C716.794 147.557 709.967 148.467 702.945 148.467Z" fill="#ECECE0"/>
<path d="M838.361 148.467C824.187 148.467 811.703 145.476 800.909 139.494C790.116 133.513 781.663 125.19 775.551 114.526C769.569 103.863 766.578 91.6391 766.578 77.8547C766.578 67.1912 768.399 57.2431 772.04 48.0101C775.681 38.6471 780.753 30.4545 787.255 23.4322C793.757 16.4099 801.299 10.9482 809.882 7.04693C818.465 3.01564 827.698 1 837.581 1C851.755 1 864.174 4.05598 874.838 10.1679C885.631 16.2799 894.084 24.7326 900.196 35.5261C906.308 46.3195 909.364 58.7385 909.364 72.783C909.364 83.3164 907.543 93.1346 903.902 102.238C900.261 111.34 895.189 119.403 888.687 126.425C882.185 133.317 874.643 138.714 866.06 142.615C857.477 146.517 848.244 148.467 838.361 148.467ZM841.092 141.64C852.536 141.64 862.549 138.909 871.132 133.448C879.845 127.986 886.607 120.378 891.418 110.625C896.36 100.742 898.831 89.3634 898.831 76.4892C898.831 66.8661 897.14 57.9583 893.759 49.7657C890.508 41.443 885.956 34.1606 880.105 27.9186C874.383 21.5466 867.621 16.605 859.818 13.0939C852.016 9.58275 843.628 7.82719 834.655 7.82719C823.862 7.82719 814.108 10.5581 805.396 16.0198C796.683 21.3515 789.726 28.959 784.524 38.8422C779.452 48.5953 776.916 60.169 776.916 73.5633C776.916 83.0563 778.542 91.9642 781.793 100.287C785.044 108.48 789.596 115.697 795.447 121.939C801.299 128.181 808.126 133.057 815.929 136.569C823.731 139.95 832.119 141.64 841.092 141.64Z" fill="#ECECE0"/>
<path d="M923.395 151.393L913.837 141.835V141.055L923.395 131.497H924.175L933.733 141.055V141.835L924.175 151.393H923.395Z" fill="#ECECE0"/>
<path d="M58.338 259L58.164 258.652C59.295 253.954 59.382 250.387 59.382 244.297V204.103C59.382 201.145 57.468 198.1 53.727 196.273V195.925H61.992L90.789 249.691L119.151 195.925H126.285V196.273C121.761 198.274 121.674 200.71 121.674 206.887V246.907C121.674 252.562 121.848 254.911 122.457 258.652L122.283 259H116.802L116.628 258.652C117.324 254.911 117.498 252.562 117.498 246.907V205.234L90.18 257.173H89.832L62.34 205.669V244.297C62.34 250.387 62.34 254.128 63.384 258.826L63.21 259H58.338Z" fill="#ECECE0"/>
<path d="M141.637 259V258.652C143.725 255.433 146.248 250.561 148.162 245.95L164.257 206.8C164.866 205.234 165.736 202.972 165.736 202.015C165.736 200.275 163.648 197.752 162.082 196.36V196.012H167.563L189.226 244.993C191.923 250.996 193.837 255.085 196.012 258.652V259H188.443C188.443 255.433 188.095 252.736 185.311 246.385L182.266 239.599H153.991L151.207 246.385C148.336 253.432 148.075 256.303 147.988 259H141.637ZM154.948 237.163H181.222L167.563 206.452L154.948 237.163Z" fill="#ECECE0"/>
<path d="M214.007 259L213.833 258.652C214.442 254.911 214.616 252.562 214.616 246.907V208.105C214.616 202.45 214.442 200.101 213.833 196.36L214.007 196.012C219.14 196.012 224.447 195.664 229.58 195.664C240.977 195.664 250.46 200.188 250.46 211.237C250.46 221.677 241.847 229.42 230.972 230.638C233.669 233.683 235.496 235.075 238.193 235.597L246.371 245.602C251.243 251.779 256.637 256.999 258.986 258.565L258.812 259H255.854C251.852 259 250.46 257.782 248.459 255.259L235.148 238.903C228.797 230.899 224.795 230.638 219.749 230.638H218.792V246.907C218.792 252.562 218.966 254.911 219.575 258.652L219.401 259H214.007ZM227.144 228.289C238.889 228.289 245.762 222.46 245.762 212.716C245.762 203.407 239.237 198.187 227.231 198.187C224.534 198.187 219.923 198.535 218.792 198.883V227.767C221.663 228.115 224.534 228.289 227.144 228.289Z" fill="#ECECE0"/>
<path d="M315.897 259L292.581 236.554C285.969 230.116 283.533 228.376 280.314 228.376V246.907C280.314 252.562 280.488 254.911 281.097 258.652L280.923 259H275.529L275.355 258.652C275.964 254.911 276.138 252.562 276.138 246.907V208.105C276.138 202.45 275.964 200.101 275.355 196.36L275.529 196.012H280.923L281.097 196.36C280.488 200.101 280.314 202.45 280.314 208.105V224.809L303.543 205.756C308.763 201.493 311.286 198.883 313.287 196.012H320.16V196.36C315.201 199.753 311.46 202.711 306.153 207.061L282.75 226.288C286.839 228.898 290.493 229.333 291.102 229.333L299.976 237.859C315.549 252.823 319.551 256.303 323.379 258.478L323.727 259H315.897Z" fill="#ECECE0"/>
<path d="M340.279 259L340.105 258.652C340.714 254.911 340.888 252.562 340.888 246.907V208.105C340.888 202.45 340.714 200.101 340.105 196.36L340.279 196.012H372.208V196.36L369.598 200.623C362.116 198.883 356.374 198.274 345.064 198.274V224.983C352.981 224.983 362.29 224.548 366.988 224.113L367.249 224.374L365.335 228.289C359.245 227.506 352.024 227.158 345.064 227.158V256.825C359.941 256.825 365.248 256.303 373.426 253.78L373.687 254.041L371.686 259H340.279Z" fill="#ECECE0"/>
<path d="M408.297 258.913L408.124 258.565C408.733 254.824 408.906 252.475 408.906 246.82V198.274C398.118 198.274 392.29 199.405 385.939 200.797L385.677 200.623L387.156 195.838C390.201 196.012 393.246 196.099 396.378 196.099H425.611C428.743 196.099 431.787 196.012 434.832 195.838L436.311 200.623L436.051 200.884C429.613 199.405 423.87 198.274 413.082 198.274V246.82C413.082 252.475 413.257 254.824 413.866 258.565L413.691 258.913H408.297Z" fill="#ECECE0"/>
<path d="M454.912 259L454.738 258.652C455.347 254.911 455.521 252.562 455.521 246.907V208.105C455.521 202.45 455.347 200.101 454.738 196.36L454.912 196.012H460.306L460.48 196.36C459.871 200.101 459.697 202.45 459.697 208.105V246.907C459.697 252.562 459.871 254.911 460.48 258.652L460.306 259H454.912Z" fill="#ECECE0"/>
<path d="M536.233 259.087L489.775 206.539V244.297C489.775 250.3 489.862 254.041 490.819 258.652V259H485.773L485.599 258.652C486.73 254.041 486.817 250.3 486.817 244.297V205.756C486.817 201.58 483.337 197.665 480.466 196.36V196.012H486.382L533.623 249.343V210.715C533.623 204.712 533.536 201.058 532.492 196.447V196.012H537.712V196.447C536.668 201.058 536.581 204.712 536.581 210.715V259.087H536.233Z" fill="#ECECE0"/>
<path d="M594.167 259.087C573.287 259.087 559.106 246.646 559.106 228.202C559.106 208.888 572.591 194.62 590.687 194.62C602.606 194.62 611.741 200.536 614.612 201.493L614.96 210.106H614.612C611.48 203.494 601.388 197.317 590.339 197.317C575.114 197.317 563.717 209.323 563.717 225.331C563.717 242.731 576.419 256.216 596.168 256.216C600.17 256.216 607.913 255.346 611.828 254.302V230.29C611.828 224.635 611.654 222.286 611.045 218.545L611.219 218.197H616.526L616.7 218.545C616.091 222.286 615.917 224.635 615.917 230.29V250.126C615.917 254.215 616.613 255.52 618.962 255.955L618.875 256.303C613.568 256.39 604.955 259.087 594.167 259.087Z" fill="#ECECE0"/>
<path d="M668.629 259L668.455 258.652C669.064 254.911 669.238 252.562 669.238 246.907V208.105C669.238 202.45 669.064 200.101 668.455 196.36L668.629 196.012H701.776V196.36L699.079 200.71C691.423 198.622 683.68 198.187 673.414 198.187V226.375C682.288 226.375 692.032 226.027 696.208 225.592L696.469 225.853L695.077 229.681C688.726 228.985 680.2 228.55 673.414 228.55V246.907C673.414 252.562 673.588 254.911 674.197 258.652L674.023 259H668.629Z" fill="#ECECE0"/>
<path d="M720.381 259L720.207 258.652C720.816 254.911 720.99 252.562 720.99 246.907V208.105C720.99 202.45 720.816 200.101 720.207 196.36L720.381 196.012H725.775L725.949 196.36C725.34 200.101 725.166 202.45 725.166 208.105V246.907C725.166 252.562 725.34 254.911 725.949 258.652L725.775 259H720.381Z" fill="#ECECE0"/>
<path d="M750.807 259L750.633 258.652C751.242 254.911 751.416 252.562 751.416 246.907V208.105C751.416 202.45 751.242 200.101 750.633 196.36L750.807 196.012C755.94 196.012 761.247 195.664 766.38 195.664C777.777 195.664 787.26 200.188 787.26 211.237C787.26 221.677 778.647 229.42 767.772 230.638C770.469 233.683 772.296 235.075 774.993 235.597L783.171 245.602C788.043 251.779 793.437 256.999 795.786 258.565L795.612 259H792.654C788.652 259 787.26 257.782 785.259 255.259L771.948 238.903C765.597 230.899 761.595 230.638 756.549 230.638H755.592V246.907C755.592 252.562 755.766 254.911 756.375 258.652L756.201 259H750.807ZM763.944 228.289C775.689 228.289 782.562 222.46 782.562 212.716C782.562 203.407 776.037 198.187 764.031 198.187C761.334 198.187 756.723 198.535 755.592 198.883V227.767C758.463 228.115 761.334 228.289 763.944 228.289Z" fill="#ECECE0"/>
<path d="M812.329 259L812.155 258.652C813.286 253.954 813.373 250.387 813.373 244.297V204.103C813.373 201.145 811.459 198.1 807.718 196.273V195.925H815.983L844.78 249.691L873.142 195.925H880.276V196.273C875.752 198.274 875.665 200.71 875.665 206.887V246.907C875.665 252.562 875.839 254.911 876.448 258.652L876.274 259H870.793L870.619 258.652C871.315 254.911 871.489 252.562 871.489 246.907V205.234L844.171 257.173H843.823L816.331 205.669V244.297C816.331 250.387 816.331 254.128 817.375 258.826L817.201 259H812.329Z" fill="#ECECE0"/>
<path d="M73.5633 148.467C59.1287 148.467 46.4496 145.541 35.5261 139.69C24.6026 133.708 16.0848 125.385 9.97288 114.722C3.99096 103.928 1 91.314 1 76.8794C1 65.9558 2.75556 55.8776 6.26669 46.6446C9.77782 37.4117 14.6544 29.4141 20.8964 22.652C27.1384 15.7597 34.4858 10.428 42.9385 6.65681C51.5212 2.8856 60.7542 1 70.6374 1C76.8794 1 82.7312 1.71523 88.193 3.14568C93.7848 4.4461 98.7264 6.0066 103.018 7.82719C107.439 9.64777 111.21 11.4033 114.331 13.0939C117.452 14.6544 119.728 15.6947 121.159 16.2149L121.939 35.136H121.159C119.078 30.1944 115.437 25.6429 110.235 21.4816C105.163 17.1902 99.1165 13.7441 92.0943 11.1433C85.072 8.41237 77.6596 7.04693 69.8571 7.04693C58.4134 7.04693 48.2052 9.77781 39.2323 15.2396C30.3894 20.7013 23.4322 28.2437 18.3606 37.8668C13.419 47.4899 10.9482 58.5435 10.9482 71.0275C10.9482 80.5205 12.5087 89.5584 15.6297 98.1412C18.7507 106.724 23.2371 114.331 29.089 120.964C34.9409 127.466 41.8981 132.602 49.9607 136.373C58.0233 140.145 66.9962 142.03 76.8794 142.03C87.6728 142.03 97.3609 139.625 105.944 134.813C114.526 130.001 120.898 123.304 125.06 114.722H125.84L124.865 133.057C123.564 133.578 122.199 134.163 120.768 134.813C119.468 135.463 117.973 136.178 116.282 136.959C108.089 140.99 100.677 143.916 94.0449 145.736C87.4127 147.557 80.5856 148.467 73.5633 148.467Z" stroke="#ECECE0" stroke-width="2" mask="url(#path-1-outside-1_249_188)"/>
<path d="M146.7 145.346L146.309 144.566C146.83 141.705 147.155 139.104 147.285 136.764C147.545 134.423 147.74 131.822 147.87 128.961C148 125.97 148.065 122.394 148.065 118.233V31.2347C148.065 26.9433 148 23.3672 147.87 20.5063C147.74 17.6453 147.545 15.0445 147.285 12.7038C147.155 10.233 146.83 7.63212 146.309 4.90125L146.7 4.121C152.421 4.121 158.208 3.99096 164.06 3.73088C170.042 3.47079 175.894 3.34074 181.616 3.34074C190.199 3.34074 198.001 4.57614 205.023 7.04693C212.176 9.38769 217.832 13.0939 221.994 18.1655C226.285 23.2371 228.431 29.9343 228.431 38.257C228.431 46.0595 226.48 53.0817 222.579 59.3237C218.678 65.5657 213.411 70.6374 206.779 74.5386C200.277 78.4399 192.929 80.8456 184.737 81.7559C187.728 85.137 190.394 87.6728 192.734 89.3634C195.205 91.0539 197.936 92.2243 200.927 92.8745L219.263 115.307C224.725 122.199 230.121 128.311 235.453 133.643C240.915 138.974 244.946 142.55 247.547 144.371L247.157 145.346H240.525C236.103 145.346 232.787 144.696 230.577 143.396C228.366 141.965 226.155 139.82 223.944 136.959L194.1 100.287C189.418 94.305 185.127 90.0136 181.226 87.4127C177.454 84.8119 173.813 83.2514 170.302 82.7312C166.921 82.081 163.345 81.7559 159.574 81.7559H157.428V118.233C157.428 122.394 157.493 125.97 157.623 128.961C157.753 131.822 157.948 134.423 158.208 136.764C158.468 139.104 158.793 141.705 159.184 144.566L158.793 145.346H146.7ZM176.154 76.4892C189.288 76.4892 199.497 73.4332 206.779 67.3213C214.191 61.0793 217.897 52.4965 217.897 41.573C217.897 31.1697 214.321 23.1721 207.169 17.5803C200.147 11.8585 189.873 8.99756 176.349 8.99756C174.398 8.99756 172.058 9.06258 169.327 9.19263C166.726 9.32267 164.32 9.51773 162.11 9.77781C159.899 10.0379 158.338 10.298 157.428 10.5581V75.3189C163.93 76.0991 170.172 76.4892 176.154 76.4892Z" stroke="#ECECE0" stroke-width="2" mask="url(#path-1-outside-1_249_188)"/>
<path d="M259.28 145.346L258.89 144.566C259.41 141.705 259.735 139.104 259.865 136.764C260.125 134.423 260.32 131.822 260.45 128.961C260.58 125.97 260.645 122.394 260.645 118.233V31.2347C260.645 26.9433 260.58 23.3672 260.45 20.5063C260.32 17.6453 260.125 15.0445 259.865 12.7038C259.735 10.233 259.41 7.63212 258.89 4.90125L259.28 4.121H330.868V4.90125L325.016 14.4593C319.424 13.1589 314.027 12.1186 308.826 11.3383C303.624 10.5581 297.967 10.0379 291.855 9.77781C285.743 9.38769 278.461 9.19263 270.008 9.19263V69.0769C275.99 69.0769 282.037 69.0118 288.149 68.8818C294.391 68.6217 300.243 68.3616 305.705 68.1015C311.166 67.7114 315.653 67.3863 319.164 67.1262L319.749 67.7114L315.458 76.4892C308.696 75.5789 301.348 74.9287 293.416 74.5386C285.613 74.1485 277.811 73.9534 270.008 73.9534V140.47C278.331 140.47 285.483 140.405 291.465 140.275C297.447 140.015 302.714 139.69 307.265 139.299C311.947 138.779 316.368 138.064 320.529 137.154C324.691 136.243 329.047 135.073 333.599 133.643L334.184 134.228L329.697 145.346H259.28Z" stroke="#ECECE0" stroke-width="2" mask="url(#path-1-outside-1_249_188)"/>
<path d="M414.71 148.467C400.535 148.467 388.051 145.476 377.258 139.494C366.464 133.513 358.011 125.19 351.899 114.526C345.917 103.863 342.926 91.6391 342.926 77.8547C342.926 67.1912 344.747 57.2431 348.388 48.0101C352.029 38.6471 357.101 30.4545 363.603 23.4322C370.105 16.4099 377.648 10.9482 386.23 7.04693C394.813 3.01564 404.046 1 413.929 1C428.104 1 440.523 4.05598 451.186 10.1679C461.98 16.2799 470.432 24.7326 476.544 35.5261C482.656 46.3195 485.712 58.7385 485.712 72.783C485.712 83.3164 483.892 93.1346 480.251 102.238C476.609 111.34 471.538 119.403 465.036 126.425C458.534 133.317 450.991 138.714 442.408 142.615C433.826 146.517 424.593 148.467 414.71 148.467ZM417.44 141.64C428.884 141.64 438.897 138.909 447.48 133.448C456.193 127.986 462.955 120.378 467.767 110.625C472.708 100.742 475.179 89.3634 475.179 76.4892C475.179 66.8661 473.488 57.9583 470.107 49.7657C466.856 41.443 462.305 34.1606 456.453 27.9186C450.731 21.5466 443.969 16.605 436.166 13.0939C428.364 9.58275 419.976 7.82719 411.003 7.82719C400.21 7.82719 390.457 10.5581 381.744 16.0198C373.031 21.3515 366.074 28.959 360.872 38.8422C355.801 48.5953 353.265 60.169 353.265 73.5633C353.265 83.0563 354.89 91.9642 358.141 100.287C361.392 108.48 365.944 115.697 371.796 121.939C377.648 128.181 384.475 133.057 392.277 136.569C400.08 139.95 408.468 141.64 417.44 141.64Z" stroke="#ECECE0" stroke-width="2" mask="url(#path-1-outside-1_249_188)"/>
<path d="M604.195 145.346C602.764 144.696 600.423 143.071 597.172 140.47C593.921 137.739 590.215 134.358 586.054 130.327C578.901 136.569 571.359 141.315 563.427 144.566C555.494 147.687 547.691 148.988 540.019 148.467C530.006 147.817 521.943 145.281 515.831 140.86C509.719 136.438 505.558 130.977 503.347 124.475C501.136 117.843 500.876 110.95 502.567 103.798C504.257 96.6457 507.834 89.9486 513.295 83.7066C518.887 77.3345 526.365 72.1979 535.728 68.2966C532.737 63.225 530.331 58.3484 528.51 53.6669C526.82 48.9854 525.974 44.8241 525.974 41.1829C525.974 34.0306 527.6 27.5935 530.851 21.8717C534.102 16.0198 538.458 11.4033 543.92 8.02225C549.512 4.51112 555.689 2.75556 562.451 2.75556C568.693 2.75556 573.83 3.86092 577.861 6.07162C581.892 8.28233 585.274 10.363 588.004 12.3136L589.76 31.2347H588.98C585.469 23.3022 581.437 17.5803 576.886 14.0692C572.334 10.428 566.938 8.60744 560.696 8.60744C556.014 8.60744 551.723 9.90785 547.821 12.5087C544.05 14.9795 540.994 18.3606 538.654 22.652C536.443 26.9433 535.337 31.7549 535.337 37.0866C535.337 42.1582 536.898 48.0751 540.019 54.8373C543.27 61.4694 547.496 68.5567 552.698 76.0991C557.9 83.6415 563.622 91.1189 569.864 98.5313C576.236 105.944 582.543 112.771 588.785 119.013C594.246 112.641 598.863 105.358 602.634 97.1659C606.535 88.8432 609.136 80.0004 610.437 70.6374H611.217L615.118 86.2424C612.647 93.5247 609.461 100.287 605.56 106.529C601.789 112.771 597.627 118.363 593.076 123.304C598.408 128.506 603.349 132.992 607.901 136.764C612.452 140.535 616.158 143.136 619.019 144.566V145.346H604.195ZM511.93 108.284C511.93 114.917 513.425 120.768 516.416 125.84C519.407 130.782 523.504 134.683 528.705 137.544C533.907 140.275 539.759 141.64 546.261 141.64C552.373 141.64 558.485 140.275 564.597 137.544C570.709 134.683 576.431 130.847 581.762 126.035C576.821 120.964 571.554 115.372 565.962 109.26C560.501 103.018 555.234 96.5157 550.162 89.7535C545.091 82.9913 540.604 76.4242 536.703 70.0522C528.64 74.4736 522.463 80.1304 518.172 87.0226C514.011 93.7848 511.93 100.872 511.93 108.284Z" stroke="#ECECE0" stroke-width="2" mask="url(#path-1-outside-1_249_188)"/>
<path d="M702.945 148.467C688.51 148.467 675.831 145.541 664.908 139.69C653.984 133.708 645.467 125.385 639.355 114.722C633.373 103.928 630.382 91.314 630.382 76.8794C630.382 65.9558 632.137 55.8776 635.648 46.6446C639.16 37.4117 644.036 29.4141 650.278 22.652C656.52 15.7597 663.867 10.428 672.32 6.65681C680.903 2.8856 690.136 1 700.019 1C706.261 1 712.113 1.71523 717.575 3.14568C723.167 4.4461 728.108 6.0066 732.399 7.82719C736.821 9.64777 740.592 11.4033 743.713 13.0939C746.834 14.6544 749.11 15.6947 750.54 16.2149L751.321 35.136H750.54C748.46 30.1944 744.818 25.6429 739.617 21.4816C734.545 17.1902 728.498 13.7441 721.476 11.1433C714.454 8.41237 707.041 7.04693 699.239 7.04693C687.795 7.04693 677.587 9.77781 668.614 15.2396C659.771 20.7013 652.814 28.2437 647.742 37.8668C642.801 47.4899 640.33 58.5435 640.33 71.0275C640.33 80.5205 641.89 89.5584 645.011 98.1412C648.132 106.724 652.619 114.331 658.471 120.964C664.323 127.466 671.28 132.602 679.342 136.373C687.405 140.145 696.378 142.03 706.261 142.03C717.055 142.03 726.743 139.625 735.325 134.813C743.908 130.001 750.28 123.304 754.442 114.722H755.222L754.246 133.057C752.946 133.578 751.581 134.163 750.15 134.813C748.85 135.463 747.354 136.178 745.664 136.959C737.471 140.99 730.059 143.916 723.427 145.736C716.794 147.557 709.967 148.467 702.945 148.467Z" stroke="#ECECE0" stroke-width="2" mask="url(#path-1-outside-1_249_188)"/>
<path d="M838.361 148.467C824.187 148.467 811.703 145.476 800.909 139.494C790.116 133.513 781.663 125.19 775.551 114.526C769.569 103.863 766.578 91.6391 766.578 77.8547C766.578 67.1912 768.399 57.2431 772.04 48.0101C775.681 38.6471 780.753 30.4545 787.255 23.4322C793.757 16.4099 801.299 10.9482 809.882 7.04693C818.465 3.01564 827.698 1 837.581 1C851.755 1 864.174 4.05598 874.838 10.1679C885.631 16.2799 894.084 24.7326 900.196 35.5261C906.308 46.3195 909.364 58.7385 909.364 72.783C909.364 83.3164 907.543 93.1346 903.902 102.238C900.261 111.34 895.189 119.403 888.687 126.425C882.185 133.317 874.643 138.714 866.06 142.615C857.477 146.517 848.244 148.467 838.361 148.467ZM841.092 141.64C852.536 141.64 862.549 138.909 871.132 133.448C879.845 127.986 886.607 120.378 891.418 110.625C896.36 100.742 898.831 89.3634 898.831 76.4892C898.831 66.8661 897.14 57.9583 893.759 49.7657C890.508 41.443 885.956 34.1606 880.105 27.9186C874.383 21.5466 867.621 16.605 859.818 13.0939C852.016 9.58275 843.628 7.82719 834.655 7.82719C823.862 7.82719 814.108 10.5581 805.396 16.0198C796.683 21.3515 789.726 28.959 784.524 38.8422C779.452 48.5953 776.916 60.169 776.916 73.5633C776.916 83.0563 778.542 91.9642 781.793 100.287C785.044 108.48 789.596 115.697 795.447 121.939C801.299 128.181 808.126 133.057 815.929 136.569C823.731 139.95 832.119 141.64 841.092 141.64Z" stroke="#ECECE0" stroke-width="2" mask="url(#path-1-outside-1_249_188)"/>
<path d="M923.395 151.393L913.837 141.835V141.055L923.395 131.497H924.175L933.733 141.055V141.835L924.175 151.393H923.395Z" stroke="#ECECE0" stroke-width="2" mask="url(#path-1-outside-1_249_188)"/>
<path d="M58.338 259L58.164 258.652C59.295 253.954 59.382 250.387 59.382 244.297V204.103C59.382 201.145 57.468 198.1 53.727 196.273V195.925H61.992L90.789 249.691L119.151 195.925H126.285V196.273C121.761 198.274 121.674 200.71 121.674 206.887V246.907C121.674 252.562 121.848 254.911 122.457 258.652L122.283 259H116.802L116.628 258.652C117.324 254.911 117.498 252.562 117.498 246.907V205.234L90.18 257.173H89.832L62.34 205.669V244.297C62.34 250.387 62.34 254.128 63.384 258.826L63.21 259H58.338Z" stroke="#ECECE0" stroke-width="2" mask="url(#path-1-outside-1_249_188)"/>
<path d="M141.637 259V258.652C143.725 255.433 146.248 250.561 148.162 245.95L164.257 206.8C164.866 205.234 165.736 202.972 165.736 202.015C165.736 200.275 163.648 197.752 162.082 196.36V196.012H167.563L189.226 244.993C191.923 250.996 193.837 255.085 196.012 258.652V259H188.443C188.443 255.433 188.095 252.736 185.311 246.385L182.266 239.599H153.991L151.207 246.385C148.336 253.432 148.075 256.303 147.988 259H141.637ZM154.948 237.163H181.222L167.563 206.452L154.948 237.163Z" stroke="#ECECE0" stroke-width="2" mask="url(#path-1-outside-1_249_188)"/>
<path d="M214.007 259L213.833 258.652C214.442 254.911 214.616 252.562 214.616 246.907V208.105C214.616 202.45 214.442 200.101 213.833 196.36L214.007 196.012C219.14 196.012 224.447 195.664 229.58 195.664C240.977 195.664 250.46 200.188 250.46 211.237C250.46 221.677 241.847 229.42 230.972 230.638C233.669 233.683 235.496 235.075 238.193 235.597L246.371 245.602C251.243 251.779 256.637 256.999 258.986 258.565L258.812 259H255.854C251.852 259 250.46 257.782 248.459 255.259L235.148 238.903C228.797 230.899 224.795 230.638 219.749 230.638H218.792V246.907C218.792 252.562 218.966 254.911 219.575 258.652L219.401 259H214.007ZM227.144 228.289C238.889 228.289 245.762 222.46 245.762 212.716C245.762 203.407 239.237 198.187 227.231 198.187C224.534 198.187 219.923 198.535 218.792 198.883V227.767C221.663 228.115 224.534 228.289 227.144 228.289Z" stroke="#ECECE0" stroke-width="2" mask="url(#path-1-outside-1_249_188)"/>
<path d="M315.897 259L292.581 236.554C285.969 230.116 283.533 228.376 280.314 228.376V246.907C280.314 252.562 280.488 254.911 281.097 258.652L280.923 259H275.529L275.355 258.652C275.964 254.911 276.138 252.562 276.138 246.907V208.105C276.138 202.45 275.964 200.101 275.355 196.36L275.529 196.012H280.923L281.097 196.36C280.488 200.101 280.314 202.45 280.314 208.105V224.809L303.543 205.756C308.763 201.493 311.286 198.883 313.287 196.012H320.16V196.36C315.201 199.753 311.46 202.711 306.153 207.061L282.75 226.288C286.839 228.898 290.493 229.333 291.102 229.333L299.976 237.859C315.549 252.823 319.551 256.303 323.379 258.478L323.727 259H315.897Z" stroke="#ECECE0" stroke-width="2" mask="url(#path-1-outside-1_249_188)"/>
<path d="M340.279 259L340.105 258.652C340.714 254.911 340.888 252.562 340.888 246.907V208.105C340.888 202.45 340.714 200.101 340.105 196.36L340.279 196.012H372.208V196.36L369.598 200.623C362.116 198.883 356.374 198.274 345.064 198.274V224.983C352.981 224.983 362.29 224.548 366.988 224.113L367.249 224.374L365.335 228.289C359.245 227.506 352.024 227.158 345.064 227.158V256.825C359.941 256.825 365.248 256.303 373.426 253.78L373.687 254.041L371.686 259H340.279Z" stroke="#ECECE0" stroke-width="2" mask="url(#path-1-outside-1_249_188)"/>
<path d="M408.297 258.913L408.124 258.565C408.733 254.824 408.906 252.475 408.906 246.82V198.274C398.118 198.274 392.29 199.405 385.939 200.797L385.677 200.623L387.156 195.838C390.201 196.012 393.246 196.099 396.378 196.099H425.611C428.743 196.099 431.787 196.012 434.832 195.838L436.311 200.623L436.051 200.884C429.613 199.405 423.87 198.274 413.082 198.274V246.82C413.082 252.475 413.257 254.824 413.866 258.565L413.691 258.913H408.297Z" stroke="#ECECE0" stroke-width="2" mask="url(#path-1-outside-1_249_188)"/>
<path d="M454.912 259L454.738 258.652C455.347 254.911 455.521 252.562 455.521 246.907V208.105C455.521 202.45 455.347 200.101 454.738 196.36L454.912 196.012H460.306L460.48 196.36C459.871 200.101 459.697 202.45 459.697 208.105V246.907C459.697 252.562 459.871 254.911 460.48 258.652L460.306 259H454.912Z" stroke="#ECECE0" stroke-width="2" mask="url(#path-1-outside-1_249_188)"/>
<path d="M536.233 259.087L489.775 206.539V244.297C489.775 250.3 489.862 254.041 490.819 258.652V259H485.773L485.599 258.652C486.73 254.041 486.817 250.3 486.817 244.297V205.756C486.817 201.58 483.337 197.665 480.466 196.36V196.012H486.382L533.623 249.343V210.715C533.623 204.712 533.536 201.058 532.492 196.447V196.012H537.712V196.447C536.668 201.058 536.581 204.712 536.581 210.715V259.087H536.233Z" stroke="#ECECE0" stroke-width="2" mask="url(#path-1-outside-1_249_188)"/>
<path d="M594.167 259.087C573.287 259.087 559.106 246.646 559.106 228.202C559.106 208.888 572.591 194.62 590.687 194.62C602.606 194.62 611.741 200.536 614.612 201.493L614.96 210.106H614.612C611.48 203.494 601.388 197.317 590.339 197.317C575.114 197.317 563.717 209.323 563.717 225.331C563.717 242.731 576.419 256.216 596.168 256.216C600.17 256.216 607.913 255.346 611.828 254.302V230.29C611.828 224.635 611.654 222.286 611.045 218.545L611.219 218.197H616.526L616.7 218.545C616.091 222.286 615.917 224.635 615.917 230.29V250.126C615.917 254.215 616.613 255.52 618.962 255.955L618.875 256.303C613.568 256.39 604.955 259.087 594.167 259.087Z" stroke="#ECECE0" stroke-width="2" mask="url(#path-1-outside-1_249_188)"/>
<path d="M668.629 259L668.455 258.652C669.064 254.911 669.238 252.562 669.238 246.907V208.105C669.238 202.45 669.064 200.101 668.455 196.36L668.629 196.012H701.776V196.36L699.079 200.71C691.423 198.622 683.68 198.187 673.414 198.187V226.375C682.288 226.375 692.032 226.027 696.208 225.592L696.469 225.853L695.077 229.681C688.726 228.985 680.2 228.55 673.414 228.55V246.907C673.414 252.562 673.588 254.911 674.197 258.652L674.023 259H668.629Z" stroke="#ECECE0" stroke-width="2" mask="url(#path-1-outside-1_249_188)"/>
<path d="M720.381 259L720.207 258.652C720.816 254.911 720.99 252.562 720.99 246.907V208.105C720.99 202.45 720.816 200.101 720.207 196.36L720.381 196.012H725.775L725.949 196.36C725.34 200.101 725.166 202.45 725.166 208.105V246.907C725.166 252.562 725.34 254.911 725.949 258.652L725.775 259H720.381Z" stroke="#ECECE0" stroke-width="2" mask="url(#path-1-outside-1_249_188)"/>
<path d="M750.807 259L750.633 258.652C751.242 254.911 751.416 252.562 751.416 246.907V208.105C751.416 202.45 751.242 200.101 750.633 196.36L750.807 196.012C755.94 196.012 761.247 195.664 766.38 195.664C777.777 195.664 787.26 200.188 787.26 211.237C787.26 221.677 778.647 229.42 767.772 230.638C770.469 233.683 772.296 235.075 774.993 235.597L783.171 245.602C788.043 251.779 793.437 256.999 795.786 258.565L795.612 259H792.654C788.652 259 787.26 257.782 785.259 255.259L771.948 238.903C765.597 230.899 761.595 230.638 756.549 230.638H755.592V246.907C755.592 252.562 755.766 254.911 756.375 258.652L756.201 259H750.807ZM763.944 228.289C775.689 228.289 782.562 222.46 782.562 212.716C782.562 203.407 776.037 198.187 764.031 198.187C761.334 198.187 756.723 198.535 755.592 198.883V227.767C758.463 228.115 761.334 228.289 763.944 228.289Z" stroke="#ECECE0" stroke-width="2" mask="url(#path-1-outside-1_249_188)"/>
<path d="M812.329 259L812.155 258.652C813.286 253.954 813.373 250.387 813.373 244.297V204.103C813.373 201.145 811.459 198.1 807.718 196.273V195.925H815.983L844.78 249.691L873.142 195.925H880.276V196.273C875.752 198.274 875.665 200.71 875.665 206.887V246.907C875.665 252.562 875.839 254.911 876.448 258.652L876.274 259H870.793L870.619 258.652C871.315 254.911 871.489 252.562 871.489 246.907V205.234L844.171 257.173H843.823L816.331 205.669V244.297C816.331 250.387 816.331 254.128 817.375 258.826L817.201 259H812.329Z" stroke="#ECECE0" stroke-width="2" mask="url(#path-1-outside-1_249_188)"/>
</svg>
