<svg width="327" height="270" viewBox="0 0 327 270" fill="none" xmlns="http://www.w3.org/2000/svg">
<path d="M181.575 230.352C174.438 236.461 164.458 236.37 156.807 231.108C147.69 224.833 143.502 213.765 145.543 202.712C147.07 194.426 150.517 186.397 156.414 180.017L194.291 138.95C197.043 135.971 202.41 128.26 204.663 124.57C209.638 116.435 215.248 103.084 207.914 94.9343C201.564 87.8882 194.004 96.4312 194.608 91.3356C200.369 87.4195 210.076 90.3226 214.008 95.2367C217.304 99.3646 218.997 103.825 219.118 109.117C219.239 113.85 218.74 118.356 216.971 122.846C214.446 129.257 210.878 135.094 206.417 140.462C201.08 146.888 195.379 153.087 189.241 158.878L171.792 175.314C170.355 176.675 168.919 177.975 167.528 179.487C171.595 178.384 174.922 177.265 179.125 177.083C187.925 176.705 196.755 179.759 203.499 185.399C213.736 193.957 219.088 205.948 218.71 219.224C217.909 247.453 192.34 271.389 163.959 269.937C153.798 269.423 145.074 265.764 137.317 259.61C115.514 242.267 117.449 214.854 129.016 192.052C137.484 175.359 135.639 166.469 123.86 152.15C115.589 142.095 110.887 130.074 111.341 116.934C111.779 104.324 117.827 91.4868 127.232 82.959C140.81 70.651 159.665 72.662 171.096 86.6937C184.674 103.371 177.719 133.627 158.97 140.084C149.746 143.259 140.205 136.621 137.106 128.335C135.17 123.164 134.414 118.008 135.82 112.519C135.956 112.005 136.667 111.264 137.121 111.249C137.831 111.234 138.361 112.262 138.209 113.048C136.788 120.866 139.374 128.653 145.225 133.778C148.703 136.833 153.209 137.468 157.503 135.215C163.763 131.934 167.785 125.356 168.692 118.189C170.37 105.05 165.517 91.4264 154.706 83.715C147.251 78.4077 137.816 78.9521 131.148 84.7734C114.017 99.7274 118.387 126.46 129.455 144.015C135.79 154.055 140.644 162.522 138.784 174.709C137.847 180.788 135.987 186.428 133.673 192.204C126.053 211.21 129.258 232.469 142.337 248.103C147.599 254.394 153.617 259.55 161.359 262.317C171.459 265.93 181.953 264.403 190.511 258.007C196.574 253.471 201.972 247.332 204.648 239.908C209.048 227.767 208.368 214.612 203.514 202.576C198.933 191.221 188.485 181.166 175.617 181.997C167.603 182.511 161.268 186.065 156.188 192.067C147.327 202.561 148.703 218.392 159.272 227.237C167.482 234.102 176.978 232.106 183.827 224.334C184.251 224.425 185.264 224.984 185.461 225.453C185.657 225.922 185.052 227.328 184.674 227.646L181.575 230.307V230.352Z" fill="#171717"/>
<path d="M259.097 187.668C273.431 198.752 299.347 205.072 309.825 186.323C312.26 181.968 313.515 177.492 314.256 172.593C317.189 153.179 313.53 134.762 306.968 116.376C297.729 90.5201 283.728 65.8437 266.203 44.6601C253.699 29.5397 234.269 9.71693 214.461 5.7554C208.595 4.57601 202.864 4.57601 197.663 7.01039C186.534 12.1967 185.718 24.807 189.256 35.0284C194.155 49.1962 204.149 60.9296 216.956 68.6561C220.041 70.5159 223.14 71.4836 226.482 72.3606C234.148 74.3413 244.294 72.3303 247.59 64.2561C249.934 58.5103 248.905 51.9027 245.519 46.8374C243.266 43.4504 240.166 40.4112 237.172 37.992C236.446 37.4023 237.384 31.7019 246.411 43.2085C250.599 48.546 252.444 54.4429 251.824 61.3227C250.886 71.6801 240.453 79.0135 230.171 79.3613C219.89 79.7091 210.454 75.5812 202.32 69.2609C194.185 62.9406 188.061 54.322 184.402 44.4333C182.436 39.126 181.877 33.7583 181.771 28.0428C181.575 18.3355 185.4 9.15748 193.716 3.78975C199.417 0.115505 206.1 -0.443948 212.692 0.266709C225.59 1.65778 237.081 6.9499 248.013 14.1472C263.754 24.5046 279.313 41.0463 289.972 56.6505L292.891 60.9296C305.955 80.0417 315.662 101.271 322.148 123.619C327.864 143.29 328.832 166.833 318.187 184.72C310.052 198.389 295.31 206.312 279.418 204.906C269.515 204.029 260.624 200.944 252.398 195.455C234.798 183.722 221.205 162.281 223.11 140.538C223.836 132.283 226.618 124.783 232.848 119.521C237.762 115.378 243.19 113.352 249.707 113.624C269.303 114.471 284.983 135.851 285.164 154.328C284.695 154.827 283.214 154.978 282.563 154.646C281.324 140.13 270.346 121.23 255.317 118.115C250.69 117.162 246.335 117.223 242.011 119.234C231.759 124.027 231.124 138.361 233.437 148.265C237.097 163.99 246.138 177.644 259.112 187.668H259.097Z" fill="#171717"/>
<path d="M18.1992 188.908C29.9174 204.648 53.7471 197.859 66.8867 187.895C79.739 178.127 88.9322 164.489 92.7576 148.839C95.2222 138.769 94.7081 123.906 84.139 119.158C79.9053 117.253 75.7019 117.147 71.1506 118.069C56.0605 121.093 44.9319 140.115 43.7677 154.66C43.3141 155.023 41.5147 154.812 41.1065 154.237C41.3031 143.819 46.1718 133.341 53.112 125.644C63.8173 113.775 80.873 108.453 93.8765 119.838C99.8491 125.07 102.465 132.313 103.191 140.311C105.171 162.16 91.6085 183.616 73.963 195.395C65.6166 200.974 56.6351 204.043 46.5649 204.905C37.659 205.661 28.738 203.348 21.2535 198.449C7.43346 189.422 0.795628 172.88 0.100092 157.034C-0.82225 136.456 4.72692 118.372 12.7407 99.6374C21.2232 79.7995 31.8075 61.2166 45.567 44.5086C55.1987 32.8055 65.798 22.3573 78.3933 14.0865C89.0531 7.05551 100.923 1.5517 113.488 0.281591C119.4 -0.323223 125.342 -0.126658 130.861 2.80669C140.024 7.67544 144.923 17.5188 144.454 27.8914C145.482 51.9478 124.767 76.4428 101.028 79.2098C92.1225 80.2531 83.5342 77.3047 77.9245 70.1376C72.3149 62.9706 73.706 51.3128 79.5122 43.6921C80.4043 42.5279 88.5239 32.5635 89.3102 36.9636C89.4009 37.4323 88.9926 38.1581 88.4786 38.5512C80.5857 44.7959 74.5527 54.4578 78.7562 64.3616C82.1582 72.4057 92.3342 74.3864 99.9549 72.2998C101.981 71.7404 104.128 71.3321 106.154 70.3191C119.4 63.6359 129.606 52.4317 135.639 38.8385C140.477 27.9216 141.233 12.2115 128.079 6.7531C114.924 1.29465 97.9288 9.68645 87.0421 18.0329C77.0022 25.7443 68.4592 34.5443 60.3698 44.2969C42.5732 65.7376 28.2693 90.9584 19.0005 117.268C13.6479 132.479 10.3063 147.856 11.0926 163.929C11.5008 172.336 13.149 182.149 18.184 188.893L18.1992 188.908Z" fill="#171717"/>
</svg>
