<svg width="394" height="541" viewBox="0 0 394 541" fill="none" xmlns="http://www.w3.org/2000/svg">
<path d="M212.607 269.23C206.078 274.818 196.948 274.735 189.949 269.921C181.608 264.181 177.777 254.056 179.644 243.944C181.041 236.364 184.195 229.019 189.59 223.182L224.24 185.614C226.757 182.889 231.667 175.834 233.728 172.459C238.279 165.017 243.411 152.804 236.702 145.348C230.893 138.902 223.977 146.717 224.53 142.056C229.8 138.473 238.68 141.129 242.277 145.625C245.292 149.401 246.841 153.481 246.952 158.323C247.063 162.652 246.606 166.774 244.988 170.882C242.678 176.747 239.414 182.087 235.333 186.997C230.45 192.876 225.235 198.547 219.62 203.845L203.657 218.88C202.343 220.125 201.029 221.315 199.756 222.698C203.477 221.688 206.52 220.665 210.366 220.499C218.416 220.153 226.494 222.947 232.663 228.106C242.028 235.936 246.924 246.905 246.579 259.049C245.846 284.874 222.455 306.771 196.492 305.443C187.197 304.972 179.215 301.625 172.119 295.995C152.173 280.13 153.944 255.052 164.526 234.193C172.272 218.922 170.584 210.788 159.809 197.689C152.242 188.491 147.941 177.494 148.356 165.474C148.757 153.938 154.29 142.194 162.893 134.393C175.315 123.133 192.564 124.973 203.021 137.809C215.442 153.066 209.079 180.745 191.927 186.651C183.49 189.556 174.761 183.484 171.926 175.903C170.155 171.173 169.464 166.456 170.75 161.435C170.875 160.965 171.525 160.287 171.94 160.273C172.59 160.259 173.074 161.2 172.936 161.919C171.635 169.07 174.001 176.194 179.354 180.883C182.535 183.677 186.657 184.258 190.586 182.197C196.312 179.196 199.992 173.179 200.821 166.622C202.357 154.602 197.917 142.139 188.027 135.084C181.207 130.229 172.576 130.727 166.476 136.053C150.804 149.733 154.801 174.188 164.927 190.248C170.722 199.432 175.163 207.178 173.461 218.327C172.604 223.888 170.902 229.047 168.786 234.331C161.814 251.718 164.747 271.166 176.712 285.469C181.525 291.223 187.031 295.94 194.113 298.471C203.353 301.777 212.952 300.38 220.781 294.529C226.328 290.379 231.266 284.763 233.715 277.972C237.74 266.865 237.117 254.83 232.677 243.82C228.486 233.432 218.928 224.233 207.157 224.994C199.826 225.465 194.03 228.715 189.382 234.207C181.276 243.806 182.535 258.288 192.204 266.38C199.715 272.66 208.402 270.834 214.668 263.725C215.055 263.808 215.982 264.319 216.161 264.748C216.341 265.177 215.788 266.463 215.442 266.754L212.607 269.188V269.23Z" fill="#171717"/>
<path d="M283.525 230.181C296.638 240.32 320.346 246.102 329.932 228.95C332.159 224.966 333.307 220.872 333.985 216.39C336.668 198.63 333.321 181.782 327.318 164.962C318.866 141.309 306.057 118.735 290.026 99.3556C278.586 85.5233 260.812 67.3892 242.692 63.7651C237.325 62.6862 232.082 62.6862 227.324 64.9132C217.144 69.6577 216.397 81.1938 219.633 90.5444C224.115 103.505 233.258 114.239 244.974 121.307C247.796 123.009 250.631 123.894 253.688 124.696C260.701 126.508 269.983 124.669 272.998 117.282C275.142 112.026 274.202 105.981 271.103 101.347C269.042 98.249 266.207 95.4687 263.468 93.2555C262.804 92.7161 263.661 87.5013 271.919 98.0277C275.751 102.91 277.438 108.305 276.871 114.599C276.014 124.074 266.469 130.782 257.063 131.101C247.658 131.419 239.026 127.643 231.584 121.861C224.143 116.079 218.541 108.194 215.193 99.1481C213.395 94.2929 212.883 89.3825 212.786 84.1539C212.607 75.2736 216.106 66.8774 223.714 61.9669C228.929 58.6057 235.042 58.0939 241.073 58.744C252.872 60.0166 263.385 64.8579 273.386 71.442C287.785 80.9171 302.018 96.0496 311.77 110.325L314.44 114.239C326.391 131.723 335.271 151.144 341.205 171.588C346.434 189.583 347.319 211.12 337.581 227.484C330.139 239.988 316.653 247.236 302.115 245.95C293.055 245.148 284.922 242.326 277.397 237.305C261.296 226.571 248.861 206.957 250.604 187.066C251.268 179.514 253.813 172.653 259.512 167.839C264.007 164.049 268.973 162.196 274.935 162.445C292.861 163.219 307.205 182.778 307.371 199.681C306.943 200.138 305.587 200.276 304.992 199.972C303.858 186.693 293.816 169.402 280.067 166.553C275.834 165.681 271.85 165.737 267.894 167.576C258.516 171.961 257.935 185.074 260.051 194.134C263.399 208.52 271.67 221.01 283.538 230.181H283.525Z" fill="#171717"/>
<path d="M63.1488 231.315C73.8688 245.714 95.6685 239.504 107.689 230.388C119.446 221.453 127.856 208.976 131.356 194.66C133.61 185.447 133.14 171.85 123.471 167.507C119.598 165.764 115.753 165.667 111.589 166.511C97.7848 169.277 87.6043 186.678 86.5392 199.985C86.1242 200.317 84.4782 200.123 84.1047 199.598C84.2845 190.067 88.7385 180.481 95.0875 173.441C104.881 162.582 120.484 157.713 132.379 168.129C137.843 172.915 140.236 179.541 140.9 186.858C142.712 206.846 130.304 226.474 114.162 237.249C106.527 242.353 98.3104 245.161 89.0981 245.95C80.9509 246.641 72.7899 244.525 65.9429 240.043C53.3002 231.785 47.2278 216.653 46.5916 202.157C45.7478 183.331 50.8242 166.787 58.1553 149.649C65.9153 131.501 75.5978 114.501 88.1852 99.2168C96.9964 88.5106 106.693 78.9525 118.215 71.3863C127.967 64.9542 138.825 59.9193 150.32 58.7574C155.728 58.2041 161.164 58.3839 166.213 61.0674C174.595 65.5214 179.077 74.5262 178.648 84.0151C179.589 106.022 160.639 128.431 138.922 130.962C130.775 131.916 122.918 129.219 117.786 122.662C112.655 116.106 113.927 105.441 119.239 98.4698C120.055 97.4048 127.483 88.2893 128.202 92.3145C128.285 92.7433 127.912 93.4072 127.441 93.7669C120.221 99.4796 114.702 108.318 118.547 117.379C121.659 124.737 130.968 126.549 137.94 124.641C139.793 124.129 141.758 123.755 143.611 122.828C155.728 116.715 165.065 106.465 170.584 94.0297C175.01 84.0428 175.702 69.6711 163.668 64.6776C151.634 59.6841 136.086 67.3611 126.127 74.9965C116.943 82.0509 109.127 90.1013 101.727 99.0231C85.4464 118.637 72.3611 141.71 63.8819 165.778C58.9853 179.693 55.9284 193.76 56.6476 208.464C57.0211 216.155 58.5288 225.132 63.135 231.301L63.1488 231.315Z" fill="#171717"/>
<path d="M124.051 390.833C117.885 390.833 112.468 389.583 107.801 387.083C103.134 384.528 99.495 380.972 96.8838 376.416C94.3281 371.805 93.0503 366.416 93.0503 360.249C93.0503 355.582 93.8003 351.276 95.3004 347.332C96.8004 343.387 98.8839 339.97 101.551 337.081C104.217 334.137 107.356 331.859 110.968 330.248C114.634 328.637 118.579 327.831 122.801 327.831C125.468 327.831 127.968 328.137 130.302 328.748C132.691 329.303 134.802 329.97 136.635 330.748C138.524 331.526 140.135 332.276 141.469 332.998C142.802 333.665 143.774 334.109 144.386 334.331L144.719 342.415H144.386C143.497 340.304 141.941 338.359 139.719 336.581C137.552 334.748 134.969 333.276 131.968 332.164C128.968 330.998 125.802 330.414 122.468 330.414C117.579 330.414 113.218 331.581 109.384 333.915C105.606 336.248 102.634 339.47 100.467 343.582C98.3561 347.693 97.3005 352.415 97.3005 357.749C97.3005 361.805 97.9671 365.666 99.3005 369.333C100.634 372.999 102.551 376.25 105.051 379.083C107.551 381.861 110.523 384.055 113.968 385.667C117.412 387.278 121.246 388.083 125.468 388.083C130.079 388.083 134.219 387.055 137.885 385C141.552 382.944 144.274 380.083 146.052 376.416H146.386L145.969 384.25C145.413 384.472 144.83 384.722 144.219 385C143.663 385.278 143.024 385.583 142.302 385.917C138.802 387.639 135.635 388.889 132.802 389.667C129.968 390.444 127.052 390.833 124.051 390.833Z" fill="#171717"/>
<path d="M155.297 389.5L155.131 389.167C155.353 387.944 155.492 386.833 155.547 385.833C155.659 384.833 155.742 383.722 155.797 382.5C155.853 381.222 155.881 379.694 155.881 377.916V340.748C155.881 338.915 155.853 337.387 155.797 336.165C155.742 334.942 155.659 333.831 155.547 332.831C155.492 331.776 155.353 330.664 155.131 329.498L155.297 329.164C157.742 329.164 160.214 329.109 162.714 328.998C165.27 328.887 167.77 328.831 170.215 328.831C173.881 328.831 177.215 329.359 180.215 330.414C183.271 331.414 185.688 332.998 187.465 335.165C189.299 337.331 190.215 340.193 190.215 343.748C190.215 347.082 189.382 350.082 187.715 352.749C186.049 355.415 183.799 357.582 180.965 359.249C178.187 360.916 175.048 361.943 171.548 362.332C172.826 363.777 173.965 364.86 174.965 365.582C176.02 366.305 177.187 366.805 178.465 367.082L186.299 376.666C188.632 379.611 190.938 382.222 193.216 384.5C195.549 386.778 197.271 388.306 198.382 389.083L198.216 389.5H195.382C193.493 389.5 192.077 389.222 191.132 388.667C190.188 388.055 189.243 387.139 188.299 385.917L175.548 370.249C173.548 367.694 171.715 365.86 170.048 364.749C168.437 363.638 166.881 362.971 165.381 362.749C163.937 362.471 162.409 362.332 160.798 362.332H159.881V377.916C159.881 379.694 159.909 381.222 159.964 382.5C160.02 383.722 160.103 384.833 160.214 385.833C160.325 386.833 160.464 387.944 160.631 389.167L160.464 389.5H155.297ZM167.881 360.082C173.493 360.082 177.854 358.777 180.965 356.165C184.132 353.499 185.715 349.832 185.715 345.165C185.715 340.72 184.187 337.304 181.132 334.915C178.132 332.47 173.743 331.248 167.965 331.248C167.131 331.248 166.131 331.276 164.964 331.331C163.853 331.387 162.826 331.47 161.881 331.581C160.937 331.692 160.27 331.803 159.881 331.914V359.582C162.659 359.916 165.326 360.082 167.881 360.082Z" fill="#171717"/>
<path d="M203.395 389.5L203.228 389.167C203.451 387.944 203.589 386.833 203.645 385.833C203.756 384.833 203.839 383.722 203.895 382.5C203.951 381.222 203.978 379.694 203.978 377.916V340.748C203.978 338.915 203.951 337.387 203.895 336.165C203.839 334.942 203.756 333.831 203.645 332.831C203.589 331.776 203.451 330.664 203.228 329.498L203.395 329.164H233.979V329.498L231.479 333.581C229.09 333.026 226.785 332.581 224.562 332.248C222.34 331.914 219.923 331.692 217.312 331.581C214.701 331.414 211.59 331.331 207.978 331.331V356.915C210.534 356.915 213.118 356.888 215.729 356.832C218.396 356.721 220.896 356.61 223.229 356.499C225.562 356.332 227.479 356.193 228.979 356.082L229.229 356.332L227.396 360.082C224.507 359.693 221.368 359.416 217.979 359.249C214.645 359.082 211.312 358.999 207.978 358.999V387.417C211.534 387.417 214.59 387.389 217.145 387.333C219.701 387.222 221.951 387.083 223.896 386.917C225.896 386.694 227.785 386.389 229.563 386C231.34 385.611 233.202 385.111 235.146 384.5L235.396 384.75L233.479 389.5H203.395Z" fill="#171717"/>
<path d="M269.799 390.833C263.743 390.833 258.41 389.556 253.799 387C249.187 384.444 245.576 380.889 242.965 376.333C240.409 371.777 239.131 366.555 239.131 360.666C239.131 356.11 239.909 351.86 241.465 347.915C243.02 343.915 245.187 340.415 247.965 337.415C250.743 334.415 253.965 332.081 257.632 330.414C261.299 328.692 265.243 327.831 269.466 327.831C275.522 327.831 280.827 329.137 285.383 331.748C289.994 334.359 293.606 337.97 296.217 342.582C298.828 347.193 300.134 352.499 300.134 358.499C300.134 362.999 299.356 367.194 297.8 371.083C296.245 374.972 294.078 378.416 291.3 381.416C288.522 384.361 285.3 386.667 281.633 388.333C277.966 390 274.022 390.833 269.799 390.833ZM270.966 387.917C275.855 387.917 280.133 386.75 283.8 384.416C287.522 382.083 290.411 378.833 292.467 374.666C294.578 370.444 295.633 365.582 295.633 360.082C295.633 355.971 294.911 352.165 293.467 348.665C292.078 345.109 290.133 341.998 287.633 339.331C285.189 336.609 282.3 334.498 278.966 332.998C275.633 331.498 272.049 330.748 268.216 330.748C263.605 330.748 259.438 331.914 255.715 334.248C251.993 336.526 249.021 339.776 246.798 343.998C244.632 348.165 243.548 353.11 243.548 358.832C243.548 362.888 244.243 366.694 245.632 370.249C247.021 373.749 248.965 376.833 251.465 379.5C253.965 382.166 256.882 384.25 260.215 385.75C263.549 387.194 267.132 387.917 270.966 387.917Z" fill="#171717"/>
<path d="M147.864 471.5C147.253 471.222 146.253 470.528 144.864 469.417C143.475 468.25 141.892 466.805 140.114 465.083C137.058 467.75 133.836 469.778 130.447 471.167C127.058 472.5 123.724 473.056 120.447 472.833C116.169 472.556 112.724 471.472 110.113 469.583C107.502 467.694 105.724 465.361 104.779 462.583C103.835 459.75 103.724 456.805 104.446 453.749C105.168 450.694 106.696 447.832 109.029 445.166C111.418 442.443 114.613 440.249 118.613 438.582C117.335 436.415 116.307 434.332 115.53 432.332C114.807 430.332 114.446 428.554 114.446 426.998C114.446 423.943 115.141 421.193 116.53 418.748C117.919 416.248 119.78 414.276 122.113 412.831C124.502 411.331 127.141 410.581 130.03 410.581C132.697 410.581 134.892 411.053 136.614 411.998C138.336 412.942 139.781 413.831 140.947 414.665L141.697 422.748H141.364C139.864 419.359 138.142 416.915 136.197 415.415C134.253 413.859 131.947 413.081 129.28 413.081C127.28 413.081 125.447 413.637 123.78 414.748C122.169 415.803 120.863 417.248 119.863 419.081C118.919 420.915 118.446 422.97 118.446 425.248C118.446 427.415 119.113 429.943 120.447 432.832C121.835 435.665 123.641 438.693 125.863 441.916C128.086 445.138 130.53 448.332 133.197 451.499C135.919 454.666 138.614 457.583 141.281 460.25C143.614 457.527 145.586 454.416 147.198 450.916C148.864 447.36 149.975 443.582 150.531 439.582H150.864L152.531 446.249C151.475 449.36 150.114 452.249 148.448 454.916C146.836 457.583 145.059 459.972 143.114 462.083C145.392 464.305 147.503 466.222 149.448 467.833C151.392 469.444 152.976 470.556 154.198 471.167V471.5H147.864ZM108.446 455.666C108.446 458.5 109.085 461 110.363 463.166C111.641 465.278 113.391 466.944 115.613 468.167C117.835 469.333 120.335 469.917 123.113 469.917C125.725 469.917 128.336 469.333 130.947 468.167C133.558 466.944 136.003 465.305 138.281 463.25C136.169 461.083 133.919 458.694 131.53 456.083C129.197 453.416 126.947 450.638 124.78 447.749C122.613 444.86 120.697 442.054 119.03 439.332C115.585 441.221 112.946 443.638 111.113 446.582C109.335 449.471 108.446 452.499 108.446 455.666Z" fill="#171717"/>
<path d="M190.053 472.833C183.886 472.833 178.47 471.583 173.803 469.083C169.136 466.528 165.497 462.972 162.886 458.416C160.33 453.805 159.052 448.416 159.052 442.249C159.052 437.582 159.802 433.276 161.302 429.332C162.802 425.387 164.886 421.97 167.552 419.081C170.219 416.137 173.358 413.859 176.969 412.248C180.636 410.637 184.581 409.831 188.803 409.831C191.47 409.831 193.97 410.137 196.304 410.748C198.693 411.303 200.804 411.97 202.637 412.748C204.526 413.526 206.137 414.276 207.471 414.998C208.804 415.665 209.776 416.109 210.387 416.331L210.721 424.415H210.387C209.499 422.304 207.943 420.359 205.721 418.581C203.554 416.748 200.97 415.276 197.97 414.164C194.97 412.998 191.803 412.414 188.47 412.414C183.581 412.414 179.22 413.581 175.386 415.915C171.608 418.248 168.636 421.47 166.469 425.582C164.358 429.693 163.302 434.415 163.302 439.749C163.302 443.805 163.969 447.666 165.302 451.333C166.636 454.999 168.553 458.25 171.053 461.083C173.553 463.861 176.525 466.055 179.97 467.667C183.414 469.278 187.248 470.083 191.47 470.083C196.081 470.083 200.22 469.055 203.887 467C207.554 464.944 210.276 462.083 212.054 458.416H212.388L211.971 466.25C211.415 466.472 210.832 466.722 210.221 467C209.665 467.278 209.026 467.583 208.304 467.917C204.804 469.639 201.637 470.889 198.804 471.667C195.97 472.444 193.053 472.833 190.053 472.833Z" fill="#171717"/>
<path d="M247.907 472.833C241.851 472.833 236.518 471.556 231.906 469C227.295 466.444 223.684 462.889 221.073 458.333C218.517 453.777 217.239 448.555 217.239 442.666C217.239 438.11 218.017 433.86 219.573 429.915C221.128 425.915 223.295 422.415 226.073 419.415C228.851 416.415 232.073 414.081 235.74 412.414C239.407 410.692 243.351 409.831 247.574 409.831C253.63 409.831 258.935 411.137 263.491 413.748C268.102 416.359 271.714 419.97 274.325 424.582C276.936 429.193 278.242 434.499 278.242 440.499C278.242 444.999 277.464 449.194 275.908 453.083C274.353 456.972 272.186 460.416 269.408 463.416C266.63 466.361 263.408 468.667 259.741 470.333C256.074 472 252.129 472.833 247.907 472.833ZM249.074 469.917C253.963 469.917 258.241 468.75 261.908 466.416C265.63 464.083 268.519 460.833 270.575 456.666C272.686 452.444 273.741 447.582 273.741 442.082C273.741 437.971 273.019 434.165 271.575 430.665C270.186 427.109 268.241 423.998 265.741 421.331C263.297 418.609 260.408 416.498 257.074 414.998C253.741 413.498 250.157 412.748 246.324 412.748C241.712 412.748 237.546 413.914 233.823 416.248C230.101 418.526 227.129 421.776 224.906 425.998C222.739 430.165 221.656 435.11 221.656 440.832C221.656 444.888 222.351 448.694 223.74 452.249C225.128 455.749 227.073 458.833 229.573 461.5C232.073 464.166 234.99 466.25 238.323 467.75C241.657 469.194 245.24 469.917 249.074 469.917Z" fill="#171717"/>
<path d="M284.236 474.083L280.152 470V469.667L284.236 465.583H284.569L288.653 469.667V470L284.569 474.083H284.236Z" fill="#171717"/>
<path d="M390.5 270.5C390.5 417.96 303.867 537.5 197 537.5C90.1329 537.5 3.5 417.96 3.5 270.5C3.5 123.04 90.1329 3.5 197 3.5C303.867 3.5 390.5 123.04 390.5 270.5Z" stroke="#171717" stroke-width="7"/>
</svg>
