<svg width="674" height="538" viewBox="0 0 674 538" fill="none" xmlns="http://www.w3.org/2000/svg">
<mask id="path-1-outside-1_249_190" maskUnits="userSpaceOnUse" x="-0.279297" y="-0.279785" width="674" height="538" fill="black">
<rect fill="white" x="-0.279297" y="-0.279785" width="674" height="538"/>
<path d="M52.9866 456.938C42.5896 456.938 33.4571 454.83 25.5891 450.615C17.7212 446.307 11.586 440.312 7.18369 432.632C2.87503 424.857 0.720703 415.772 0.720703 405.375C0.720703 397.507 1.9852 390.247 4.51419 383.597C7.04319 376.947 10.5557 371.186 15.0517 366.316C19.5477 361.351 24.8398 357.511 30.9281 354.795C37.1101 352.078 43.7604 350.72 50.8791 350.72C55.3751 350.72 59.5901 351.235 63.524 352.266C67.5517 353.202 71.111 354.326 74.202 355.638C77.3867 356.949 80.103 358.214 82.351 359.431C84.599 360.555 86.2382 361.305 87.2685 361.679L87.8305 375.308H87.2685C85.7698 371.748 83.1472 368.47 79.4005 365.473C75.7475 362.382 71.392 359.9 66.334 358.026C61.2761 356.059 55.9371 355.076 50.3171 355.076C42.0744 355.076 34.7216 357.043 28.2586 360.977C21.8893 364.911 16.8782 370.343 13.2252 377.275C9.66585 384.206 7.88619 392.168 7.88619 401.16C7.88619 407.997 9.01018 414.507 11.2582 420.689C13.5062 426.871 16.7377 432.351 20.9527 437.128C25.1676 441.811 30.1788 445.511 35.9861 448.227C41.7934 450.943 48.2564 452.301 55.3751 452.301C63.1494 452.301 70.1275 450.569 76.3095 447.103C82.4915 443.637 87.0811 438.814 90.0785 432.632H90.6405L89.938 445.839C89.0013 446.213 88.0178 446.635 86.9875 447.103C86.0508 447.571 84.9737 448.086 83.756 448.648C77.855 451.552 72.516 453.66 67.739 454.971C62.962 456.282 58.0446 456.938 52.9866 456.938Z"/>
<path d="M105.665 454.69L105.384 454.128C105.759 452.067 105.993 450.194 106.087 448.508C106.274 446.822 106.414 444.949 106.508 442.888C106.602 440.734 106.649 438.158 106.649 435.161V372.498C106.649 369.407 106.602 366.831 106.508 364.77C106.414 362.71 106.274 360.836 106.087 359.15C105.993 357.371 105.759 355.497 105.384 353.53L105.665 352.968C109.786 352.968 113.955 352.875 118.17 352.687C122.478 352.5 126.693 352.406 130.815 352.406C136.997 352.406 142.617 353.296 147.675 355.076C152.826 356.762 156.901 359.431 159.898 363.084C162.989 366.737 164.535 371.561 164.535 377.556C164.535 383.176 163.13 388.234 160.32 392.73C157.51 397.226 153.716 400.879 148.939 403.689C144.256 406.499 138.964 408.231 133.063 408.887C135.217 411.322 137.137 413.149 138.823 414.367C140.603 415.584 142.57 416.427 144.724 416.896L157.931 433.053C161.865 438.017 165.752 442.42 169.592 446.26C173.526 450.1 176.43 452.676 178.303 453.987L178.022 454.69H173.245C170.061 454.69 167.672 454.222 166.08 453.285C164.488 452.255 162.895 450.709 161.303 448.648L139.807 422.235C136.435 417.926 133.344 414.835 130.534 412.962C127.817 411.088 125.195 409.964 122.666 409.59C120.23 409.121 117.654 408.887 114.938 408.887H113.393V435.161C113.393 438.158 113.439 440.734 113.533 442.888C113.627 444.949 113.767 446.822 113.955 448.508C114.142 450.194 114.376 452.067 114.657 454.128L114.376 454.69H105.665ZM126.881 405.094C136.341 405.094 143.694 402.892 148.939 398.49C154.278 393.994 156.948 387.812 156.948 379.944C156.948 372.451 154.372 366.69 149.22 362.663C144.162 358.541 136.762 356.481 127.021 356.481C125.616 356.481 123.93 356.528 121.963 356.621C120.09 356.715 118.357 356.855 116.765 357.043C115.172 357.23 114.048 357.417 113.393 357.605V404.251C118.076 404.813 122.572 405.094 126.881 405.094Z"/>
<path d="M186.754 454.69L186.473 454.128C186.848 452.067 187.082 450.194 187.176 448.508C187.363 446.822 187.504 444.949 187.597 442.888C187.691 440.734 187.738 438.158 187.738 435.161V372.498C187.738 369.407 187.691 366.831 187.597 364.77C187.504 362.71 187.363 360.836 187.176 359.15C187.082 357.371 186.848 355.497 186.473 353.53L186.754 352.968H238.318V353.53L234.103 360.415C230.075 359.478 226.188 358.729 222.441 358.167C218.695 357.605 214.62 357.23 210.218 357.043C205.815 356.762 200.57 356.621 194.482 356.621V399.755C198.79 399.755 203.146 399.708 207.548 399.614C212.044 399.427 216.259 399.239 220.193 399.052C224.127 398.771 227.359 398.537 229.888 398.35L230.309 398.771L227.218 405.094C222.348 404.438 217.055 403.97 211.342 403.689C205.722 403.408 200.102 403.267 194.482 403.267V451.177C200.476 451.177 205.628 451.131 209.937 451.037C214.245 450.85 218.039 450.615 221.317 450.334C224.689 449.96 227.874 449.445 230.871 448.789C233.869 448.133 237.006 447.29 240.285 446.26L240.706 446.681L237.475 454.69H186.754Z"/>
<path d="M298.707 456.938C288.498 456.938 279.506 454.784 271.731 450.475C263.957 446.166 257.869 440.172 253.466 432.491C249.158 424.81 247.003 416.006 247.003 406.077C247.003 398.396 248.315 391.231 250.937 384.581C253.56 377.837 257.213 371.936 261.896 366.878C266.58 361.82 272.012 357.886 278.194 355.076C284.376 352.172 291.027 350.72 298.145 350.72C308.355 350.72 317.3 352.921 324.981 357.324C332.755 361.726 338.843 367.814 343.246 375.589C347.648 383.363 349.849 392.308 349.849 402.424C349.849 410.011 348.538 417.083 345.915 423.64C343.293 430.196 339.64 436.004 334.956 441.061C330.273 446.026 324.84 449.913 318.658 452.723C312.476 455.533 305.826 456.938 298.707 456.938ZM300.674 452.02C308.917 452.02 316.129 450.053 322.311 446.119C328.587 442.185 333.458 436.706 336.923 429.681C340.483 422.562 342.262 414.367 342.262 405.094C342.262 398.162 341.045 391.746 338.609 385.845C336.268 379.85 332.989 374.605 328.774 370.109C324.653 365.52 319.782 361.96 314.162 359.431C308.542 356.902 302.501 355.638 296.038 355.638C288.263 355.638 281.238 357.605 274.963 361.539C268.687 365.379 263.676 370.858 259.929 377.977C256.276 385.002 254.45 393.338 254.45 402.986C254.45 409.824 255.621 416.24 257.962 422.235C260.304 428.136 263.582 433.334 267.797 437.83C272.012 442.326 276.93 445.838 282.55 448.367C288.17 450.803 294.211 452.02 300.674 452.02Z"/>
<path d="M435.19 454.69C434.159 454.222 432.473 453.051 430.132 451.177C427.79 449.21 425.12 446.775 422.123 443.871C416.971 448.367 411.539 451.786 405.825 454.128C400.111 456.376 394.491 457.313 388.965 456.938C381.753 456.47 375.946 454.643 371.543 451.458C367.141 448.274 364.144 444.34 362.551 439.656C360.959 434.88 360.772 429.915 361.989 424.764C363.207 419.612 365.783 414.788 369.717 410.292C373.744 405.702 379.13 402.003 385.874 399.193C383.72 395.54 381.987 392.027 380.676 388.655C379.458 385.283 378.849 382.286 378.849 379.663C378.849 374.511 380.02 369.875 382.362 365.754C384.703 361.539 387.841 358.214 391.775 355.778C395.803 353.249 400.252 351.985 405.123 351.985C409.619 351.985 413.318 352.781 416.222 354.373C419.126 355.966 421.561 357.464 423.528 358.869L424.793 372.498H424.231C421.702 366.784 418.798 362.663 415.52 360.134C412.241 357.511 408.354 356.2 403.858 356.2C400.486 356.2 397.395 357.136 394.585 359.01C391.869 360.789 389.668 363.225 387.982 366.316C386.389 369.407 385.593 372.872 385.593 376.713C385.593 380.366 386.717 384.627 388.965 389.498C391.307 394.275 394.351 399.38 398.098 404.813C401.844 410.245 405.966 415.631 410.462 420.97C415.051 426.309 419.594 431.227 424.09 435.723C428.024 431.133 431.349 425.888 434.066 419.987C436.876 413.992 438.749 407.623 439.685 400.879H440.248L443.057 412.119C441.278 417.364 438.983 422.235 436.173 426.731C433.457 431.227 430.459 435.254 427.181 438.814C431.021 442.56 434.581 445.792 437.859 448.508C441.137 451.224 443.807 453.098 445.867 454.128V454.69H435.19ZM368.733 427.995C368.733 432.772 369.81 436.987 371.965 440.64C374.119 444.199 377.069 447.009 380.816 449.07C384.563 451.037 388.778 452.02 393.461 452.02C397.863 452.02 402.266 451.037 406.668 449.07C411.07 447.009 415.192 444.246 419.032 440.78C415.473 437.127 411.679 433.1 407.652 428.698C403.718 424.202 399.924 419.518 396.271 414.648C392.618 409.777 389.387 405.047 386.577 400.457C380.769 403.642 376.32 407.716 373.229 412.681C370.232 417.551 368.733 422.656 368.733 427.995Z"/>
<path d="M506.317 456.938C495.92 456.938 486.788 454.83 478.92 450.615C471.052 446.307 464.917 440.312 460.515 432.632C456.206 424.857 454.052 415.772 454.052 405.375C454.052 397.507 455.316 390.247 457.845 383.597C460.374 376.947 463.887 371.186 468.383 366.316C472.878 361.351 478.171 357.511 484.259 354.795C490.441 352.078 497.091 350.72 504.21 350.72C508.706 350.72 512.921 351.235 516.855 352.266C520.883 353.202 524.442 354.326 527.533 355.638C530.718 356.949 533.434 358.214 535.682 359.431C537.93 360.555 539.569 361.305 540.599 361.679L541.161 375.308H540.599C539.101 371.748 536.478 368.47 532.731 365.473C529.078 362.382 524.723 359.9 519.665 358.026C514.607 356.059 509.268 355.076 503.648 355.076C495.405 355.076 488.052 357.043 481.59 360.977C475.22 364.911 470.209 370.343 466.556 377.275C462.997 384.206 461.217 392.168 461.217 401.16C461.217 407.997 462.341 414.507 464.589 420.689C466.837 426.871 470.069 432.351 474.284 437.128C478.498 441.811 483.51 445.511 489.317 448.227C495.124 450.943 501.587 452.301 508.706 452.301C516.48 452.301 523.458 450.569 529.64 447.103C535.822 443.637 540.412 438.814 543.409 432.632H543.971L543.269 445.839C542.332 446.213 541.349 446.635 540.318 447.103C539.382 447.571 538.305 448.086 537.087 448.648C531.186 451.552 525.847 453.66 521.07 454.971C516.293 456.282 511.375 456.938 506.317 456.938Z"/>
<path d="M603.855 456.938C593.645 456.938 584.653 454.784 576.879 450.475C569.105 446.166 563.016 440.172 558.614 432.491C554.305 424.81 552.151 416.006 552.151 406.077C552.151 398.396 553.462 391.231 556.085 384.581C558.708 377.837 562.361 371.936 567.044 366.878C571.727 361.82 577.16 357.886 583.342 355.076C589.524 352.172 596.174 350.72 603.293 350.72C613.503 350.72 622.448 352.921 630.128 357.324C637.903 361.726 643.991 367.814 648.393 375.589C652.796 383.363 654.997 392.308 654.997 402.424C654.997 410.011 653.686 417.083 651.063 423.64C648.44 430.196 644.787 436.004 640.104 441.061C635.421 446.026 629.988 449.913 623.806 452.723C617.624 455.533 610.974 456.938 603.855 456.938ZM605.822 452.02C614.065 452.02 621.277 450.053 627.459 446.119C633.735 442.185 638.605 436.706 642.071 429.681C645.63 422.562 647.41 414.367 647.41 405.094C647.41 398.162 646.192 391.746 643.757 385.845C641.415 379.85 638.137 374.605 633.922 370.109C629.801 365.52 624.93 361.96 619.31 359.431C613.69 356.902 607.648 355.638 601.185 355.638C593.411 355.638 586.386 357.605 580.11 361.539C573.835 365.379 568.824 370.858 565.077 377.977C561.424 385.002 559.598 393.338 559.598 402.986C559.598 409.824 560.768 416.24 563.11 422.235C565.452 428.136 568.73 433.334 572.945 437.83C577.16 442.326 582.078 445.838 587.698 448.367C593.317 450.803 599.359 452.02 605.822 452.02Z"/>
<path d="M665.103 459.045L658.218 452.161V451.599L665.103 444.714H665.665L672.549 451.599V452.161L665.665 459.045H665.103Z"/>
<path d="M355.295 231.072C348.158 237.181 338.179 237.09 330.528 231.828C321.411 225.553 317.222 214.485 319.263 203.432C320.791 195.146 324.238 187.118 330.135 180.737L368.011 139.67C370.763 136.691 376.131 128.98 378.384 125.29C383.359 117.156 388.968 103.804 381.635 95.6545C375.284 88.6084 367.724 97.1514 368.329 92.0559C374.09 88.1397 383.797 91.0428 387.728 95.9569C391.025 100.085 392.718 104.545 392.839 109.837C392.96 114.57 392.461 119.076 390.692 123.567C388.167 129.978 384.599 135.814 380.138 141.182C374.801 147.608 369.1 153.807 362.961 159.598L345.512 176.034C344.076 177.395 342.64 178.695 341.248 180.208C345.316 179.104 348.642 177.985 352.846 177.803C361.646 177.425 370.476 180.48 377.22 186.12C387.456 194.678 392.809 206.668 392.431 219.944C391.629 248.174 366.061 272.109 337.68 270.657C327.519 270.143 318.795 266.484 311.038 260.33C289.234 242.987 291.17 215.574 302.737 192.773C311.204 176.08 309.36 167.189 297.581 152.87C289.31 142.815 284.608 130.794 285.061 117.655C285.5 105.044 291.548 92.2071 300.953 83.6792C314.531 71.3712 333.386 73.3822 344.817 87.4139C358.395 104.092 351.44 134.347 332.69 140.804C323.467 143.979 313.926 137.341 310.826 129.055C308.891 123.884 308.135 118.728 309.541 113.239C309.677 112.725 310.388 111.984 310.841 111.969C311.552 111.954 312.081 112.982 311.93 113.769C310.509 121.586 313.094 129.373 318.946 134.499C322.424 137.553 326.929 138.188 331.224 135.935C337.483 132.654 341.505 126.077 342.413 118.91C344.091 105.77 339.237 92.1466 328.426 84.4352C320.972 79.128 311.537 79.6723 304.869 85.4936C287.738 100.448 292.107 127.18 303.175 144.735C309.511 154.775 314.364 163.242 312.505 175.429C311.567 181.508 309.707 187.148 307.394 192.924C299.773 211.93 302.979 233.189 316.058 248.824C321.32 255.114 327.338 260.27 335.079 263.037C345.18 266.651 355.673 265.123 364.231 258.728C370.295 254.191 375.693 248.053 378.369 240.628C382.769 228.487 382.089 215.332 377.235 203.296C372.653 191.941 362.205 181.886 349.338 182.717C341.324 183.232 334.989 186.785 329.908 192.788C321.048 203.281 322.424 219.112 332.993 227.958C341.203 234.822 350.699 232.826 357.548 225.054C357.972 225.145 358.985 225.705 359.181 226.173C359.378 226.642 358.773 228.048 358.395 228.366L355.295 231.027V231.072Z"/>
<path d="M432.817 188.389C447.151 199.472 473.068 205.792 483.546 187.043C485.98 182.688 487.235 178.213 487.976 173.314C490.91 153.899 487.251 135.482 480.688 117.096C471.45 91.2403 457.448 66.5639 439.924 45.3803C427.419 30.2599 407.99 10.4371 388.182 6.47561C382.315 5.29622 376.585 5.29623 371.383 7.7306C360.255 12.9169 359.438 25.5273 362.976 35.7486C367.875 49.9164 377.87 61.6498 390.677 69.3763C393.761 71.2361 396.861 72.2038 400.203 73.0808C407.869 75.0615 418.014 73.0505 421.311 64.9763C423.654 59.2305 422.626 52.6229 419.239 47.5576C416.986 44.1707 413.887 41.1315 410.893 38.7122C410.167 38.1225 411.104 32.4221 420.131 43.9287C424.32 49.2662 426.164 55.1632 425.544 62.0429C424.607 72.4004 414.174 79.7337 403.892 80.0815C393.61 80.4293 384.175 76.3014 376.04 69.9811C367.906 63.6608 361.782 55.0422 358.123 45.1535C356.157 39.8462 355.598 34.4785 355.492 28.763C355.295 19.0557 359.121 9.87769 367.437 4.50997C373.137 0.83572 379.82 0.276267 386.413 0.986924C399.311 2.378 410.802 7.67012 421.734 14.8674C437.474 25.2249 453.033 41.7665 463.693 57.3707L466.611 61.6498C479.675 80.7619 489.383 101.991 495.869 124.339C501.585 144.01 502.552 167.553 491.908 185.44C483.773 199.109 469.031 207.032 453.139 205.626C443.235 204.749 434.344 201.664 426.119 196.176C408.519 184.442 394.926 163.002 396.831 141.258C397.557 133.003 400.339 125.503 406.568 120.241C411.483 116.098 416.911 114.072 423.428 114.344C443.024 115.191 458.703 136.571 458.885 155.048C458.416 155.547 456.934 155.698 456.284 155.366C455.044 140.85 444.067 121.95 429.037 118.835C424.41 117.882 420.056 117.943 415.731 119.954C405.48 124.747 404.845 139.081 407.158 148.985C410.817 164.71 419.859 178.364 432.832 188.389H432.817Z"/>
<path d="M191.92 189.628C203.638 205.369 227.468 198.579 240.607 188.615C253.46 178.847 262.653 165.209 266.478 149.559C268.943 139.489 268.429 124.626 257.86 119.878C253.626 117.973 249.423 117.867 244.871 118.789C229.781 121.813 218.653 140.835 217.488 155.381C217.035 155.744 215.235 155.532 214.827 154.957C215.024 144.539 219.893 134.061 226.833 126.365C237.538 114.495 254.594 109.173 267.597 120.558C273.57 125.79 276.186 133.033 276.911 141.031C278.892 162.88 265.329 184.336 247.684 196.115C239.337 201.694 230.356 204.764 220.286 205.626C211.38 206.382 202.459 204.068 194.974 199.169C181.154 190.142 174.516 173.601 173.821 157.755C172.898 137.176 178.448 119.092 186.461 100.358C194.944 80.5198 205.528 61.9368 219.288 45.2288C228.919 33.5257 239.519 23.0775 252.114 14.8067C262.774 7.77572 274.643 2.27192 287.208 1.00181C293.12 0.396992 299.063 0.593556 304.582 3.52691C313.745 8.39566 318.644 18.239 318.175 28.6116C319.203 52.6681 298.488 77.163 274.749 79.9301C265.843 80.9734 257.255 78.0249 251.645 70.8578C246.036 63.6908 247.427 52.033 253.233 44.4123C254.125 43.2481 262.245 33.2838 263.031 37.6838C263.122 38.1525 262.713 38.8783 262.199 39.2714C254.306 45.5161 248.273 55.178 252.477 65.0819C255.879 73.1259 266.055 75.1067 273.676 73.0201C275.702 72.4606 277.849 72.0523 279.875 71.0393C293.12 64.3561 303.327 53.1519 309.36 39.5587C314.198 28.6418 314.954 12.9318 301.799 7.47332C288.645 2.01487 271.649 10.4067 260.763 18.7531C250.723 26.4645 242.18 35.2645 234.091 45.0172C216.294 66.4578 201.99 91.6786 192.721 117.988C187.369 133.199 184.027 148.576 184.813 164.649C185.222 173.056 186.87 182.869 191.905 189.613L191.92 189.628Z"/>
<path d="M42.0233 536.727L41.8979 536.476C42.7126 533.093 42.7752 530.523 42.7752 526.137V497.186C42.7752 495.055 41.3966 492.862 38.7021 491.546V491.295H44.6552L65.3971 530.022L85.8256 491.295H90.9641V491.546C87.7056 492.987 87.6429 494.742 87.6429 499.191V528.017C87.6429 532.09 87.7682 533.782 88.2069 536.476L88.0816 536.727H84.1337L84.0084 536.476C84.5097 533.782 84.635 532.09 84.635 528.017V498L64.9584 535.411H64.7078L44.9058 498.314V526.137C44.9058 530.523 44.9058 533.218 45.6578 536.602L45.5325 536.727H42.0233Z"/>
<path d="M102.022 536.727V536.476C103.526 534.158 105.343 530.649 106.722 527.327L118.315 499.128C118.753 498 119.38 496.371 119.38 495.682C119.38 494.429 117.876 492.611 116.748 491.609V491.358H120.696L136.299 526.638C138.242 530.962 139.621 533.907 141.187 536.476V536.727H135.735C135.735 534.158 135.485 532.215 133.479 527.641L131.286 522.753H110.92L108.915 527.641C106.847 532.717 106.659 534.784 106.596 536.727H102.022ZM111.61 520.998H130.534L120.696 498.878L111.61 520.998Z"/>
<path d="M154.148 536.727L154.023 536.476C154.462 533.782 154.587 532.09 154.587 528.017V500.068C154.587 495.995 154.462 494.303 154.023 491.609L154.148 491.358C157.846 491.358 161.668 491.107 165.365 491.107C173.574 491.107 180.405 494.366 180.405 502.324C180.405 509.844 174.201 515.421 166.368 516.298C168.311 518.492 169.626 519.494 171.569 519.87L177.46 527.077C180.969 531.526 184.854 535.286 186.546 536.414L186.421 536.727H184.29C181.407 536.727 180.405 535.85 178.963 534.032L169.376 522.252C164.801 516.486 161.919 516.298 158.284 516.298H157.595V528.017C157.595 532.09 157.72 533.782 158.159 536.476L158.034 536.727H154.148ZM163.611 514.607C172.07 514.607 177.021 510.408 177.021 503.39C177.021 496.685 172.321 492.925 163.673 492.925C161.731 492.925 158.41 493.175 157.595 493.426V514.231C159.663 514.481 161.731 514.607 163.611 514.607Z"/>
<path d="M227.538 536.727L210.744 520.56C205.981 515.922 204.226 514.669 201.908 514.669V528.017C201.908 532.09 202.033 533.782 202.472 536.476L202.347 536.727H198.461L198.336 536.476C198.775 533.782 198.9 532.09 198.9 528.017V500.068C198.9 495.995 198.775 494.303 198.336 491.609L198.461 491.358H202.347L202.472 491.609C202.033 494.303 201.908 495.995 201.908 500.068V512.1L218.639 498.376C222.399 495.306 224.216 493.426 225.658 491.358H230.608V491.609C227.036 494.053 224.342 496.183 220.519 499.316L203.663 513.165C206.608 515.045 209.24 515.359 209.678 515.359L216.07 521.5C227.287 532.278 230.17 534.784 232.927 536.351L233.177 536.727H227.538Z"/>
<path d="M245.1 536.727L244.974 536.476C245.413 533.782 245.538 532.09 245.538 528.017V500.068C245.538 495.995 245.413 494.303 244.974 491.609L245.1 491.358H268.098V491.609L266.218 494.679C260.829 493.426 256.693 492.987 248.546 492.987V512.225C254.249 512.225 260.954 511.912 264.338 511.599L264.526 511.787L263.147 514.607C258.761 514.043 253.559 513.792 248.546 513.792V535.16C259.262 535.16 263.084 534.784 268.975 532.967L269.163 533.155L267.722 536.727H245.1Z"/>
<path d="M294.092 536.664L293.967 536.414C294.405 533.719 294.531 532.027 294.531 527.954V492.987C286.76 492.987 282.562 493.802 277.987 494.805L277.799 494.679L278.865 491.233C281.058 491.358 283.251 491.421 285.507 491.421H306.562C308.818 491.421 311.011 491.358 313.205 491.233L314.27 494.679L314.082 494.867C309.445 493.802 305.309 492.987 297.539 492.987V527.954C297.539 532.027 297.664 533.719 298.103 536.414L297.977 536.664H294.092Z"/>
<path d="M327.667 536.727L327.542 536.476C327.981 533.782 328.106 532.09 328.106 528.017V500.068C328.106 495.995 327.981 494.303 327.542 491.609L327.667 491.358H331.553L331.678 491.609C331.239 494.303 331.114 495.995 331.114 500.068V528.017C331.114 532.09 331.239 533.782 331.678 536.476L331.553 536.727H327.667Z"/>
<path d="M386.241 536.79L352.779 498.94V526.137C352.779 530.461 352.841 533.155 353.531 536.476V536.727H349.896L349.771 536.476C350.585 533.155 350.648 530.461 350.648 526.137V498.376C350.648 495.369 348.142 492.549 346.074 491.609V491.358H350.335L384.361 529.771V501.948C384.361 497.624 384.299 494.993 383.547 491.671V491.358H387.307V491.671C386.555 494.993 386.492 497.624 386.492 501.948V536.79H386.241Z"/>
<path d="M427.97 536.79C412.931 536.79 402.716 527.829 402.716 514.544C402.716 500.632 412.429 490.355 425.463 490.355C434.048 490.355 440.628 494.617 442.696 495.306L442.947 501.51H442.696C440.44 496.747 433.171 492.298 425.213 492.298C414.247 492.298 406.037 500.946 406.037 512.476C406.037 525.009 415.186 534.722 429.411 534.722C432.294 534.722 437.871 534.095 440.691 533.343V516.048C440.691 511.975 440.566 510.283 440.127 507.588L440.252 507.337H444.075L444.2 507.588C443.761 510.283 443.636 511.975 443.636 516.048V530.335C443.636 533.28 444.137 534.22 445.829 534.534L445.767 534.784C441.944 534.847 435.74 536.79 427.97 536.79Z"/>
<path d="M481.604 536.727L481.478 536.476C481.917 533.782 482.042 532.09 482.042 528.017V500.068C482.042 495.995 481.917 494.303 481.478 491.609L481.604 491.358H505.479V491.609L503.536 494.742C498.022 493.238 492.445 492.925 485.05 492.925V513.228C491.442 513.228 498.461 512.977 501.468 512.664L501.656 512.852L500.654 515.609C496.079 515.108 489.938 514.795 485.05 514.795V528.017C485.05 532.09 485.176 533.782 485.614 536.476L485.489 536.727H481.604Z"/>
<path d="M518.879 536.727L518.754 536.476C519.193 533.782 519.318 532.09 519.318 528.017V500.068C519.318 495.995 519.193 494.303 518.754 491.609L518.879 491.358H522.764L522.89 491.609C522.451 494.303 522.326 495.995 522.326 500.068V528.017C522.326 532.09 522.451 533.782 522.89 536.476L522.764 536.727H518.879Z"/>
<path d="M540.795 536.727L540.669 536.476C541.108 533.782 541.233 532.09 541.233 528.017V500.068C541.233 495.995 541.108 494.303 540.669 491.609L540.795 491.358C544.492 491.358 548.314 491.107 552.012 491.107C560.221 491.107 567.051 494.366 567.051 502.324C567.051 509.844 560.847 515.421 553.014 516.298C554.957 518.492 556.273 519.494 558.215 519.87L564.106 527.077C567.615 531.526 571.5 535.286 573.192 536.414L573.067 536.727H570.936C568.054 536.727 567.051 535.85 565.61 534.032L556.022 522.252C551.448 516.486 548.565 516.298 544.931 516.298H544.241V528.017C544.241 532.09 544.367 533.782 544.805 536.476L544.68 536.727H540.795ZM550.257 514.607C558.717 514.607 563.667 510.408 563.667 503.39C563.667 496.685 558.967 492.925 550.32 492.925C548.377 492.925 545.056 493.175 544.241 493.426V514.231C546.309 514.481 548.377 514.607 550.257 514.607Z"/>
<path d="M585.108 536.727L584.982 536.476C585.797 533.093 585.86 530.523 585.86 526.137V497.186C585.86 495.055 584.481 492.862 581.786 491.546V491.295H587.74L608.482 530.022L628.91 491.295H634.049V491.546C630.79 492.987 630.727 494.742 630.727 499.191V528.017C630.727 532.09 630.853 533.782 631.291 536.476L631.166 536.727H627.218L627.093 536.476C627.594 533.782 627.719 532.09 627.719 528.017V498L608.043 535.411H607.792L587.99 498.314V526.137C587.99 530.523 587.99 533.218 588.742 536.602L588.617 536.727H585.108Z"/>
</mask>
<path d="M52.9866 456.938C42.5896 456.938 33.4571 454.83 25.5891 450.615C17.7212 446.307 11.586 440.312 7.18369 432.632C2.87503 424.857 0.720703 415.772 0.720703 405.375C0.720703 397.507 1.9852 390.247 4.51419 383.597C7.04319 376.947 10.5557 371.186 15.0517 366.316C19.5477 361.351 24.8398 357.511 30.9281 354.795C37.1101 352.078 43.7604 350.72 50.8791 350.72C55.3751 350.72 59.5901 351.235 63.524 352.266C67.5517 353.202 71.111 354.326 74.202 355.638C77.3867 356.949 80.103 358.214 82.351 359.431C84.599 360.555 86.2382 361.305 87.2685 361.679L87.8305 375.308H87.2685C85.7698 371.748 83.1472 368.47 79.4005 365.473C75.7475 362.382 71.392 359.9 66.334 358.026C61.2761 356.059 55.9371 355.076 50.3171 355.076C42.0744 355.076 34.7216 357.043 28.2586 360.977C21.8893 364.911 16.8782 370.343 13.2252 377.275C9.66585 384.206 7.88619 392.168 7.88619 401.16C7.88619 407.997 9.01018 414.507 11.2582 420.689C13.5062 426.871 16.7377 432.351 20.9527 437.128C25.1676 441.811 30.1788 445.511 35.9861 448.227C41.7934 450.943 48.2564 452.301 55.3751 452.301C63.1494 452.301 70.1275 450.569 76.3095 447.103C82.4915 443.637 87.0811 438.814 90.0785 432.632H90.6405L89.938 445.839C89.0013 446.213 88.0178 446.635 86.9875 447.103C86.0508 447.571 84.9737 448.086 83.756 448.648C77.855 451.552 72.516 453.66 67.739 454.971C62.962 456.282 58.0446 456.938 52.9866 456.938Z" fill="#ECECE0"/>
<path d="M105.665 454.69L105.384 454.128C105.759 452.067 105.993 450.194 106.087 448.508C106.274 446.822 106.414 444.949 106.508 442.888C106.602 440.734 106.649 438.158 106.649 435.161V372.498C106.649 369.407 106.602 366.831 106.508 364.77C106.414 362.71 106.274 360.836 106.087 359.15C105.993 357.371 105.759 355.497 105.384 353.53L105.665 352.968C109.786 352.968 113.955 352.875 118.17 352.687C122.478 352.5 126.693 352.406 130.815 352.406C136.997 352.406 142.617 353.296 147.675 355.076C152.826 356.762 156.901 359.431 159.898 363.084C162.989 366.737 164.535 371.561 164.535 377.556C164.535 383.176 163.13 388.234 160.32 392.73C157.51 397.226 153.716 400.879 148.939 403.689C144.256 406.499 138.964 408.231 133.063 408.887C135.217 411.322 137.137 413.149 138.823 414.367C140.603 415.584 142.57 416.427 144.724 416.896L157.931 433.053C161.865 438.017 165.752 442.42 169.592 446.26C173.526 450.1 176.43 452.676 178.303 453.987L178.022 454.69H173.245C170.061 454.69 167.672 454.222 166.08 453.285C164.488 452.255 162.895 450.709 161.303 448.648L139.807 422.235C136.435 417.926 133.344 414.835 130.534 412.962C127.817 411.088 125.195 409.964 122.666 409.59C120.23 409.121 117.654 408.887 114.938 408.887H113.393V435.161C113.393 438.158 113.439 440.734 113.533 442.888C113.627 444.949 113.767 446.822 113.955 448.508C114.142 450.194 114.376 452.067 114.657 454.128L114.376 454.69H105.665ZM126.881 405.094C136.341 405.094 143.694 402.892 148.939 398.49C154.278 393.994 156.948 387.812 156.948 379.944C156.948 372.451 154.372 366.69 149.22 362.663C144.162 358.541 136.762 356.481 127.021 356.481C125.616 356.481 123.93 356.528 121.963 356.621C120.09 356.715 118.357 356.855 116.765 357.043C115.172 357.23 114.048 357.417 113.393 357.605V404.251C118.076 404.813 122.572 405.094 126.881 405.094Z" fill="#ECECE0"/>
<path d="M186.754 454.69L186.473 454.128C186.848 452.067 187.082 450.194 187.176 448.508C187.363 446.822 187.504 444.949 187.597 442.888C187.691 440.734 187.738 438.158 187.738 435.161V372.498C187.738 369.407 187.691 366.831 187.597 364.77C187.504 362.71 187.363 360.836 187.176 359.15C187.082 357.371 186.848 355.497 186.473 353.53L186.754 352.968H238.318V353.53L234.103 360.415C230.075 359.478 226.188 358.729 222.441 358.167C218.695 357.605 214.62 357.23 210.218 357.043C205.815 356.762 200.57 356.621 194.482 356.621V399.755C198.79 399.755 203.146 399.708 207.548 399.614C212.044 399.427 216.259 399.239 220.193 399.052C224.127 398.771 227.359 398.537 229.888 398.35L230.309 398.771L227.218 405.094C222.348 404.438 217.055 403.97 211.342 403.689C205.722 403.408 200.102 403.267 194.482 403.267V451.177C200.476 451.177 205.628 451.131 209.937 451.037C214.245 450.85 218.039 450.615 221.317 450.334C224.689 449.96 227.874 449.445 230.871 448.789C233.869 448.133 237.006 447.29 240.285 446.26L240.706 446.681L237.475 454.69H186.754Z" fill="#ECECE0"/>
<path d="M298.707 456.938C288.498 456.938 279.506 454.784 271.731 450.475C263.957 446.166 257.869 440.172 253.466 432.491C249.158 424.81 247.003 416.006 247.003 406.077C247.003 398.396 248.315 391.231 250.937 384.581C253.56 377.837 257.213 371.936 261.896 366.878C266.58 361.82 272.012 357.886 278.194 355.076C284.376 352.172 291.027 350.72 298.145 350.72C308.355 350.72 317.3 352.921 324.981 357.324C332.755 361.726 338.843 367.814 343.246 375.589C347.648 383.363 349.849 392.308 349.849 402.424C349.849 410.011 348.538 417.083 345.915 423.64C343.293 430.196 339.64 436.004 334.956 441.061C330.273 446.026 324.84 449.913 318.658 452.723C312.476 455.533 305.826 456.938 298.707 456.938ZM300.674 452.02C308.917 452.02 316.129 450.053 322.311 446.119C328.587 442.185 333.458 436.706 336.923 429.681C340.483 422.562 342.262 414.367 342.262 405.094C342.262 398.162 341.045 391.746 338.609 385.845C336.268 379.85 332.989 374.605 328.774 370.109C324.653 365.52 319.782 361.96 314.162 359.431C308.542 356.902 302.501 355.638 296.038 355.638C288.263 355.638 281.238 357.605 274.963 361.539C268.687 365.379 263.676 370.858 259.929 377.977C256.276 385.002 254.45 393.338 254.45 402.986C254.45 409.824 255.621 416.24 257.962 422.235C260.304 428.136 263.582 433.334 267.797 437.83C272.012 442.326 276.93 445.838 282.55 448.367C288.17 450.803 294.211 452.02 300.674 452.02Z" fill="#ECECE0"/>
<path d="M435.19 454.69C434.159 454.222 432.473 453.051 430.132 451.177C427.79 449.21 425.12 446.775 422.123 443.871C416.971 448.367 411.539 451.786 405.825 454.128C400.111 456.376 394.491 457.313 388.965 456.938C381.753 456.47 375.946 454.643 371.543 451.458C367.141 448.274 364.144 444.34 362.551 439.656C360.959 434.88 360.772 429.915 361.989 424.764C363.207 419.612 365.783 414.788 369.717 410.292C373.744 405.702 379.13 402.003 385.874 399.193C383.72 395.54 381.987 392.027 380.676 388.655C379.458 385.283 378.849 382.286 378.849 379.663C378.849 374.511 380.02 369.875 382.362 365.754C384.703 361.539 387.841 358.214 391.775 355.778C395.803 353.249 400.252 351.985 405.123 351.985C409.619 351.985 413.318 352.781 416.222 354.373C419.126 355.966 421.561 357.464 423.528 358.869L424.793 372.498H424.231C421.702 366.784 418.798 362.663 415.52 360.134C412.241 357.511 408.354 356.2 403.858 356.2C400.486 356.2 397.395 357.136 394.585 359.01C391.869 360.789 389.668 363.225 387.982 366.316C386.389 369.407 385.593 372.872 385.593 376.713C385.593 380.366 386.717 384.627 388.965 389.498C391.307 394.275 394.351 399.38 398.098 404.813C401.844 410.245 405.966 415.631 410.462 420.97C415.051 426.309 419.594 431.227 424.09 435.723C428.024 431.133 431.349 425.888 434.066 419.987C436.876 413.992 438.749 407.623 439.685 400.879H440.248L443.057 412.119C441.278 417.364 438.983 422.235 436.173 426.731C433.457 431.227 430.459 435.254 427.181 438.814C431.021 442.56 434.581 445.792 437.859 448.508C441.137 451.224 443.807 453.098 445.867 454.128V454.69H435.19ZM368.733 427.995C368.733 432.772 369.81 436.987 371.965 440.64C374.119 444.199 377.069 447.009 380.816 449.07C384.563 451.037 388.778 452.02 393.461 452.02C397.863 452.02 402.266 451.037 406.668 449.07C411.07 447.009 415.192 444.246 419.032 440.78C415.473 437.127 411.679 433.1 407.652 428.698C403.718 424.202 399.924 419.518 396.271 414.648C392.618 409.777 389.387 405.047 386.577 400.457C380.769 403.642 376.32 407.716 373.229 412.681C370.232 417.551 368.733 422.656 368.733 427.995Z" fill="#ECECE0"/>
<path d="M506.317 456.938C495.92 456.938 486.788 454.83 478.92 450.615C471.052 446.307 464.917 440.312 460.515 432.632C456.206 424.857 454.052 415.772 454.052 405.375C454.052 397.507 455.316 390.247 457.845 383.597C460.374 376.947 463.887 371.186 468.383 366.316C472.878 361.351 478.171 357.511 484.259 354.795C490.441 352.078 497.091 350.72 504.21 350.72C508.706 350.72 512.921 351.235 516.855 352.266C520.883 353.202 524.442 354.326 527.533 355.638C530.718 356.949 533.434 358.214 535.682 359.431C537.93 360.555 539.569 361.305 540.599 361.679L541.161 375.308H540.599C539.101 371.748 536.478 368.47 532.731 365.473C529.078 362.382 524.723 359.9 519.665 358.026C514.607 356.059 509.268 355.076 503.648 355.076C495.405 355.076 488.052 357.043 481.59 360.977C475.22 364.911 470.209 370.343 466.556 377.275C462.997 384.206 461.217 392.168 461.217 401.16C461.217 407.997 462.341 414.507 464.589 420.689C466.837 426.871 470.069 432.351 474.284 437.128C478.498 441.811 483.51 445.511 489.317 448.227C495.124 450.943 501.587 452.301 508.706 452.301C516.48 452.301 523.458 450.569 529.64 447.103C535.822 443.637 540.412 438.814 543.409 432.632H543.971L543.269 445.839C542.332 446.213 541.349 446.635 540.318 447.103C539.382 447.571 538.305 448.086 537.087 448.648C531.186 451.552 525.847 453.66 521.07 454.971C516.293 456.282 511.375 456.938 506.317 456.938Z" fill="#ECECE0"/>
<path d="M603.855 456.938C593.645 456.938 584.653 454.784 576.879 450.475C569.105 446.166 563.016 440.172 558.614 432.491C554.305 424.81 552.151 416.006 552.151 406.077C552.151 398.396 553.462 391.231 556.085 384.581C558.708 377.837 562.361 371.936 567.044 366.878C571.727 361.82 577.16 357.886 583.342 355.076C589.524 352.172 596.174 350.72 603.293 350.72C613.503 350.72 622.448 352.921 630.128 357.324C637.903 361.726 643.991 367.814 648.393 375.589C652.796 383.363 654.997 392.308 654.997 402.424C654.997 410.011 653.686 417.083 651.063 423.64C648.44 430.196 644.787 436.004 640.104 441.061C635.421 446.026 629.988 449.913 623.806 452.723C617.624 455.533 610.974 456.938 603.855 456.938ZM605.822 452.02C614.065 452.02 621.277 450.053 627.459 446.119C633.735 442.185 638.605 436.706 642.071 429.681C645.63 422.562 647.41 414.367 647.41 405.094C647.41 398.162 646.192 391.746 643.757 385.845C641.415 379.85 638.137 374.605 633.922 370.109C629.801 365.52 624.93 361.96 619.31 359.431C613.69 356.902 607.648 355.638 601.185 355.638C593.411 355.638 586.386 357.605 580.11 361.539C573.835 365.379 568.824 370.858 565.077 377.977C561.424 385.002 559.598 393.338 559.598 402.986C559.598 409.824 560.768 416.24 563.11 422.235C565.452 428.136 568.73 433.334 572.945 437.83C577.16 442.326 582.078 445.838 587.698 448.367C593.317 450.803 599.359 452.02 605.822 452.02Z" fill="#ECECE0"/>
<path d="M665.103 459.045L658.218 452.161V451.599L665.103 444.714H665.665L672.549 451.599V452.161L665.665 459.045H665.103Z" fill="#ECECE0"/>
<path d="M355.295 231.072C348.158 237.181 338.179 237.09 330.528 231.828C321.411 225.553 317.222 214.485 319.263 203.432C320.791 195.146 324.238 187.118 330.135 180.737L368.011 139.67C370.763 136.691 376.131 128.98 378.384 125.29C383.359 117.156 388.968 103.804 381.635 95.6545C375.284 88.6084 367.724 97.1514 368.329 92.0559C374.09 88.1397 383.797 91.0428 387.728 95.9569C391.025 100.085 392.718 104.545 392.839 109.837C392.96 114.57 392.461 119.076 390.692 123.567C388.167 129.978 384.599 135.814 380.138 141.182C374.801 147.608 369.1 153.807 362.961 159.598L345.512 176.034C344.076 177.395 342.64 178.695 341.248 180.208C345.316 179.104 348.642 177.985 352.846 177.803C361.646 177.425 370.476 180.48 377.22 186.12C387.456 194.678 392.809 206.668 392.431 219.944C391.629 248.174 366.061 272.109 337.68 270.657C327.519 270.143 318.795 266.484 311.038 260.33C289.234 242.987 291.17 215.574 302.737 192.773C311.204 176.08 309.36 167.189 297.581 152.87C289.31 142.815 284.608 130.794 285.061 117.655C285.5 105.044 291.548 92.2071 300.953 83.6792C314.531 71.3712 333.386 73.3822 344.817 87.4139C358.395 104.092 351.44 134.347 332.69 140.804C323.467 143.979 313.926 137.341 310.826 129.055C308.891 123.884 308.135 118.728 309.541 113.239C309.677 112.725 310.388 111.984 310.841 111.969C311.552 111.954 312.081 112.982 311.93 113.769C310.509 121.586 313.094 129.373 318.946 134.499C322.424 137.553 326.929 138.188 331.224 135.935C337.483 132.654 341.505 126.077 342.413 118.91C344.091 105.77 339.237 92.1466 328.426 84.4352C320.972 79.128 311.537 79.6723 304.869 85.4936C287.738 100.448 292.107 127.18 303.175 144.735C309.511 154.775 314.364 163.242 312.505 175.429C311.567 181.508 309.707 187.148 307.394 192.924C299.773 211.93 302.979 233.189 316.058 248.824C321.32 255.114 327.338 260.27 335.079 263.037C345.18 266.651 355.673 265.123 364.231 258.728C370.295 254.191 375.693 248.053 378.369 240.628C382.769 228.487 382.089 215.332 377.235 203.296C372.653 191.941 362.205 181.886 349.338 182.717C341.324 183.232 334.989 186.785 329.908 192.788C321.048 203.281 322.424 219.112 332.993 227.958C341.203 234.822 350.699 232.826 357.548 225.054C357.972 225.145 358.985 225.705 359.181 226.173C359.378 226.642 358.773 228.048 358.395 228.366L355.295 231.027V231.072Z" fill="#ECECE0"/>
<path d="M432.817 188.389C447.151 199.472 473.068 205.792 483.546 187.043C485.98 182.688 487.235 178.213 487.976 173.314C490.91 153.899 487.251 135.482 480.688 117.096C471.45 91.2403 457.448 66.5639 439.924 45.3803C427.419 30.2599 407.99 10.4371 388.182 6.47561C382.315 5.29622 376.585 5.29623 371.383 7.7306C360.255 12.9169 359.438 25.5273 362.976 35.7486C367.875 49.9164 377.87 61.6498 390.677 69.3763C393.761 71.2361 396.861 72.2038 400.203 73.0808C407.869 75.0615 418.014 73.0505 421.311 64.9763C423.654 59.2305 422.626 52.6229 419.239 47.5576C416.986 44.1707 413.887 41.1315 410.893 38.7122C410.167 38.1225 411.104 32.4221 420.131 43.9287C424.32 49.2662 426.164 55.1632 425.544 62.0429C424.607 72.4004 414.174 79.7337 403.892 80.0815C393.61 80.4293 384.175 76.3014 376.04 69.9811C367.906 63.6608 361.782 55.0422 358.123 45.1535C356.157 39.8462 355.598 34.4785 355.492 28.763C355.295 19.0557 359.121 9.87769 367.437 4.50997C373.137 0.83572 379.82 0.276267 386.413 0.986924C399.311 2.378 410.802 7.67012 421.734 14.8674C437.474 25.2249 453.033 41.7665 463.693 57.3707L466.611 61.6498C479.675 80.7619 489.383 101.991 495.869 124.339C501.585 144.01 502.552 167.553 491.908 185.44C483.773 199.109 469.031 207.032 453.139 205.626C443.235 204.749 434.344 201.664 426.119 196.176C408.519 184.442 394.926 163.002 396.831 141.258C397.557 133.003 400.339 125.503 406.568 120.241C411.483 116.098 416.911 114.072 423.428 114.344C443.024 115.191 458.703 136.571 458.885 155.048C458.416 155.547 456.934 155.698 456.284 155.366C455.044 140.85 444.067 121.95 429.037 118.835C424.41 117.882 420.056 117.943 415.731 119.954C405.48 124.747 404.845 139.081 407.158 148.985C410.817 164.71 419.859 178.364 432.832 188.389H432.817Z" fill="#ECECE0"/>
<path d="M191.92 189.628C203.638 205.369 227.468 198.579 240.607 188.615C253.46 178.847 262.653 165.209 266.478 149.559C268.943 139.489 268.429 124.626 257.86 119.878C253.626 117.973 249.423 117.867 244.871 118.789C229.781 121.813 218.653 140.835 217.488 155.381C217.035 155.744 215.235 155.532 214.827 154.957C215.024 144.539 219.893 134.061 226.833 126.365C237.538 114.495 254.594 109.173 267.597 120.558C273.57 125.79 276.186 133.033 276.911 141.031C278.892 162.88 265.329 184.336 247.684 196.115C239.337 201.694 230.356 204.764 220.286 205.626C211.38 206.382 202.459 204.068 194.974 199.169C181.154 190.142 174.516 173.601 173.821 157.755C172.898 137.176 178.448 119.092 186.461 100.358C194.944 80.5198 205.528 61.9368 219.288 45.2288C228.919 33.5257 239.519 23.0775 252.114 14.8067C262.774 7.77572 274.643 2.27192 287.208 1.00181C293.12 0.396992 299.063 0.593556 304.582 3.52691C313.745 8.39566 318.644 18.239 318.175 28.6116C319.203 52.6681 298.488 77.163 274.749 79.9301C265.843 80.9734 257.255 78.0249 251.645 70.8578C246.036 63.6908 247.427 52.033 253.233 44.4123C254.125 43.2481 262.245 33.2838 263.031 37.6838C263.122 38.1525 262.713 38.8783 262.199 39.2714C254.306 45.5161 248.273 55.178 252.477 65.0819C255.879 73.1259 266.055 75.1067 273.676 73.0201C275.702 72.4606 277.849 72.0523 279.875 71.0393C293.12 64.3561 303.327 53.1519 309.36 39.5587C314.198 28.6418 314.954 12.9318 301.799 7.47332C288.645 2.01487 271.649 10.4067 260.763 18.7531C250.723 26.4645 242.18 35.2645 234.091 45.0172C216.294 66.4578 201.99 91.6786 192.721 117.988C187.369 133.199 184.027 148.576 184.813 164.649C185.222 173.056 186.87 182.869 191.905 189.613L191.92 189.628Z" fill="#ECECE0"/>
<path d="M42.0233 536.727L41.8979 536.476C42.7126 533.093 42.7752 530.523 42.7752 526.137V497.186C42.7752 495.055 41.3966 492.862 38.7021 491.546V491.295H44.6552L65.3971 530.022L85.8256 491.295H90.9641V491.546C87.7056 492.987 87.6429 494.742 87.6429 499.191V528.017C87.6429 532.09 87.7682 533.782 88.2069 536.476L88.0816 536.727H84.1337L84.0084 536.476C84.5097 533.782 84.635 532.09 84.635 528.017V498L64.9584 535.411H64.7078L44.9058 498.314V526.137C44.9058 530.523 44.9058 533.218 45.6578 536.602L45.5325 536.727H42.0233Z" fill="#ECECE0"/>
<path d="M102.022 536.727V536.476C103.526 534.158 105.343 530.649 106.722 527.327L118.315 499.128C118.753 498 119.38 496.371 119.38 495.682C119.38 494.429 117.876 492.611 116.748 491.609V491.358H120.696L136.299 526.638C138.242 530.962 139.621 533.907 141.187 536.476V536.727H135.735C135.735 534.158 135.485 532.215 133.479 527.641L131.286 522.753H110.92L108.915 527.641C106.847 532.717 106.659 534.784 106.596 536.727H102.022ZM111.61 520.998H130.534L120.696 498.878L111.61 520.998Z" fill="#ECECE0"/>
<path d="M154.148 536.727L154.023 536.476C154.462 533.782 154.587 532.09 154.587 528.017V500.068C154.587 495.995 154.462 494.303 154.023 491.609L154.148 491.358C157.846 491.358 161.668 491.107 165.365 491.107C173.574 491.107 180.405 494.366 180.405 502.324C180.405 509.844 174.201 515.421 166.368 516.298C168.311 518.492 169.626 519.494 171.569 519.87L177.46 527.077C180.969 531.526 184.854 535.286 186.546 536.414L186.421 536.727H184.29C181.407 536.727 180.405 535.85 178.963 534.032L169.376 522.252C164.801 516.486 161.919 516.298 158.284 516.298H157.595V528.017C157.595 532.09 157.72 533.782 158.159 536.476L158.034 536.727H154.148ZM163.611 514.607C172.07 514.607 177.021 510.408 177.021 503.39C177.021 496.685 172.321 492.925 163.673 492.925C161.731 492.925 158.41 493.175 157.595 493.426V514.231C159.663 514.481 161.731 514.607 163.611 514.607Z" fill="#ECECE0"/>
<path d="M227.538 536.727L210.744 520.56C205.981 515.922 204.226 514.669 201.908 514.669V528.017C201.908 532.09 202.033 533.782 202.472 536.476L202.347 536.727H198.461L198.336 536.476C198.775 533.782 198.9 532.09 198.9 528.017V500.068C198.9 495.995 198.775 494.303 198.336 491.609L198.461 491.358H202.347L202.472 491.609C202.033 494.303 201.908 495.995 201.908 500.068V512.1L218.639 498.376C222.399 495.306 224.216 493.426 225.658 491.358H230.608V491.609C227.036 494.053 224.342 496.183 220.519 499.316L203.663 513.165C206.608 515.045 209.24 515.359 209.678 515.359L216.07 521.5C227.287 532.278 230.17 534.784 232.927 536.351L233.177 536.727H227.538Z" fill="#ECECE0"/>
<path d="M245.1 536.727L244.974 536.476C245.413 533.782 245.538 532.09 245.538 528.017V500.068C245.538 495.995 245.413 494.303 244.974 491.609L245.1 491.358H268.098V491.609L266.218 494.679C260.829 493.426 256.693 492.987 248.546 492.987V512.225C254.249 512.225 260.954 511.912 264.338 511.599L264.526 511.787L263.147 514.607C258.761 514.043 253.559 513.792 248.546 513.792V535.16C259.262 535.16 263.084 534.784 268.975 532.967L269.163 533.155L267.722 536.727H245.1Z" fill="#ECECE0"/>
<path d="M294.092 536.664L293.967 536.414C294.405 533.719 294.531 532.027 294.531 527.954V492.987C286.76 492.987 282.562 493.802 277.987 494.805L277.799 494.679L278.865 491.233C281.058 491.358 283.251 491.421 285.507 491.421H306.562C308.818 491.421 311.011 491.358 313.205 491.233L314.27 494.679L314.082 494.867C309.445 493.802 305.309 492.987 297.539 492.987V527.954C297.539 532.027 297.664 533.719 298.103 536.414L297.977 536.664H294.092Z" fill="#ECECE0"/>
<path d="M327.667 536.727L327.542 536.476C327.981 533.782 328.106 532.09 328.106 528.017V500.068C328.106 495.995 327.981 494.303 327.542 491.609L327.667 491.358H331.553L331.678 491.609C331.239 494.303 331.114 495.995 331.114 500.068V528.017C331.114 532.09 331.239 533.782 331.678 536.476L331.553 536.727H327.667Z" fill="#ECECE0"/>
<path d="M386.241 536.79L352.779 498.94V526.137C352.779 530.461 352.841 533.155 353.531 536.476V536.727H349.896L349.771 536.476C350.585 533.155 350.648 530.461 350.648 526.137V498.376C350.648 495.369 348.142 492.549 346.074 491.609V491.358H350.335L384.361 529.771V501.948C384.361 497.624 384.299 494.993 383.547 491.671V491.358H387.307V491.671C386.555 494.993 386.492 497.624 386.492 501.948V536.79H386.241Z" fill="#ECECE0"/>
<path d="M427.97 536.79C412.931 536.79 402.716 527.829 402.716 514.544C402.716 500.632 412.429 490.355 425.463 490.355C434.048 490.355 440.628 494.617 442.696 495.306L442.947 501.51H442.696C440.44 496.747 433.171 492.298 425.213 492.298C414.247 492.298 406.037 500.946 406.037 512.476C406.037 525.009 415.186 534.722 429.411 534.722C432.294 534.722 437.871 534.095 440.691 533.343V516.048C440.691 511.975 440.566 510.283 440.127 507.588L440.252 507.337H444.075L444.2 507.588C443.761 510.283 443.636 511.975 443.636 516.048V530.335C443.636 533.28 444.137 534.22 445.829 534.534L445.767 534.784C441.944 534.847 435.74 536.79 427.97 536.79Z" fill="#ECECE0"/>
<path d="M481.604 536.727L481.478 536.476C481.917 533.782 482.042 532.09 482.042 528.017V500.068C482.042 495.995 481.917 494.303 481.478 491.609L481.604 491.358H505.479V491.609L503.536 494.742C498.022 493.238 492.445 492.925 485.05 492.925V513.228C491.442 513.228 498.461 512.977 501.468 512.664L501.656 512.852L500.654 515.609C496.079 515.108 489.938 514.795 485.05 514.795V528.017C485.05 532.09 485.176 533.782 485.614 536.476L485.489 536.727H481.604Z" fill="#ECECE0"/>
<path d="M518.879 536.727L518.754 536.476C519.193 533.782 519.318 532.09 519.318 528.017V500.068C519.318 495.995 519.193 494.303 518.754 491.609L518.879 491.358H522.764L522.89 491.609C522.451 494.303 522.326 495.995 522.326 500.068V528.017C522.326 532.09 522.451 533.782 522.89 536.476L522.764 536.727H518.879Z" fill="#ECECE0"/>
<path d="M540.795 536.727L540.669 536.476C541.108 533.782 541.233 532.09 541.233 528.017V500.068C541.233 495.995 541.108 494.303 540.669 491.609L540.795 491.358C544.492 491.358 548.314 491.107 552.012 491.107C560.221 491.107 567.051 494.366 567.051 502.324C567.051 509.844 560.847 515.421 553.014 516.298C554.957 518.492 556.273 519.494 558.215 519.87L564.106 527.077C567.615 531.526 571.5 535.286 573.192 536.414L573.067 536.727H570.936C568.054 536.727 567.051 535.85 565.61 534.032L556.022 522.252C551.448 516.486 548.565 516.298 544.931 516.298H544.241V528.017C544.241 532.09 544.367 533.782 544.805 536.476L544.68 536.727H540.795ZM550.257 514.607C558.717 514.607 563.667 510.408 563.667 503.39C563.667 496.685 558.967 492.925 550.32 492.925C548.377 492.925 545.056 493.175 544.241 493.426V514.231C546.309 514.481 548.377 514.607 550.257 514.607Z" fill="#ECECE0"/>
<path d="M585.108 536.727L584.982 536.476C585.797 533.093 585.86 530.523 585.86 526.137V497.186C585.86 495.055 584.481 492.862 581.786 491.546V491.295H587.74L608.482 530.022L628.91 491.295H634.049V491.546C630.79 492.987 630.727 494.742 630.727 499.191V528.017C630.727 532.09 630.853 533.782 631.291 536.476L631.166 536.727H627.218L627.093 536.476C627.594 533.782 627.719 532.09 627.719 528.017V498L608.043 535.411H607.792L587.99 498.314V526.137C587.99 530.523 587.99 533.218 588.742 536.602L588.617 536.727H585.108Z" fill="#ECECE0"/>
<path d="M52.9866 456.938C42.5896 456.938 33.4571 454.83 25.5891 450.615C17.7212 446.307 11.586 440.312 7.18369 432.632C2.87503 424.857 0.720703 415.772 0.720703 405.375C0.720703 397.507 1.9852 390.247 4.51419 383.597C7.04319 376.947 10.5557 371.186 15.0517 366.316C19.5477 361.351 24.8398 357.511 30.9281 354.795C37.1101 352.078 43.7604 350.72 50.8791 350.72C55.3751 350.72 59.5901 351.235 63.524 352.266C67.5517 353.202 71.111 354.326 74.202 355.638C77.3867 356.949 80.103 358.214 82.351 359.431C84.599 360.555 86.2382 361.305 87.2685 361.679L87.8305 375.308H87.2685C85.7698 371.748 83.1472 368.47 79.4005 365.473C75.7475 362.382 71.392 359.9 66.334 358.026C61.2761 356.059 55.9371 355.076 50.3171 355.076C42.0744 355.076 34.7216 357.043 28.2586 360.977C21.8893 364.911 16.8782 370.343 13.2252 377.275C9.66585 384.206 7.88619 392.168 7.88619 401.16C7.88619 407.997 9.01018 414.507 11.2582 420.689C13.5062 426.871 16.7377 432.351 20.9527 437.128C25.1676 441.811 30.1788 445.511 35.9861 448.227C41.7934 450.943 48.2564 452.301 55.3751 452.301C63.1494 452.301 70.1275 450.569 76.3095 447.103C82.4915 443.637 87.0811 438.814 90.0785 432.632H90.6405L89.938 445.839C89.0013 446.213 88.0178 446.635 86.9875 447.103C86.0508 447.571 84.9737 448.086 83.756 448.648C77.855 451.552 72.516 453.66 67.739 454.971C62.962 456.282 58.0446 456.938 52.9866 456.938Z" stroke="#ECECE0" stroke-width="1.44056" mask="url(#path-1-outside-1_249_190)"/>
<path d="M105.665 454.69L105.384 454.128C105.759 452.067 105.993 450.194 106.087 448.508C106.274 446.822 106.414 444.949 106.508 442.888C106.602 440.734 106.649 438.158 106.649 435.161V372.498C106.649 369.407 106.602 366.831 106.508 364.77C106.414 362.71 106.274 360.836 106.087 359.15C105.993 357.371 105.759 355.497 105.384 353.53L105.665 352.968C109.786 352.968 113.955 352.875 118.17 352.687C122.478 352.5 126.693 352.406 130.815 352.406C136.997 352.406 142.617 353.296 147.675 355.076C152.826 356.762 156.901 359.431 159.898 363.084C162.989 366.737 164.535 371.561 164.535 377.556C164.535 383.176 163.13 388.234 160.32 392.73C157.51 397.226 153.716 400.879 148.939 403.689C144.256 406.499 138.964 408.231 133.063 408.887C135.217 411.322 137.137 413.149 138.823 414.367C140.603 415.584 142.57 416.427 144.724 416.896L157.931 433.053C161.865 438.017 165.752 442.42 169.592 446.26C173.526 450.1 176.43 452.676 178.303 453.987L178.022 454.69H173.245C170.061 454.69 167.672 454.222 166.08 453.285C164.488 452.255 162.895 450.709 161.303 448.648L139.807 422.235C136.435 417.926 133.344 414.835 130.534 412.962C127.817 411.088 125.195 409.964 122.666 409.59C120.23 409.121 117.654 408.887 114.938 408.887H113.393V435.161C113.393 438.158 113.439 440.734 113.533 442.888C113.627 444.949 113.767 446.822 113.955 448.508C114.142 450.194 114.376 452.067 114.657 454.128L114.376 454.69H105.665ZM126.881 405.094C136.341 405.094 143.694 402.892 148.939 398.49C154.278 393.994 156.948 387.812 156.948 379.944C156.948 372.451 154.372 366.69 149.22 362.663C144.162 358.541 136.762 356.481 127.021 356.481C125.616 356.481 123.93 356.528 121.963 356.621C120.09 356.715 118.357 356.855 116.765 357.043C115.172 357.23 114.048 357.417 113.393 357.605V404.251C118.076 404.813 122.572 405.094 126.881 405.094Z" stroke="#ECECE0" stroke-width="1.44056" mask="url(#path-1-outside-1_249_190)"/>
<path d="M186.754 454.69L186.473 454.128C186.848 452.067 187.082 450.194 187.176 448.508C187.363 446.822 187.504 444.949 187.597 442.888C187.691 440.734 187.738 438.158 187.738 435.161V372.498C187.738 369.407 187.691 366.831 187.597 364.77C187.504 362.71 187.363 360.836 187.176 359.15C187.082 357.371 186.848 355.497 186.473 353.53L186.754 352.968H238.318V353.53L234.103 360.415C230.075 359.478 226.188 358.729 222.441 358.167C218.695 357.605 214.62 357.23 210.218 357.043C205.815 356.762 200.57 356.621 194.482 356.621V399.755C198.79 399.755 203.146 399.708 207.548 399.614C212.044 399.427 216.259 399.239 220.193 399.052C224.127 398.771 227.359 398.537 229.888 398.35L230.309 398.771L227.218 405.094C222.348 404.438 217.055 403.97 211.342 403.689C205.722 403.408 200.102 403.267 194.482 403.267V451.177C200.476 451.177 205.628 451.131 209.937 451.037C214.245 450.85 218.039 450.615 221.317 450.334C224.689 449.96 227.874 449.445 230.871 448.789C233.869 448.133 237.006 447.29 240.285 446.26L240.706 446.681L237.475 454.69H186.754Z" stroke="#ECECE0" stroke-width="1.44056" mask="url(#path-1-outside-1_249_190)"/>
<path d="M298.707 456.938C288.498 456.938 279.506 454.784 271.731 450.475C263.957 446.166 257.869 440.172 253.466 432.491C249.158 424.81 247.003 416.006 247.003 406.077C247.003 398.396 248.315 391.231 250.937 384.581C253.56 377.837 257.213 371.936 261.896 366.878C266.58 361.82 272.012 357.886 278.194 355.076C284.376 352.172 291.027 350.72 298.145 350.72C308.355 350.72 317.3 352.921 324.981 357.324C332.755 361.726 338.843 367.814 343.246 375.589C347.648 383.363 349.849 392.308 349.849 402.424C349.849 410.011 348.538 417.083 345.915 423.64C343.293 430.196 339.64 436.004 334.956 441.061C330.273 446.026 324.84 449.913 318.658 452.723C312.476 455.533 305.826 456.938 298.707 456.938ZM300.674 452.02C308.917 452.02 316.129 450.053 322.311 446.119C328.587 442.185 333.458 436.706 336.923 429.681C340.483 422.562 342.262 414.367 342.262 405.094C342.262 398.162 341.045 391.746 338.609 385.845C336.268 379.85 332.989 374.605 328.774 370.109C324.653 365.52 319.782 361.96 314.162 359.431C308.542 356.902 302.501 355.638 296.038 355.638C288.263 355.638 281.238 357.605 274.963 361.539C268.687 365.379 263.676 370.858 259.929 377.977C256.276 385.002 254.45 393.338 254.45 402.986C254.45 409.824 255.621 416.24 257.962 422.235C260.304 428.136 263.582 433.334 267.797 437.83C272.012 442.326 276.93 445.838 282.55 448.367C288.17 450.803 294.211 452.02 300.674 452.02Z" stroke="#ECECE0" stroke-width="1.44056" mask="url(#path-1-outside-1_249_190)"/>
<path d="M435.19 454.69C434.159 454.222 432.473 453.051 430.132 451.177C427.79 449.21 425.12 446.775 422.123 443.871C416.971 448.367 411.539 451.786 405.825 454.128C400.111 456.376 394.491 457.313 388.965 456.938C381.753 456.47 375.946 454.643 371.543 451.458C367.141 448.274 364.144 444.34 362.551 439.656C360.959 434.88 360.772 429.915 361.989 424.764C363.207 419.612 365.783 414.788 369.717 410.292C373.744 405.702 379.13 402.003 385.874 399.193C383.72 395.54 381.987 392.027 380.676 388.655C379.458 385.283 378.849 382.286 378.849 379.663C378.849 374.511 380.02 369.875 382.362 365.754C384.703 361.539 387.841 358.214 391.775 355.778C395.803 353.249 400.252 351.985 405.123 351.985C409.619 351.985 413.318 352.781 416.222 354.373C419.126 355.966 421.561 357.464 423.528 358.869L424.793 372.498H424.231C421.702 366.784 418.798 362.663 415.52 360.134C412.241 357.511 408.354 356.2 403.858 356.2C400.486 356.2 397.395 357.136 394.585 359.01C391.869 360.789 389.668 363.225 387.982 366.316C386.389 369.407 385.593 372.872 385.593 376.713C385.593 380.366 386.717 384.627 388.965 389.498C391.307 394.275 394.351 399.38 398.098 404.813C401.844 410.245 405.966 415.631 410.462 420.97C415.051 426.309 419.594 431.227 424.09 435.723C428.024 431.133 431.349 425.888 434.066 419.987C436.876 413.992 438.749 407.623 439.685 400.879H440.248L443.057 412.119C441.278 417.364 438.983 422.235 436.173 426.731C433.457 431.227 430.459 435.254 427.181 438.814C431.021 442.56 434.581 445.792 437.859 448.508C441.137 451.224 443.807 453.098 445.867 454.128V454.69H435.19ZM368.733 427.995C368.733 432.772 369.81 436.987 371.965 440.64C374.119 444.199 377.069 447.009 380.816 449.07C384.563 451.037 388.778 452.02 393.461 452.02C397.863 452.02 402.266 451.037 406.668 449.07C411.07 447.009 415.192 444.246 419.032 440.78C415.473 437.127 411.679 433.1 407.652 428.698C403.718 424.202 399.924 419.518 396.271 414.648C392.618 409.777 389.387 405.047 386.577 400.457C380.769 403.642 376.32 407.716 373.229 412.681C370.232 417.551 368.733 422.656 368.733 427.995Z" stroke="#ECECE0" stroke-width="1.44056" mask="url(#path-1-outside-1_249_190)"/>
<path d="M506.317 456.938C495.92 456.938 486.788 454.83 478.92 450.615C471.052 446.307 464.917 440.312 460.515 432.632C456.206 424.857 454.052 415.772 454.052 405.375C454.052 397.507 455.316 390.247 457.845 383.597C460.374 376.947 463.887 371.186 468.383 366.316C472.878 361.351 478.171 357.511 484.259 354.795C490.441 352.078 497.091 350.72 504.21 350.72C508.706 350.72 512.921 351.235 516.855 352.266C520.883 353.202 524.442 354.326 527.533 355.638C530.718 356.949 533.434 358.214 535.682 359.431C537.93 360.555 539.569 361.305 540.599 361.679L541.161 375.308H540.599C539.101 371.748 536.478 368.47 532.731 365.473C529.078 362.382 524.723 359.9 519.665 358.026C514.607 356.059 509.268 355.076 503.648 355.076C495.405 355.076 488.052 357.043 481.59 360.977C475.22 364.911 470.209 370.343 466.556 377.275C462.997 384.206 461.217 392.168 461.217 401.16C461.217 407.997 462.341 414.507 464.589 420.689C466.837 426.871 470.069 432.351 474.284 437.128C478.498 441.811 483.51 445.511 489.317 448.227C495.124 450.943 501.587 452.301 508.706 452.301C516.48 452.301 523.458 450.569 529.64 447.103C535.822 443.637 540.412 438.814 543.409 432.632H543.971L543.269 445.839C542.332 446.213 541.349 446.635 540.318 447.103C539.382 447.571 538.305 448.086 537.087 448.648C531.186 451.552 525.847 453.66 521.07 454.971C516.293 456.282 511.375 456.938 506.317 456.938Z" stroke="#ECECE0" stroke-width="1.44056" mask="url(#path-1-outside-1_249_190)"/>
<path d="M603.855 456.938C593.645 456.938 584.653 454.784 576.879 450.475C569.105 446.166 563.016 440.172 558.614 432.491C554.305 424.81 552.151 416.006 552.151 406.077C552.151 398.396 553.462 391.231 556.085 384.581C558.708 377.837 562.361 371.936 567.044 366.878C571.727 361.82 577.16 357.886 583.342 355.076C589.524 352.172 596.174 350.72 603.293 350.72C613.503 350.72 622.448 352.921 630.128 357.324C637.903 361.726 643.991 367.814 648.393 375.589C652.796 383.363 654.997 392.308 654.997 402.424C654.997 410.011 653.686 417.083 651.063 423.64C648.44 430.196 644.787 436.004 640.104 441.061C635.421 446.026 629.988 449.913 623.806 452.723C617.624 455.533 610.974 456.938 603.855 456.938ZM605.822 452.02C614.065 452.02 621.277 450.053 627.459 446.119C633.735 442.185 638.605 436.706 642.071 429.681C645.63 422.562 647.41 414.367 647.41 405.094C647.41 398.162 646.192 391.746 643.757 385.845C641.415 379.85 638.137 374.605 633.922 370.109C629.801 365.52 624.93 361.96 619.31 359.431C613.69 356.902 607.648 355.638 601.185 355.638C593.411 355.638 586.386 357.605 580.11 361.539C573.835 365.379 568.824 370.858 565.077 377.977C561.424 385.002 559.598 393.338 559.598 402.986C559.598 409.824 560.768 416.24 563.11 422.235C565.452 428.136 568.73 433.334 572.945 437.83C577.16 442.326 582.078 445.838 587.698 448.367C593.317 450.803 599.359 452.02 605.822 452.02Z" stroke="#ECECE0" stroke-width="1.44056" mask="url(#path-1-outside-1_249_190)"/>
<path d="M665.103 459.045L658.218 452.161V451.599L665.103 444.714H665.665L672.549 451.599V452.161L665.665 459.045H665.103Z" stroke="#ECECE0" stroke-width="1.44056" mask="url(#path-1-outside-1_249_190)"/>
<path d="M355.295 231.072C348.158 237.181 338.179 237.09 330.528 231.828C321.411 225.553 317.222 214.485 319.263 203.432C320.791 195.146 324.238 187.118 330.135 180.737L368.011 139.67C370.763 136.691 376.131 128.98 378.384 125.29C383.359 117.156 388.968 103.804 381.635 95.6545C375.284 88.6084 367.724 97.1514 368.329 92.0559C374.09 88.1397 383.797 91.0428 387.728 95.9569C391.025 100.085 392.718 104.545 392.839 109.837C392.96 114.57 392.461 119.076 390.692 123.567C388.167 129.978 384.599 135.814 380.138 141.182C374.801 147.608 369.1 153.807 362.961 159.598L345.512 176.034C344.076 177.395 342.64 178.695 341.248 180.208C345.316 179.104 348.642 177.985 352.846 177.803C361.646 177.425 370.476 180.48 377.22 186.12C387.456 194.678 392.809 206.668 392.431 219.944C391.629 248.174 366.061 272.109 337.68 270.657C327.519 270.143 318.795 266.484 311.038 260.33C289.234 242.987 291.17 215.574 302.737 192.773C311.204 176.08 309.36 167.189 297.581 152.87C289.31 142.815 284.608 130.794 285.061 117.655C285.5 105.044 291.548 92.2071 300.953 83.6792C314.531 71.3712 333.386 73.3822 344.817 87.4139C358.395 104.092 351.44 134.347 332.69 140.804C323.467 143.979 313.926 137.341 310.826 129.055C308.891 123.884 308.135 118.728 309.541 113.239C309.677 112.725 310.388 111.984 310.841 111.969C311.552 111.954 312.081 112.982 311.93 113.769C310.509 121.586 313.094 129.373 318.946 134.499C322.424 137.553 326.929 138.188 331.224 135.935C337.483 132.654 341.505 126.077 342.413 118.91C344.091 105.77 339.237 92.1466 328.426 84.4352C320.972 79.128 311.537 79.6723 304.869 85.4936C287.738 100.448 292.107 127.18 303.175 144.735C309.511 154.775 314.364 163.242 312.505 175.429C311.567 181.508 309.707 187.148 307.394 192.924C299.773 211.93 302.979 233.189 316.058 248.824C321.32 255.114 327.338 260.27 335.079 263.037C345.18 266.651 355.673 265.123 364.231 258.728C370.295 254.191 375.693 248.053 378.369 240.628C382.769 228.487 382.089 215.332 377.235 203.296C372.653 191.941 362.205 181.886 349.338 182.717C341.324 183.232 334.989 186.785 329.908 192.788C321.048 203.281 322.424 219.112 332.993 227.958C341.203 234.822 350.699 232.826 357.548 225.054C357.972 225.145 358.985 225.705 359.181 226.173C359.378 226.642 358.773 228.048 358.395 228.366L355.295 231.027V231.072Z" stroke="#ECECE0" stroke-width="1.44056" mask="url(#path-1-outside-1_249_190)"/>
<path d="M432.817 188.389C447.151 199.472 473.068 205.792 483.546 187.043C485.98 182.688 487.235 178.213 487.976 173.314C490.91 153.899 487.251 135.482 480.688 117.096C471.45 91.2403 457.448 66.5639 439.924 45.3803C427.419 30.2599 407.99 10.4371 388.182 6.47561C382.315 5.29622 376.585 5.29623 371.383 7.7306C360.255 12.9169 359.438 25.5273 362.976 35.7486C367.875 49.9164 377.87 61.6498 390.677 69.3763C393.761 71.2361 396.861 72.2038 400.203 73.0808C407.869 75.0615 418.014 73.0505 421.311 64.9763C423.654 59.2305 422.626 52.6229 419.239 47.5576C416.986 44.1707 413.887 41.1315 410.893 38.7122C410.167 38.1225 411.104 32.4221 420.131 43.9287C424.32 49.2662 426.164 55.1632 425.544 62.0429C424.607 72.4004 414.174 79.7337 403.892 80.0815C393.61 80.4293 384.175 76.3014 376.04 69.9811C367.906 63.6608 361.782 55.0422 358.123 45.1535C356.157 39.8462 355.598 34.4785 355.492 28.763C355.295 19.0557 359.121 9.87769 367.437 4.50997C373.137 0.83572 379.82 0.276267 386.413 0.986924C399.311 2.378 410.802 7.67012 421.734 14.8674C437.474 25.2249 453.033 41.7665 463.693 57.3707L466.611 61.6498C479.675 80.7619 489.383 101.991 495.869 124.339C501.585 144.01 502.552 167.553 491.908 185.44C483.773 199.109 469.031 207.032 453.139 205.626C443.235 204.749 434.344 201.664 426.119 196.176C408.519 184.442 394.926 163.002 396.831 141.258C397.557 133.003 400.339 125.503 406.568 120.241C411.483 116.098 416.911 114.072 423.428 114.344C443.024 115.191 458.703 136.571 458.885 155.048C458.416 155.547 456.934 155.698 456.284 155.366C455.044 140.85 444.067 121.95 429.037 118.835C424.41 117.882 420.056 117.943 415.731 119.954C405.48 124.747 404.845 139.081 407.158 148.985C410.817 164.71 419.859 178.364 432.832 188.389H432.817Z" stroke="#ECECE0" stroke-width="1.44056" mask="url(#path-1-outside-1_249_190)"/>
<path d="M191.92 189.628C203.638 205.369 227.468 198.579 240.607 188.615C253.46 178.847 262.653 165.209 266.478 149.559C268.943 139.489 268.429 124.626 257.86 119.878C253.626 117.973 249.423 117.867 244.871 118.789C229.781 121.813 218.653 140.835 217.488 155.381C217.035 155.744 215.235 155.532 214.827 154.957C215.024 144.539 219.893 134.061 226.833 126.365C237.538 114.495 254.594 109.173 267.597 120.558C273.57 125.79 276.186 133.033 276.911 141.031C278.892 162.88 265.329 184.336 247.684 196.115C239.337 201.694 230.356 204.764 220.286 205.626C211.38 206.382 202.459 204.068 194.974 199.169C181.154 190.142 174.516 173.601 173.821 157.755C172.898 137.176 178.448 119.092 186.461 100.358C194.944 80.5198 205.528 61.9368 219.288 45.2288C228.919 33.5257 239.519 23.0775 252.114 14.8067C262.774 7.77572 274.643 2.27192 287.208 1.00181C293.12 0.396992 299.063 0.593556 304.582 3.52691C313.745 8.39566 318.644 18.239 318.175 28.6116C319.203 52.6681 298.488 77.163 274.749 79.9301C265.843 80.9734 257.255 78.0249 251.645 70.8578C246.036 63.6908 247.427 52.033 253.233 44.4123C254.125 43.2481 262.245 33.2838 263.031 37.6838C263.122 38.1525 262.713 38.8783 262.199 39.2714C254.306 45.5161 248.273 55.178 252.477 65.0819C255.879 73.1259 266.055 75.1067 273.676 73.0201C275.702 72.4606 277.849 72.0523 279.875 71.0393C293.12 64.3561 303.327 53.1519 309.36 39.5587C314.198 28.6418 314.954 12.9318 301.799 7.47332C288.645 2.01487 271.649 10.4067 260.763 18.7531C250.723 26.4645 242.18 35.2645 234.091 45.0172C216.294 66.4578 201.99 91.6786 192.721 117.988C187.369 133.199 184.027 148.576 184.813 164.649C185.222 173.056 186.87 182.869 191.905 189.613L191.92 189.628Z" stroke="#ECECE0" stroke-width="1.44056" mask="url(#path-1-outside-1_249_190)"/>
<path d="M42.0233 536.727L41.8979 536.476C42.7126 533.093 42.7752 530.523 42.7752 526.137V497.186C42.7752 495.055 41.3966 492.862 38.7021 491.546V491.295H44.6552L65.3971 530.022L85.8256 491.295H90.9641V491.546C87.7056 492.987 87.6429 494.742 87.6429 499.191V528.017C87.6429 532.09 87.7682 533.782 88.2069 536.476L88.0816 536.727H84.1337L84.0084 536.476C84.5097 533.782 84.635 532.09 84.635 528.017V498L64.9584 535.411H64.7078L44.9058 498.314V526.137C44.9058 530.523 44.9058 533.218 45.6578 536.602L45.5325 536.727H42.0233Z" stroke="#ECECE0" stroke-width="1.44056" mask="url(#path-1-outside-1_249_190)"/>
<path d="M102.022 536.727V536.476C103.526 534.158 105.343 530.649 106.722 527.327L118.315 499.128C118.753 498 119.38 496.371 119.38 495.682C119.38 494.429 117.876 492.611 116.748 491.609V491.358H120.696L136.299 526.638C138.242 530.962 139.621 533.907 141.187 536.476V536.727H135.735C135.735 534.158 135.485 532.215 133.479 527.641L131.286 522.753H110.92L108.915 527.641C106.847 532.717 106.659 534.784 106.596 536.727H102.022ZM111.61 520.998H130.534L120.696 498.878L111.61 520.998Z" stroke="#ECECE0" stroke-width="1.44056" mask="url(#path-1-outside-1_249_190)"/>
<path d="M154.148 536.727L154.023 536.476C154.462 533.782 154.587 532.09 154.587 528.017V500.068C154.587 495.995 154.462 494.303 154.023 491.609L154.148 491.358C157.846 491.358 161.668 491.107 165.365 491.107C173.574 491.107 180.405 494.366 180.405 502.324C180.405 509.844 174.201 515.421 166.368 516.298C168.311 518.492 169.626 519.494 171.569 519.87L177.46 527.077C180.969 531.526 184.854 535.286 186.546 536.414L186.421 536.727H184.29C181.407 536.727 180.405 535.85 178.963 534.032L169.376 522.252C164.801 516.486 161.919 516.298 158.284 516.298H157.595V528.017C157.595 532.09 157.72 533.782 158.159 536.476L158.034 536.727H154.148ZM163.611 514.607C172.07 514.607 177.021 510.408 177.021 503.39C177.021 496.685 172.321 492.925 163.673 492.925C161.731 492.925 158.41 493.175 157.595 493.426V514.231C159.663 514.481 161.731 514.607 163.611 514.607Z" stroke="#ECECE0" stroke-width="1.44056" mask="url(#path-1-outside-1_249_190)"/>
<path d="M227.538 536.727L210.744 520.56C205.981 515.922 204.226 514.669 201.908 514.669V528.017C201.908 532.09 202.033 533.782 202.472 536.476L202.347 536.727H198.461L198.336 536.476C198.775 533.782 198.9 532.09 198.9 528.017V500.068C198.9 495.995 198.775 494.303 198.336 491.609L198.461 491.358H202.347L202.472 491.609C202.033 494.303 201.908 495.995 201.908 500.068V512.1L218.639 498.376C222.399 495.306 224.216 493.426 225.658 491.358H230.608V491.609C227.036 494.053 224.342 496.183 220.519 499.316L203.663 513.165C206.608 515.045 209.24 515.359 209.678 515.359L216.07 521.5C227.287 532.278 230.17 534.784 232.927 536.351L233.177 536.727H227.538Z" stroke="#ECECE0" stroke-width="1.44056" mask="url(#path-1-outside-1_249_190)"/>
<path d="M245.1 536.727L244.974 536.476C245.413 533.782 245.538 532.09 245.538 528.017V500.068C245.538 495.995 245.413 494.303 244.974 491.609L245.1 491.358H268.098V491.609L266.218 494.679C260.829 493.426 256.693 492.987 248.546 492.987V512.225C254.249 512.225 260.954 511.912 264.338 511.599L264.526 511.787L263.147 514.607C258.761 514.043 253.559 513.792 248.546 513.792V535.16C259.262 535.16 263.084 534.784 268.975 532.967L269.163 533.155L267.722 536.727H245.1Z" stroke="#ECECE0" stroke-width="1.44056" mask="url(#path-1-outside-1_249_190)"/>
<path d="M294.092 536.664L293.967 536.414C294.405 533.719 294.531 532.027 294.531 527.954V492.987C286.76 492.987 282.562 493.802 277.987 494.805L277.799 494.679L278.865 491.233C281.058 491.358 283.251 491.421 285.507 491.421H306.562C308.818 491.421 311.011 491.358 313.205 491.233L314.27 494.679L314.082 494.867C309.445 493.802 305.309 492.987 297.539 492.987V527.954C297.539 532.027 297.664 533.719 298.103 536.414L297.977 536.664H294.092Z" stroke="#ECECE0" stroke-width="1.44056" mask="url(#path-1-outside-1_249_190)"/>
<path d="M327.667 536.727L327.542 536.476C327.981 533.782 328.106 532.09 328.106 528.017V500.068C328.106 495.995 327.981 494.303 327.542 491.609L327.667 491.358H331.553L331.678 491.609C331.239 494.303 331.114 495.995 331.114 500.068V528.017C331.114 532.09 331.239 533.782 331.678 536.476L331.553 536.727H327.667Z" stroke="#ECECE0" stroke-width="1.44056" mask="url(#path-1-outside-1_249_190)"/>
<path d="M386.241 536.79L352.779 498.94V526.137C352.779 530.461 352.841 533.155 353.531 536.476V536.727H349.896L349.771 536.476C350.585 533.155 350.648 530.461 350.648 526.137V498.376C350.648 495.369 348.142 492.549 346.074 491.609V491.358H350.335L384.361 529.771V501.948C384.361 497.624 384.299 494.993 383.547 491.671V491.358H387.307V491.671C386.555 494.993 386.492 497.624 386.492 501.948V536.79H386.241Z" stroke="#ECECE0" stroke-width="1.44056" mask="url(#path-1-outside-1_249_190)"/>
<path d="M427.97 536.79C412.931 536.79 402.716 527.829 402.716 514.544C402.716 500.632 412.429 490.355 425.463 490.355C434.048 490.355 440.628 494.617 442.696 495.306L442.947 501.51H442.696C440.44 496.747 433.171 492.298 425.213 492.298C414.247 492.298 406.037 500.946 406.037 512.476C406.037 525.009 415.186 534.722 429.411 534.722C432.294 534.722 437.871 534.095 440.691 533.343V516.048C440.691 511.975 440.566 510.283 440.127 507.588L440.252 507.337H444.075L444.2 507.588C443.761 510.283 443.636 511.975 443.636 516.048V530.335C443.636 533.28 444.137 534.22 445.829 534.534L445.767 534.784C441.944 534.847 435.74 536.79 427.97 536.79Z" stroke="#ECECE0" stroke-width="1.44056" mask="url(#path-1-outside-1_249_190)"/>
<path d="M481.604 536.727L481.478 536.476C481.917 533.782 482.042 532.09 482.042 528.017V500.068C482.042 495.995 481.917 494.303 481.478 491.609L481.604 491.358H505.479V491.609L503.536 494.742C498.022 493.238 492.445 492.925 485.05 492.925V513.228C491.442 513.228 498.461 512.977 501.468 512.664L501.656 512.852L500.654 515.609C496.079 515.108 489.938 514.795 485.05 514.795V528.017C485.05 532.09 485.176 533.782 485.614 536.476L485.489 536.727H481.604Z" stroke="#ECECE0" stroke-width="1.44056" mask="url(#path-1-outside-1_249_190)"/>
<path d="M518.879 536.727L518.754 536.476C519.193 533.782 519.318 532.09 519.318 528.017V500.068C519.318 495.995 519.193 494.303 518.754 491.609L518.879 491.358H522.764L522.89 491.609C522.451 494.303 522.326 495.995 522.326 500.068V528.017C522.326 532.09 522.451 533.782 522.89 536.476L522.764 536.727H518.879Z" stroke="#ECECE0" stroke-width="1.44056" mask="url(#path-1-outside-1_249_190)"/>
<path d="M540.795 536.727L540.669 536.476C541.108 533.782 541.233 532.09 541.233 528.017V500.068C541.233 495.995 541.108 494.303 540.669 491.609L540.795 491.358C544.492 491.358 548.314 491.107 552.012 491.107C560.221 491.107 567.051 494.366 567.051 502.324C567.051 509.844 560.847 515.421 553.014 516.298C554.957 518.492 556.273 519.494 558.215 519.87L564.106 527.077C567.615 531.526 571.5 535.286 573.192 536.414L573.067 536.727H570.936C568.054 536.727 567.051 535.85 565.61 534.032L556.022 522.252C551.448 516.486 548.565 516.298 544.931 516.298H544.241V528.017C544.241 532.09 544.367 533.782 544.805 536.476L544.68 536.727H540.795ZM550.257 514.607C558.717 514.607 563.667 510.408 563.667 503.39C563.667 496.685 558.967 492.925 550.32 492.925C548.377 492.925 545.056 493.175 544.241 493.426V514.231C546.309 514.481 548.377 514.607 550.257 514.607Z" stroke="#ECECE0" stroke-width="1.44056" mask="url(#path-1-outside-1_249_190)"/>
<path d="M585.108 536.727L584.982 536.476C585.797 533.093 585.86 530.523 585.86 526.137V497.186C585.86 495.055 584.481 492.862 581.786 491.546V491.295H587.74L608.482 530.022L628.91 491.295H634.049V491.546C630.79 492.987 630.727 494.742 630.727 499.191V528.017C630.727 532.09 630.853 533.782 631.291 536.476L631.166 536.727H627.218L627.093 536.476C627.594 533.782 627.719 532.09 627.719 528.017V498L608.043 535.411H607.792L587.99 498.314V526.137C587.99 530.523 587.99 533.218 588.742 536.602L588.617 536.727H585.108Z" stroke="#ECECE0" stroke-width="1.44056" mask="url(#path-1-outside-1_249_190)"/>
</svg>
