<svg width="377" height="469" viewBox="0 0 377 469" fill="none" xmlns="http://www.w3.org/2000/svg">
<path d="M325.584 50.8956C327.936 45.8144 329.211 40.2426 329.211 34.475C329.211 25.2763 325.633 16.6168 319.146 10.0976C312.643 3.59465 304.017 0 294.802 0C286.845 0 279.361 3.10439 273.741 8.72478L273.708 8.75746C268.071 14.4109 264.967 21.9101 264.967 29.9C264.967 36.6643 267.597 43.02 272.368 47.8071C277.155 52.5943 283.478 55.2248 290.226 55.2248C295.749 55.2085 300.945 53.0681 304.866 49.1469C308.771 45.2255 310.928 40.0134 310.928 34.4746C310.911 30.1447 309.245 26.0765 306.189 23.0537C303.134 19.9983 299.098 18.3154 294.768 18.3154C291.697 18.3154 288.788 19.5082 286.632 21.6813C284.622 23.7563 283.217 26.7955 283.217 29.8995C283.217 31.7621 283.952 33.5267 285.259 34.8502C286.566 36.1737 288.331 36.9089 290.21 36.9089C291.55 36.9252 292.644 35.8305 292.644 34.4908C292.644 33.151 291.566 32.0563 290.226 32.0563C289.638 32.0563 289.099 31.8276 288.707 31.4191C288.298 31.0106 288.086 30.4715 288.086 29.8996C288.086 28.1023 288.789 26.4031 290.063 25.1288C291.435 23.887 293.004 23.1517 294.801 23.1681C297.824 23.1681 300.65 24.3445 302.774 26.4685C304.898 28.5926 306.075 31.4355 306.075 34.4747C306.075 38.7227 304.425 42.7097 301.434 45.7158C298.444 48.7058 294.458 50.3562 290.226 50.3725C284.785 50.3725 279.655 48.2484 275.799 44.3761C271.943 40.5038 269.819 35.3736 269.819 29.9C269.819 23.201 272.417 16.9105 277.139 12.1886L277.155 12.1723C281.86 7.46672 288.118 4.86882 294.784 4.86882C302.692 4.86882 310.094 7.95686 315.682 13.5447C321.269 19.1487 324.341 26.5831 324.341 34.491C324.341 43.6244 320.796 52.2187 314.342 58.689C314.342 58.7053 314.326 58.7053 314.326 58.7217C307.888 65.1593 299.327 68.7046 290.226 68.7046C279.883 68.7046 270.178 64.6689 262.875 57.3493C252.663 47.1376 239.085 41.5005 224.674 41.4842C211.048 41.4678 198.206 46.4675 188.223 55.6172C178.256 46.4675 165.414 41.4679 151.771 41.4842C137.36 41.5005 123.799 47.1376 113.571 57.3493C113.554 57.3657 113.538 57.3657 113.538 57.382C106.235 64.6855 96.5294 68.7047 86.2198 68.7047C77.1027 68.7047 68.541 65.1428 62.1038 58.6891C55.6498 52.2188 52.1045 43.6408 52.1045 34.5078C52.1045 26.5999 55.1762 19.1492 60.764 13.5615L60.7967 13.5288C66.3681 7.9574 73.7862 4.8856 81.6615 4.8856C88.3443 4.8856 94.6021 7.48346 99.324 12.2217C104.046 16.9599 106.644 23.2503 106.644 29.9331C106.644 35.4066 104.52 40.5372 100.664 44.4092C100.647 44.4092 100.647 44.4255 100.647 44.4255C96.7914 48.2815 91.6775 50.3893 86.2365 50.4056C82.0049 50.4056 78.0183 48.7554 75.028 45.7652C72.0381 42.7589 70.3877 38.7721 70.3877 34.5241C70.3877 31.5014 71.5641 28.6587 73.6881 26.5179C73.7045 26.5179 73.7045 26.5179 73.7045 26.5016C75.8285 24.3776 78.6552 23.2012 81.6613 23.2012C83.4586 23.2012 85.1251 23.9037 86.3995 25.1782C87.6576 26.4526 88.3602 28.1355 88.3602 29.9327C88.3438 31.1091 87.3472 32.0894 86.2198 32.0894C84.88 32.0894 83.8017 33.1841 83.7853 34.5075C83.7853 35.8473 84.88 36.942 86.2198 36.942C89.9287 36.9584 93.2129 33.7069 93.2129 29.9326C93.2129 26.8282 92.0039 23.9199 89.8308 21.7469C87.6577 19.5575 84.7496 18.3485 81.6615 18.3485C77.3646 18.3485 73.3123 20.015 70.2568 23.0704L70.2405 23.0867C67.2015 26.1421 65.5186 30.194 65.5186 34.524C65.5186 40.0628 67.6753 45.2749 71.5802 49.1962C75.4852 53.1012 80.681 55.2578 86.2198 55.2742C92.9678 55.2578 99.2909 52.6436 104.062 47.8728C104.062 47.8565 104.078 47.8565 104.078 47.8401C108.865 43.053 111.479 36.6969 111.479 29.933C111.479 21.9598 108.391 14.4439 102.738 8.79046C97.1012 3.15337 89.6183 0.0326298 81.6448 0.0326298C72.4787 0.0326298 63.8518 3.61084 57.3489 10.0971C57.3325 10.1135 57.3162 10.1135 57.3162 10.1298C50.8133 16.649 47.2517 25.2923 47.2517 34.5073C47.2517 40.2748 48.5261 45.8299 50.8789 50.9116C45.7977 48.5588 40.2422 47.2843 34.4746 47.3007C25.2759 47.3007 16.6164 50.8789 10.0972 57.3652L10.0645 57.3979C3.5616 63.9008 0 72.5114 0 81.6937C0 89.6669 3.1207 97.1665 8.75782 102.787C14.4112 108.424 21.9268 111.528 29.9003 111.528C36.6647 111.528 43.0203 108.898 47.8075 104.127L47.8238 104.111C52.5947 99.3399 55.2252 93.0005 55.2252 86.2688C55.2252 80.7463 53.0685 75.5342 49.1472 71.6292C45.226 67.7242 40.0138 65.5676 34.475 65.5676C30.1618 65.5676 26.0932 67.2505 23.054 70.2895L23.0377 70.3058C19.9823 73.3612 18.3158 77.3968 18.3158 81.6942C18.3158 84.7822 19.5249 87.6906 21.7143 89.8798C23.8873 92.0692 26.8122 93.2783 29.9162 93.2619C33.6742 93.2456 36.9257 89.9941 36.9257 86.2688C36.9257 84.929 35.8473 83.8343 34.5075 83.8343C33.1678 83.8343 32.0731 84.929 32.0894 86.2524C32.073 87.3962 31.0763 88.3928 29.9327 88.3928C28.1354 88.3928 26.4361 87.6902 25.1618 86.4158C23.8874 85.1577 23.1848 83.4748 23.1848 81.6776C23.1848 78.6713 24.3449 75.8448 26.4852 73.7208C26.4852 73.7208 26.5016 73.7208 26.5016 73.7044C28.642 71.5804 31.4686 70.404 34.5078 70.404C38.7558 70.404 42.7428 72.0542 45.7489 75.0443C48.755 78.0345 50.3892 82.0048 50.4055 86.2528C50.4055 91.6937 48.2815 96.8076 44.4255 100.664C44.4091 100.664 44.4091 100.68 44.4091 100.68C40.5368 104.536 35.4066 106.66 29.9331 106.66C23.2503 106.66 16.9599 104.062 12.2217 99.3402C7.48347 94.6347 4.88557 88.3605 4.88557 81.6778C4.88557 73.7862 7.90827 66.2376 13.5614 60.7804C19.1491 55.1926 26.5835 52.1208 34.5077 52.1372C43.6412 52.1372 52.2355 55.6827 58.689 62.1201C65.1593 68.5578 68.7046 77.1353 68.7046 86.2361C68.7046 96.5625 64.6852 106.251 57.3819 113.554C57.3656 113.571 57.3656 113.571 57.3492 113.587C47.1375 123.799 41.5004 137.36 41.4841 151.787C41.4677 165.414 46.4674 178.256 55.6172 188.239C46.4674 198.222 41.4678 211.064 41.4841 224.691C41.5004 239.102 47.1375 252.663 57.3492 262.891C64.669 270.194 68.7045 279.9 68.7045 290.226C68.7045 299.327 65.159 307.888 58.7216 314.326C58.7052 314.342 58.7052 314.342 58.6889 314.342C52.2186 320.796 43.6243 324.341 34.4909 324.325C26.583 324.325 19.1486 321.27 13.5446 315.682C7.95685 310.11 4.86873 302.692 4.86873 294.801C4.86873 288.134 7.46659 281.877 12.1722 277.171C12.1722 277.155 12.1886 277.155 12.1886 277.139C16.9268 272.417 23.2172 269.819 29.9 269.819C35.3735 269.819 40.5204 271.943 44.3923 275.799C48.2643 279.655 50.3887 284.785 50.3887 290.226C50.3887 294.458 48.7221 298.444 45.7484 301.434C42.742 304.424 38.7552 306.075 34.5072 306.075C31.4682 306.058 28.6255 304.898 26.5011 302.758C24.3607 300.634 23.1843 297.791 23.1843 294.801C23.1843 293.004 24.0339 291.354 25.1613 290.063C26.4357 288.789 28.1186 288.102 29.9158 288.086C30.4877 288.086 31.0268 288.315 31.4353 288.723C31.8438 289.115 32.0562 289.671 32.0562 290.243C32.0562 291.582 33.1509 292.661 34.4907 292.661C35.8305 292.644 36.9088 291.566 36.9088 290.226C36.8925 288.364 36.1736 286.599 34.8501 285.292C33.5266 283.968 31.7621 283.25 29.8994 283.233C26.8114 283.233 23.8867 284.442 21.7138 286.615C19.6388 288.739 18.3153 291.697 18.3153 294.785C18.299 299.098 19.9819 303.15 23.0535 306.206C26.0925 309.245 30.1608 310.928 34.4908 310.944C40.0296 310.928 45.2417 308.787 49.163 304.882C53.0843 300.977 55.2247 295.765 55.241 290.243C55.241 283.495 52.6104 277.155 47.8233 272.384C43.0362 267.614 36.6801 264.983 29.9161 264.983C21.943 264.983 14.427 268.087 8.77364 273.724L8.74096 273.757C3.13692 279.328 0.0488029 286.812 0.0324902 294.785C0.048828 303.967 3.62706 312.627 10.1464 319.113C16.6656 325.616 25.3251 329.178 34.5238 329.178C40.2914 329.194 45.8628 327.903 50.9444 325.55C48.5916 330.632 47.3172 336.204 47.3172 341.971C47.3172 351.17 50.8954 359.829 57.3817 366.349C63.8683 372.851 72.5115 376.446 81.7265 376.446C89.6833 376.43 97.1667 373.342 102.787 367.721C102.804 367.705 102.804 367.689 102.82 367.689C108.441 362.035 111.545 354.536 111.561 346.546C111.561 339.782 108.931 333.41 104.16 328.622C99.389 323.835 93.0497 321.205 86.3016 321.205C80.7792 321.221 75.567 323.378 71.662 327.283C67.7571 331.204 65.6004 336.416 65.6004 341.955C65.6168 346.285 67.2833 350.337 70.3386 353.376C73.394 356.447 77.4459 358.13 81.7596 358.114C84.8476 358.098 87.7234 356.905 89.8963 354.732C92.102 352.788 93.3111 349.618 93.3274 346.514C93.3274 344.651 92.5922 342.886 91.2851 341.563C89.978 340.239 88.2134 339.504 86.3507 339.504C85.0109 339.504 83.9162 340.582 83.9162 341.922C83.9162 343.262 84.9946 344.357 86.3343 344.357C86.9062 344.357 87.4454 344.586 87.8539 344.978C88.2623 345.386 88.4911 345.925 88.4911 346.497C88.4911 348.294 87.7885 349.994 86.514 351.268L86.4977 351.284C85.2396 352.542 83.573 353.229 81.7758 353.245C78.7695 353.245 75.943 352.069 73.819 349.928C71.6786 347.788 70.5022 344.961 70.5022 341.938C70.5022 337.69 72.1524 333.703 75.1425 330.697C78.1325 327.691 82.1193 326.057 86.351 326.041C91.7919 326.041 96.9221 328.165 100.778 332.037C104.634 335.909 106.758 341.056 106.774 346.529C106.758 353.212 104.16 359.519 99.4547 364.224C99.4384 364.241 99.4384 364.241 99.422 364.257C94.7164 368.963 88.4586 371.561 81.7926 371.561C73.8847 371.544 66.4666 368.473 60.8952 362.885C55.3075 357.281 52.2357 349.846 52.2357 341.922C52.2357 332.789 55.7812 324.194 62.2186 317.724C62.235 317.724 62.235 317.708 62.2513 317.708C68.689 311.27 77.2502 307.708 86.351 307.708C96.6774 307.708 106.399 311.744 113.702 319.064C123.914 329.276 137.475 334.913 151.903 334.913C165.529 334.945 178.371 329.929 188.354 320.78C198.321 329.929 211.163 334.929 224.806 334.913C239.217 334.896 252.778 329.276 263.006 319.064L263.039 319.031C270.342 311.728 280.031 307.708 290.357 307.708C299.474 307.708 308.036 311.254 314.49 317.724C320.943 324.194 324.489 332.789 324.472 341.922C324.472 349.846 321.417 357.281 315.829 362.868C315.813 362.868 315.813 362.885 315.813 362.885C310.225 368.472 302.823 371.544 294.948 371.544C288.265 371.528 281.991 368.946 277.286 364.208C272.564 359.47 269.966 353.179 269.966 346.48C269.95 341.023 272.09 335.893 275.946 332.004C275.962 331.988 275.962 331.988 275.979 331.988C279.835 328.132 284.948 326.024 290.389 326.008C294.621 326.008 298.591 327.658 301.582 330.648C304.588 333.655 306.222 337.658 306.222 341.889C306.206 347.967 300.945 353.212 294.948 353.212C293.151 353.212 291.468 352.509 290.21 351.235C288.936 349.961 288.233 348.278 288.233 346.48C288.233 345.32 289.262 344.307 290.373 344.324C291.713 344.324 292.791 343.245 292.808 341.906C292.808 340.566 291.713 339.487 290.39 339.471C288.527 339.471 286.762 340.19 285.423 341.53C284.116 342.853 283.397 344.602 283.38 346.481C283.397 349.585 284.589 352.493 286.779 354.666C288.952 356.856 291.86 358.065 294.948 358.065C303.542 358.065 311.058 350.581 311.075 341.905C311.075 336.367 308.918 331.171 305.013 327.233C301.108 323.312 295.896 321.155 290.373 321.155C283.625 321.155 277.302 323.786 272.532 328.557L272.499 328.589C267.728 333.377 265.098 339.733 265.098 346.48C265.098 354.47 268.202 361.969 273.839 367.639C279.459 373.292 286.959 376.397 294.932 376.397C304.098 376.397 312.741 372.819 319.244 366.316L319.277 366.283C325.78 359.78 329.342 351.12 329.342 341.905C329.342 336.138 328.067 330.583 325.714 325.501C330.796 327.854 336.351 329.128 342.119 329.128C351.317 329.128 359.977 325.55 366.496 319.064C366.512 319.048 366.529 319.048 366.529 319.031C373.032 312.528 376.61 303.901 376.593 294.719C376.593 286.746 373.489 279.246 367.835 273.625C362.182 267.988 354.666 264.884 346.677 264.884C339.929 264.884 333.557 267.499 328.769 272.286C328.753 272.302 328.753 272.302 328.737 272.318C323.982 277.073 321.352 283.412 321.352 290.16C321.352 295.699 323.525 300.895 327.413 304.8C331.335 308.705 336.547 310.845 342.086 310.862C350.745 310.845 358.245 303.313 358.245 294.735C358.245 291.647 357.036 288.739 354.846 286.566C352.673 284.393 349.748 283.184 346.644 283.167C344.782 283.167 343.033 283.902 341.694 285.21C340.37 286.533 339.651 288.298 339.651 290.16C339.651 291.5 340.746 292.595 342.086 292.578C343.409 292.562 344.52 291.484 344.504 290.144C344.504 289 345.533 288.003 346.644 288.003C348.458 288.003 350.141 288.706 351.415 289.98C352.69 291.239 353.392 292.921 353.392 294.719C353.392 300.731 348.147 305.976 342.086 305.992C337.838 305.992 333.851 304.342 330.845 301.352C327.839 298.362 326.204 294.392 326.204 290.144C326.204 284.703 328.328 279.589 332.168 275.733C332.184 275.733 332.184 275.716 332.201 275.716C336.073 271.844 341.203 269.72 346.677 269.736C353.376 269.72 359.666 272.334 364.388 277.056C369.11 281.762 371.724 288.036 371.724 294.719C371.741 302.594 368.653 310.012 363.081 315.583C363.065 315.6 363.065 315.6 363.048 315.616C357.444 321.188 350.01 324.259 342.102 324.259C332.969 324.259 324.374 320.714 317.921 314.26C311.451 307.822 307.905 299.261 307.905 290.144C307.905 279.834 311.925 270.129 319.228 262.826C319.244 262.809 319.261 262.793 319.261 262.793C329.472 252.581 335.109 239.004 335.126 224.593C335.142 210.966 330.142 198.124 320.993 188.141C330.142 178.175 335.142 165.316 335.126 151.706C335.109 137.279 329.472 123.717 319.261 113.506C311.941 106.202 307.905 96.4805 307.905 86.1542C307.905 77.0534 311.467 68.508 317.905 62.0545C317.905 62.0381 317.921 62.0381 317.921 62.0218C324.391 55.5841 332.985 52.0225 342.119 52.0225C350.043 52.0225 357.478 55.0943 363.082 60.6821C368.669 66.2698 371.741 73.6716 371.757 81.5795C371.757 88.2459 369.16 94.5033 364.454 99.2089L364.438 99.2252C359.699 103.947 353.409 106.529 346.726 106.545C341.253 106.545 336.106 104.405 332.234 100.549C328.361 96.6927 326.237 91.5624 326.237 86.1215C326.237 81.8898 327.888 77.9033 330.878 74.913C333.884 71.923 337.871 70.2727 342.119 70.2727C345.158 70.289 348.001 71.4491 350.125 73.5895C352.265 75.7299 353.442 78.5565 353.425 81.5626C353.425 83.3599 352.739 85.1899 351.448 86.3008C350.174 87.5753 348.491 88.2615 346.694 88.2779C346.122 88.2779 345.583 88.0491 345.174 87.6407C344.766 87.2322 344.554 86.7093 344.554 86.1375C344.554 84.7977 343.459 83.7193 342.119 83.7193C340.796 83.7357 339.685 84.814 339.701 86.1538C339.717 88.0328 340.436 89.781 341.743 91.0882C343.067 92.4117 344.831 93.1469 346.71 93.1469C349.798 93.1306 352.707 91.9378 354.88 89.7648C357.036 87.3793 358.278 84.6836 358.278 81.5955C358.294 77.2822 356.612 73.23 353.54 70.1745C350.501 67.1355 346.433 65.4526 342.103 65.4363C336.564 65.4363 331.352 67.593 327.43 71.4979C323.525 75.4029 321.369 80.615 321.369 86.1375C321.369 92.8855 323.999 99.2249 328.786 103.996C333.574 108.767 339.93 111.397 346.71 111.397C354.7 111.381 362.199 108.276 367.853 102.656C367.869 102.64 367.869 102.64 367.885 102.623C373.506 97.0025 376.61 89.5196 376.627 81.5624C376.61 72.3637 373.032 63.7205 366.513 57.2339C359.993 50.731 351.334 47.1693 342.135 47.1693C336.22 47.2674 330.665 48.5428 325.584 50.8956ZM302.922 86.2364C302.938 97.8695 307.48 108.8 315.715 117.019C325.012 126.316 330.142 138.668 330.158 151.788C330.175 164.908 325.077 177.244 315.813 186.508C314.865 187.456 314.865 188.992 315.813 189.939C325.077 199.203 330.175 211.539 330.158 224.659C330.142 237.779 325.011 250.131 315.731 259.412C315.715 259.428 315.699 259.445 315.682 259.461C307.464 267.679 302.938 278.594 302.938 290.211C302.938 295.93 304.212 301.436 306.532 306.484C301.484 304.148 295.978 302.89 290.243 302.89C278.642 302.89 267.712 307.415 259.509 315.634L259.46 315.683C250.163 324.98 237.811 330.094 224.691 330.11C211.571 330.127 199.235 325.029 189.971 315.765C189.023 314.801 187.487 314.817 186.54 315.765C177.259 325.029 164.94 330.127 151.803 330.11C138.683 330.11 126.331 324.98 117.034 315.683C108.816 307.432 97.8854 302.89 86.2519 302.89C80.5333 302.89 75.0108 304.164 69.9622 306.484C72.2987 301.436 73.5568 295.93 73.5568 290.195C73.5568 278.562 69.0148 267.631 60.7798 259.412C51.4828 250.115 46.3527 237.763 46.3364 224.643C46.32 211.523 51.4176 199.204 60.6819 189.923C61.6296 188.975 61.6296 187.44 60.6819 186.492C51.418 177.211 46.3201 164.892 46.3364 151.772C46.3527 138.652 51.4832 126.3 60.7798 117.003C60.7961 116.986 60.7961 116.97 60.8125 116.97C69.0307 108.752 73.5569 97.8374 73.5569 86.2202C73.5569 80.5016 72.2988 74.9954 69.9623 69.9468C75.0109 72.2833 80.517 73.5414 86.2357 73.5414C97.8524 73.5414 108.767 69.0157 116.986 60.797L117.018 60.7643C126.315 51.4674 138.667 46.3372 151.787 46.3209C164.907 46.3046 177.243 51.4021 186.507 60.6665C187.455 61.6141 188.991 61.6141 189.938 60.6665C199.219 51.3858 211.539 46.3046 224.659 46.3209C237.779 46.3372 250.131 51.4678 259.428 60.7643C267.646 68.9993 278.577 73.5414 290.21 73.5414C295.929 73.5414 301.451 72.2669 306.5 69.9468C304.196 74.9954 302.938 80.5015 302.922 86.2364Z" fill="#171717"/>
<path d="M200.086 255.346C195.366 259.386 188.766 259.326 183.706 255.846C177.676 251.696 174.906 244.376 176.256 237.066C177.266 231.586 179.546 226.276 183.446 222.056L208.496 194.896C210.316 192.926 213.866 187.826 215.356 185.386C218.646 180.006 222.356 171.176 217.506 165.786C213.306 161.126 208.306 166.776 208.706 163.406C212.516 160.816 218.936 162.736 221.536 165.986C223.716 168.716 224.836 171.666 224.916 175.166C224.996 178.296 224.666 181.276 223.496 184.246C221.826 188.486 219.466 192.346 216.516 195.896C212.986 200.146 209.216 204.246 205.156 208.076L193.616 218.946C192.666 219.846 191.716 220.706 190.796 221.706C193.486 220.976 195.686 220.236 198.466 220.116C204.286 219.866 210.126 221.886 214.586 225.616C221.356 231.276 224.896 239.206 224.646 247.986C224.116 266.656 207.206 282.486 188.436 281.526C181.716 281.186 175.946 278.766 170.816 274.696C156.396 263.226 157.676 245.096 165.326 230.016C170.926 218.976 169.706 213.096 161.916 203.626C156.446 196.976 153.336 189.026 153.636 180.336C153.926 171.996 157.926 163.506 164.146 157.866C173.126 149.726 185.596 151.056 193.156 160.336C202.136 171.366 197.536 191.376 185.136 195.646C179.036 197.746 172.726 193.356 170.676 187.876C169.396 184.456 168.896 181.046 169.826 177.416C169.916 177.076 170.386 176.586 170.686 176.576C171.156 176.566 171.506 177.246 171.406 177.766C170.466 182.936 172.176 188.086 176.046 191.476C178.346 193.496 181.326 193.916 184.166 192.426C188.306 190.256 190.966 185.906 191.566 181.166C192.676 172.476 189.466 163.466 182.316 158.366C177.386 154.856 171.146 155.216 166.736 159.066C155.406 168.956 158.296 186.636 165.616 198.246C169.806 204.886 173.016 210.486 171.786 218.546C171.166 222.566 169.936 226.296 168.406 230.116C163.366 242.686 165.486 256.746 174.136 267.086C177.616 271.246 181.596 274.656 186.716 276.486C193.396 278.876 200.336 277.866 205.996 273.636C210.006 270.636 213.576 266.576 215.346 261.666C218.256 253.636 217.806 244.936 214.596 236.976C211.566 229.466 204.656 222.816 196.146 223.366C190.846 223.706 186.656 226.056 183.296 230.026C177.436 236.966 178.346 247.436 185.336 253.286C190.766 257.826 197.046 256.506 201.576 251.366C201.856 251.426 202.526 251.796 202.656 252.106C202.786 252.416 202.386 253.346 202.136 253.556L200.086 255.316V255.346Z" fill="#171717"/>
<path d="M251.356 227.116C260.836 234.446 277.976 238.626 284.906 226.226C286.516 223.346 287.346 220.386 287.836 217.146C289.776 204.306 287.356 192.126 283.016 179.966C276.906 162.866 267.646 146.546 256.056 132.536C247.786 122.536 234.936 109.426 221.836 106.806C217.956 106.026 214.166 106.026 210.726 107.636C203.366 111.066 202.826 119.406 205.166 126.166C208.406 135.536 215.016 143.296 223.486 148.406C225.526 149.636 227.576 150.276 229.786 150.856C234.856 152.166 241.566 150.836 243.746 145.496C245.296 141.696 244.616 137.326 242.376 133.976C240.886 131.736 238.836 129.726 236.856 128.126C236.376 127.736 236.996 123.966 242.966 131.576C245.736 135.106 246.956 139.006 246.546 143.556C245.926 150.406 239.026 155.256 232.226 155.486C225.426 155.716 219.186 152.986 213.806 148.806C208.426 144.626 204.376 138.926 201.956 132.386C200.656 128.876 200.286 125.326 200.216 121.546C200.086 115.126 202.616 109.056 208.116 105.506C211.886 103.076 216.306 102.706 220.666 103.176C229.196 104.096 236.796 107.596 244.026 112.356C254.436 119.206 264.726 130.146 271.776 140.466L273.706 143.296C282.346 155.936 288.766 169.976 293.056 184.756C296.836 197.766 297.476 213.336 290.436 225.166C285.056 234.206 275.306 239.446 264.796 238.516C258.246 237.936 252.366 235.896 246.926 232.266C235.286 224.506 226.296 210.326 227.556 195.946C228.036 190.486 229.876 185.526 233.996 182.046C237.246 179.306 240.836 177.966 245.146 178.146C258.106 178.706 268.476 192.846 268.596 205.066C268.286 205.396 267.306 205.496 266.876 205.276C266.056 195.676 258.796 183.176 248.856 181.116C245.796 180.486 242.916 180.526 240.056 181.856C233.276 185.026 232.856 194.506 234.386 201.056C236.806 211.456 242.786 220.486 251.366 227.116H251.356Z" fill="#171717"/>
<path d="M92.0362 227.936C99.7862 238.346 115.546 233.856 124.236 227.266C132.736 220.806 138.816 211.786 141.346 201.436C142.976 194.776 142.636 184.946 135.646 181.806C132.846 180.546 130.066 180.476 127.056 181.086C117.076 183.086 109.716 195.666 108.946 205.286C108.646 205.526 107.456 205.386 107.186 205.006C107.316 198.116 110.536 191.186 115.126 186.096C122.206 178.246 133.486 174.726 142.086 182.256C146.036 185.716 147.766 190.506 148.246 195.796C149.556 210.246 140.586 224.436 128.916 232.226C123.396 235.916 117.456 237.946 110.796 238.516C104.906 239.016 99.0062 237.486 94.0562 234.246C84.9162 228.276 80.5262 217.336 80.0662 206.856C79.4562 193.246 83.1262 181.286 88.4262 168.896C94.0362 155.776 101.036 143.486 110.136 132.436C116.506 124.696 123.516 117.786 131.846 112.316C138.896 107.666 146.746 104.026 155.056 103.186C158.966 102.786 162.896 102.916 166.546 104.856C172.606 108.076 175.846 114.586 175.536 121.446C176.216 137.356 162.516 153.556 146.816 155.386C140.926 156.076 135.246 154.126 131.536 149.386C127.826 144.646 128.746 136.936 132.586 131.896C133.176 131.126 138.546 124.536 139.066 127.446C139.126 127.756 138.856 128.236 138.516 128.496C133.296 132.626 129.306 139.016 132.086 145.566C134.336 150.886 141.066 152.196 146.106 150.816C147.446 150.446 148.866 150.176 150.206 149.506C158.966 145.086 165.716 137.676 169.706 128.686C172.906 121.466 173.406 111.076 164.706 107.466C156.006 103.856 144.766 109.406 137.566 114.926C130.926 120.026 125.276 125.846 119.926 132.296C108.156 146.476 98.6962 163.156 92.5662 180.556C89.0262 190.616 86.8162 200.786 87.3362 211.416C87.6062 216.976 88.6962 223.466 92.0262 227.926L92.0362 227.936Z" fill="#171717"/>
<path d="M55.2677 467.033C50.4055 467.033 46.1347 466.047 42.4552 464.076C38.7757 462.061 35.9065 459.257 33.8478 455.666C31.8328 452.03 30.8253 447.781 30.8253 442.919C30.8253 439.239 31.4167 435.844 32.5994 432.734C33.7821 429.624 35.4247 426.93 37.5273 424.653C39.6298 422.331 42.1047 420.535 44.952 419.265C47.843 417.995 50.9531 417.359 54.2821 417.359C56.3847 417.359 58.3559 417.6 60.1956 418.082C62.0792 418.52 63.7437 419.046 65.1892 419.659C66.6785 420.272 67.9488 420.864 69.0001 421.433C70.0514 421.959 70.818 422.309 71.2998 422.484L71.5626 428.858H71.2998C70.5989 427.193 69.3724 425.66 67.6203 424.258C65.912 422.813 63.8751 421.652 61.5097 420.776C59.1443 419.856 56.6475 419.396 54.0193 419.396C50.1646 419.396 46.726 420.316 43.7036 422.156C40.7249 423.996 38.3814 426.536 36.6731 429.778C35.0086 433.019 34.1763 436.742 34.1763 440.948C34.1763 444.145 34.7019 447.19 35.7532 450.081C36.8045 452.972 38.3157 455.534 40.2869 457.768C42.2581 459.958 44.6015 461.689 47.3174 462.959C50.0332 464.229 53.0556 464.864 56.3847 464.864C60.0204 464.864 63.2837 464.054 66.1748 462.433C69.0658 460.813 71.2122 458.557 72.6139 455.666H72.8767L72.5482 461.842C72.1102 462.017 71.6502 462.214 71.1684 462.433C70.7304 462.652 70.2266 462.893 69.6572 463.156C66.8975 464.514 64.4007 465.499 62.1668 466.113C59.9328 466.726 57.6331 467.033 55.2677 467.033Z" fill="#171717"/>
<path d="M79.9031 465.981L79.7717 465.719C79.9469 464.755 80.0564 463.879 80.1002 463.09C80.1878 462.302 80.2535 461.426 80.2973 460.462C80.3411 459.455 80.363 458.25 80.363 456.848V427.544C80.363 426.098 80.3411 424.894 80.2973 423.93C80.2535 422.966 80.1878 422.09 80.1002 421.302C80.0564 420.469 79.9469 419.593 79.7717 418.674L79.9031 418.411C81.8304 418.411 83.7797 418.367 85.7509 418.279C87.7658 418.192 89.737 418.148 91.6643 418.148C94.5554 418.148 97.1836 418.564 99.549 419.396C101.958 420.185 103.864 421.433 105.265 423.141C106.711 424.85 107.434 427.106 107.434 429.909C107.434 432.537 106.777 434.903 105.462 437.005C104.148 439.108 102.374 440.816 100.14 442.13C97.9501 443.444 95.4752 444.255 92.7156 444.561C93.7231 445.7 94.6211 446.554 95.4095 447.124C96.2418 447.693 97.1617 448.088 98.1692 448.307L104.345 455.863C106.185 458.184 108.003 460.243 109.799 462.039C111.639 463.835 112.997 465.04 113.873 465.653L113.741 465.981H111.507C110.018 465.981 108.901 465.762 108.156 465.324C107.412 464.842 106.667 464.12 105.922 463.156L95.8695 450.803C94.2925 448.788 92.847 447.343 91.5329 446.467C90.2626 445.591 89.0361 445.065 87.8534 444.89C86.7145 444.671 85.5099 444.561 84.2396 444.561H83.5169V456.848C83.5169 458.25 83.5388 459.455 83.5826 460.462C83.6264 461.426 83.6921 462.302 83.7797 463.09C83.8673 463.879 83.9768 464.755 84.1082 465.719L83.9768 465.981H79.9031ZM89.8246 442.787C94.2488 442.787 97.6873 441.758 100.14 439.699C102.637 437.597 103.886 434.706 103.886 431.026C103.886 427.522 102.681 424.828 100.272 422.944C97.9063 421.017 94.4459 420.053 89.8903 420.053C89.2332 420.053 88.4448 420.075 87.5249 420.119C86.6488 420.163 85.8385 420.229 85.0938 420.316C84.3491 420.404 83.8235 420.491 83.5169 420.579V442.393C85.7071 442.656 87.8096 442.787 89.8246 442.787Z" fill="#171717"/>
<path d="M117.825 465.981L117.693 465.719C117.869 464.755 117.978 463.879 118.022 463.09C118.11 462.302 118.175 461.426 118.219 460.462C118.263 459.455 118.285 458.25 118.285 456.848V427.544C118.285 426.098 118.263 424.894 118.219 423.93C118.175 422.966 118.11 422.09 118.022 421.302C117.978 420.469 117.869 419.593 117.693 418.674L117.825 418.411H141.939V418.674L139.967 421.893C138.084 421.455 136.266 421.105 134.514 420.842C132.762 420.579 130.856 420.404 128.798 420.316C126.739 420.185 124.286 420.119 121.439 420.119V440.291C123.454 440.291 125.49 440.269 127.549 440.225C129.652 440.137 131.623 440.05 133.463 439.962C135.302 439.831 136.814 439.721 137.996 439.634L138.193 439.831L136.748 442.787C134.47 442.481 131.995 442.262 129.323 442.13C126.695 441.999 124.067 441.933 121.439 441.933V464.339C124.242 464.339 126.651 464.317 128.666 464.273C130.681 464.185 132.455 464.076 133.988 463.944C135.565 463.769 137.055 463.528 138.456 463.222C139.858 462.915 141.325 462.521 142.859 462.039L143.056 462.236L141.544 465.981H117.825Z" fill="#171717"/>
<path d="M170.18 467.033C165.406 467.033 161.2 466.025 157.565 464.01C153.929 461.995 151.082 459.192 149.023 455.6C147.008 452.008 146.001 447.89 146.001 443.247C146.001 439.655 146.614 436.304 147.84 433.194C149.067 430.041 150.775 427.281 152.965 424.916C155.156 422.55 157.696 420.71 160.587 419.396C163.478 418.038 166.588 417.359 169.917 417.359C174.692 417.359 178.875 418.389 182.467 420.448C186.103 422.506 188.95 425.354 191.009 428.989C193.067 432.625 194.097 436.808 194.097 441.539C194.097 445.087 193.484 448.394 192.257 451.46C191.031 454.527 189.322 457.243 187.132 459.608C184.942 461.929 182.401 463.747 179.51 465.061C176.619 466.376 173.509 467.033 170.18 467.033ZM171.1 464.733C174.955 464.733 178.328 463.813 181.219 461.973C184.153 460.134 186.431 457.571 188.052 454.286C189.717 450.957 190.549 447.124 190.549 442.787C190.549 439.546 189.979 436.545 188.84 433.786C187.745 430.982 186.212 428.529 184.241 426.427C182.314 424.28 180.036 422.616 177.408 421.433C174.78 420.25 171.954 419.659 168.932 419.659C165.296 419.659 162.011 420.579 159.076 422.419C156.141 424.215 153.798 426.777 152.045 430.106C150.337 433.391 149.483 437.29 149.483 441.802C149.483 444.999 150.031 448 151.126 450.803C152.221 453.563 153.754 455.994 155.725 458.097C157.696 460.199 159.996 461.842 162.624 463.025C165.252 464.163 168.078 464.733 171.1 464.733Z" fill="#171717"/>
<path d="M234.007 465.981C233.525 465.762 232.736 465.215 231.641 464.339C230.546 463.419 229.298 462.28 227.896 460.922C225.487 463.025 222.946 464.623 220.274 465.719C217.602 466.77 214.974 467.208 212.39 467.033C209.017 466.814 206.301 465.959 204.242 464.47C202.183 462.981 200.782 461.141 200.037 458.951C199.292 456.717 199.205 454.395 199.774 451.986C200.344 449.577 201.548 447.321 203.388 445.218C205.272 443.072 207.79 441.342 210.944 440.028C209.937 438.319 209.126 436.677 208.513 435.1C207.944 433.523 207.659 432.121 207.659 430.895C207.659 428.485 208.206 426.317 209.301 424.39C210.397 422.419 211.864 420.864 213.704 419.725C215.587 418.542 217.668 417.951 219.946 417.951C222.048 417.951 223.779 418.323 225.136 419.068C226.494 419.812 227.633 420.513 228.553 421.17L229.144 427.544H228.882C227.699 424.872 226.341 422.944 224.808 421.762C223.275 420.535 221.457 419.922 219.354 419.922C217.777 419.922 216.332 420.36 215.018 421.236C213.748 422.068 212.718 423.207 211.93 424.653C211.185 426.098 210.813 427.719 210.813 429.515C210.813 431.223 211.338 433.216 212.39 435.494C213.485 437.728 214.908 440.115 216.66 442.656C218.413 445.197 220.34 447.715 222.443 450.212C224.589 452.709 226.713 455.009 228.816 457.111C230.656 454.965 232.211 452.512 233.481 449.752C234.795 446.949 235.671 443.97 236.109 440.816H236.372L237.686 446.073C236.854 448.526 235.781 450.803 234.467 452.906C233.196 455.009 231.795 456.892 230.261 458.557C232.057 460.309 233.722 461.82 235.255 463.09C236.788 464.361 238.037 465.237 239 465.719V465.981H234.007ZM202.928 453.497C202.928 455.731 203.432 457.702 204.439 459.411C205.447 461.075 206.827 462.389 208.579 463.353C210.331 464.273 212.302 464.733 214.492 464.733C216.551 464.733 218.61 464.273 220.669 463.353C222.727 462.389 224.655 461.097 226.451 459.477C224.786 457.768 223.012 455.885 221.128 453.826C219.289 451.723 217.515 449.533 215.806 447.255C214.098 444.978 212.587 442.765 211.273 440.619C208.557 442.108 206.476 444.014 205.031 446.335C203.629 448.613 202.928 451.001 202.928 453.497Z" fill="#171717"/>
<path d="M267.27 467.033C262.408 467.033 258.137 466.047 254.457 464.076C250.778 462.061 247.909 459.257 245.85 455.666C243.835 452.03 242.828 447.781 242.828 442.919C242.828 439.239 243.419 435.844 244.602 432.734C245.784 429.624 247.427 426.93 249.53 424.653C251.632 422.331 254.107 420.535 256.954 419.265C259.845 417.995 262.955 417.359 266.284 417.359C268.387 417.359 270.358 417.6 272.198 418.082C274.081 418.52 275.746 419.046 277.191 419.659C278.681 420.272 279.951 420.864 281.002 421.433C282.054 421.959 282.82 422.309 283.302 422.484L283.565 428.858H283.302C282.601 427.193 281.375 425.66 279.623 424.258C277.914 422.813 275.877 421.652 273.512 420.776C271.147 419.856 268.65 419.396 266.022 419.396C262.167 419.396 258.728 420.316 255.706 422.156C252.727 423.996 250.384 426.536 248.675 429.778C247.011 433.019 246.179 436.742 246.179 440.948C246.179 444.145 246.704 447.19 247.755 450.081C248.807 452.972 250.318 455.534 252.289 457.768C254.26 459.958 256.604 461.689 259.32 462.959C262.035 464.229 265.058 464.864 268.387 464.864C272.023 464.864 275.286 464.054 278.177 462.433C281.068 460.813 283.214 458.557 284.616 455.666H284.879L284.55 461.842C284.112 462.017 283.652 462.214 283.171 462.433C282.733 462.652 282.229 462.893 281.659 463.156C278.9 464.514 276.403 465.499 274.169 466.113C271.935 466.726 269.635 467.033 267.27 467.033Z" fill="#171717"/>
<path d="M312.884 467.033C308.109 467.033 303.904 466.025 300.268 464.01C296.633 461.995 293.786 459.192 291.727 455.6C289.712 452.008 288.704 447.89 288.704 443.247C288.704 439.655 289.318 436.304 290.544 433.194C291.771 430.041 293.479 427.281 295.669 424.916C297.859 422.55 300.4 420.71 303.291 419.396C306.182 418.038 309.292 417.359 312.621 417.359C317.396 417.359 321.579 418.389 325.171 420.448C328.806 422.506 331.654 425.354 333.712 428.989C335.771 432.625 336.801 436.808 336.801 441.539C336.801 445.087 336.187 448.394 334.961 451.46C333.734 454.527 332.026 457.243 329.836 459.608C327.646 461.929 325.105 463.747 322.214 465.061C319.323 466.376 316.213 467.033 312.884 467.033ZM313.804 464.733C317.658 464.733 321.031 463.813 323.922 461.973C326.857 460.134 329.135 457.571 330.756 454.286C332.42 450.957 333.253 447.124 333.253 442.787C333.253 439.546 332.683 436.545 331.544 433.786C330.449 430.982 328.916 428.529 326.945 426.427C325.017 424.28 322.74 422.616 320.111 421.433C317.483 420.25 314.658 419.659 311.635 419.659C308 419.659 304.715 420.579 301.78 422.419C298.845 424.215 296.501 426.777 294.749 430.106C293.041 433.391 292.187 437.29 292.187 441.802C292.187 444.999 292.734 448 293.829 450.803C294.924 453.563 296.458 455.994 298.429 458.097C300.4 460.199 302.7 461.842 305.328 463.025C307.956 464.163 310.781 464.733 313.804 464.733Z" fill="#171717"/>
<path d="M341.527 468.018L338.307 464.799V464.536L341.527 461.316H341.79L345.009 464.536V464.799L341.79 468.018H341.527Z" fill="#171717"/>
</svg>
