<svg width="317" height="274" viewBox="0 0 317 274" fill="none" xmlns="http://www.w3.org/2000/svg">
<mask id="path-1-outside-1_249_219" maskUnits="userSpaceOnUse" x="-0.62793" y="-0.62793" width="318" height="275" fill="black">
<rect fill="white" x="-0.62793" y="-0.62793" width="318" height="275"/>
<path d="M47.6482 96.4493C38.2438 96.4493 29.9832 94.543 22.8664 90.7305C15.7495 86.8331 10.2001 81.4108 6.21804 74.4634C2.32073 67.4313 0.37207 59.213 0.37207 49.8087C0.37207 42.6918 1.51585 36.1257 3.8034 30.1103C6.09096 24.0948 9.26811 18.8843 13.3349 14.4787C17.4016 9.98827 22.1886 6.51457 27.6956 4.05757C33.2874 1.60057 39.3029 0.37207 45.7419 0.37207C49.8087 0.37207 53.6212 0.838053 57.1797 1.77002C60.8228 2.61726 64.0423 3.63395 66.8382 4.82009C69.7188 6.00623 72.1758 7.15 74.2092 8.25142C76.2426 9.26811 77.7253 9.94591 78.6573 10.2848L79.1656 22.6122H78.6573C77.3017 19.3927 74.9294 16.4273 71.5404 13.7161C68.2362 10.9202 64.2965 8.67504 59.7214 6.98056C55.1463 5.20135 50.317 4.31174 45.2336 4.31174C37.7778 4.31174 31.127 6.09095 25.281 9.64937C19.5197 13.2078 14.987 18.1218 11.6828 24.3914C8.46323 30.661 6.85347 37.8625 6.85347 45.9961C6.85347 52.1809 7.87016 58.0693 9.90355 63.6611C11.9369 69.2529 14.8599 74.2092 18.6725 78.5302C22.4851 82.7664 27.0178 86.113 32.2707 88.57C37.5236 91.027 43.3696 92.2555 49.8087 92.2555C56.8408 92.2555 63.1527 90.6881 68.7445 87.5533C74.3363 84.4185 78.4878 80.0552 81.199 74.4634H81.7073L81.0719 86.4095C80.2247 86.7484 79.3351 87.1297 78.4031 87.5533C77.5558 87.9769 76.5815 88.4429 75.4801 88.9512C70.1425 91.5777 65.3132 93.484 60.9923 94.6701C56.6713 95.8563 52.2233 96.4493 47.6482 96.4493Z"/>
<path d="M95.2976 94.416L95.0434 93.9076C95.3823 92.0437 95.5942 90.3492 95.6789 88.8242C95.8483 87.2991 95.9754 85.6046 96.0601 83.7407C96.1449 81.7921 96.1872 79.4621 96.1872 76.751V20.0704C96.1872 17.2745 96.1449 14.9446 96.0601 13.0807C95.9754 11.2168 95.8483 9.52228 95.6789 7.99725C95.5942 6.38749 95.3823 4.693 95.0434 2.91379L95.2976 2.40545C99.0255 2.40545 102.796 2.32073 106.608 2.15128C110.506 1.98183 114.318 1.8971 118.046 1.8971C123.638 1.8971 128.721 2.70198 133.296 4.31174C137.956 5.83678 141.642 8.25142 144.353 11.5557C147.149 14.8599 148.547 19.2232 148.547 24.6456C148.547 29.729 147.276 34.3041 144.734 38.3709C142.192 42.4376 138.761 45.7419 134.44 48.2836C130.204 50.8253 125.417 52.3927 120.079 52.9858C122.028 55.1886 123.765 56.8408 125.29 57.9422C126.9 59.0436 128.679 59.8061 130.628 60.2297L142.574 74.8447C146.132 79.335 149.648 83.3171 153.122 86.7908C156.68 90.2645 159.307 92.5944 161.001 93.7805L160.747 94.416H156.426C153.546 94.416 151.385 93.9923 149.945 93.1451C148.504 92.2131 147.064 90.8152 145.624 88.9512L126.18 65.059C123.13 61.1617 120.334 58.3658 117.792 56.6713C115.335 54.9768 112.963 53.9601 110.675 53.6212C108.472 53.1976 106.142 52.9858 103.685 52.9858H102.287V76.751C102.287 79.4621 102.33 81.7921 102.414 83.7407C102.499 85.6046 102.626 87.2991 102.796 88.8242C102.965 90.3492 103.177 92.0437 103.431 93.9076L103.177 94.416H95.2976ZM114.488 49.5545C123.045 49.5545 129.696 47.5635 134.44 43.5814C139.269 39.5147 141.684 33.9229 141.684 26.806C141.684 20.0281 139.354 14.8175 134.694 11.1744C130.119 7.44654 123.426 5.5826 114.615 5.5826C113.344 5.5826 111.819 5.62497 110.04 5.7097C108.345 5.79442 106.778 5.9215 105.337 6.09095C103.897 6.2604 102.88 6.42985 102.287 6.5993V48.792C106.524 49.3003 110.59 49.5545 114.488 49.5545Z"/>
<path d="M168.645 94.416L168.391 93.9076C168.73 92.0437 168.942 90.3492 169.027 88.8242C169.196 87.2991 169.323 85.6046 169.408 83.7407C169.493 81.7921 169.535 79.4621 169.535 76.751V20.0704C169.535 17.2745 169.493 14.9446 169.408 13.0807C169.323 11.2168 169.196 9.52228 169.027 7.99725C168.942 6.38749 168.73 4.693 168.391 2.91379L168.645 2.40545H215.286V2.91379L211.473 9.14103C207.83 8.29378 204.314 7.61599 200.925 7.10764C197.536 6.5993 193.851 6.2604 189.869 6.09095C185.887 5.83678 181.142 5.7097 175.635 5.7097V44.7252C179.532 44.7252 183.472 44.6828 187.454 44.5981C191.521 44.4287 195.333 44.2592 198.892 44.0898C202.45 43.8356 205.373 43.6238 207.661 43.4543L208.042 43.8356L205.246 49.5545C200.841 48.9614 196.054 48.5378 190.885 48.2836C185.802 48.0294 180.718 47.9024 175.635 47.9024V91.2388C181.057 91.2388 185.717 91.1964 189.615 91.1117C193.512 90.9423 196.943 90.7305 199.909 90.4763C202.959 90.1374 205.839 89.6714 208.55 89.0783C211.262 88.4853 214.1 87.7227 217.065 86.7908L217.446 87.172L214.523 94.416H168.645Z"/>
<path d="M269.91 96.4493C260.675 96.4493 252.542 94.5007 245.51 90.6034C238.478 86.7061 232.971 81.2837 228.988 74.3363C225.091 67.3889 223.143 59.4249 223.143 50.4441C223.143 43.4967 224.329 37.0153 226.701 30.9999C229.073 24.8997 232.377 19.5621 236.614 14.987C240.85 10.4119 245.764 6.85347 251.356 4.31174C256.947 1.68529 262.963 0.37207 269.402 0.37207C278.637 0.37207 286.728 2.36309 293.675 6.34513C300.708 10.3272 306.215 15.8342 310.197 22.8664C314.179 29.8985 316.17 37.9896 316.17 47.1398C316.17 54.0025 314.984 60.3992 312.611 66.3299C310.239 72.2606 306.935 77.5135 302.699 82.0886C298.462 86.579 293.548 90.095 287.957 92.6367C282.365 95.1785 276.349 96.4493 269.91 96.4493ZM271.689 92.0013C279.145 92.0013 285.669 90.2221 291.261 86.6637C296.937 83.1053 301.343 78.1489 304.478 71.7946C307.697 65.3556 309.307 57.9422 309.307 49.5545C309.307 43.2849 308.206 37.4813 306.003 32.1437C303.885 26.7213 300.919 21.9767 297.107 17.91C293.379 13.7585 288.973 10.539 283.89 8.25142C278.806 5.96387 273.342 4.82009 267.496 4.82009C260.464 4.82009 254.109 6.5993 248.433 10.1577C242.756 13.6314 238.223 18.5878 234.834 25.0268C231.53 31.3811 229.878 38.9216 229.878 47.6482C229.878 53.8331 230.937 59.6367 233.055 65.059C235.173 70.3966 238.139 75.0988 241.951 79.1656C245.764 83.2324 250.212 86.4095 255.295 88.6971C260.379 90.8999 265.844 92.0013 271.689 92.0013Z"/>
<path d="M83.9621 219.416C83.0301 218.992 81.5051 217.933 79.387 216.239C77.2689 214.46 74.8543 212.257 72.1431 209.63C67.4833 213.697 62.5692 216.79 57.4011 218.908C52.2329 220.941 47.1494 221.788 42.1507 221.449C35.6269 221.026 30.374 219.374 26.392 216.493C22.41 213.612 19.6988 210.054 18.2585 205.818C16.8182 201.497 16.6487 197.006 17.7501 192.347C18.8515 187.687 21.1815 183.323 24.7399 179.257C28.383 175.105 33.2547 171.759 39.3548 169.217C37.4062 165.913 35.8388 162.735 34.6526 159.685C33.5512 156.635 33.0005 153.924 33.0005 151.552C33.0005 146.892 34.0595 142.698 36.1777 138.97C38.2958 135.158 41.134 132.15 44.6924 129.947C48.3356 127.66 52.36 126.516 56.7656 126.516C60.8324 126.516 64.179 127.236 66.8055 128.676C69.4319 130.117 71.6347 131.472 73.4139 132.743L74.5577 145.07H74.0494C71.7618 139.902 69.1354 136.174 66.17 133.887C63.2047 131.515 59.6886 130.328 55.6219 130.328C52.5718 130.328 49.7759 131.176 47.2342 132.87C44.7772 134.48 42.7861 136.683 41.2611 139.479C39.8208 142.275 39.1006 145.409 39.1006 148.883C39.1006 152.187 40.1173 156.042 42.1507 160.448C44.2688 164.769 47.0224 169.386 50.4113 174.3C53.8003 179.214 57.5282 184.086 61.5949 188.915C65.7464 193.745 69.8555 198.193 73.9223 202.259C77.4807 198.108 80.4884 193.363 82.9454 188.026C85.4872 182.603 87.1816 176.842 88.0289 170.742H88.5372L91.079 180.909C89.4692 185.653 87.3935 190.059 84.8517 194.126C82.3947 198.193 79.6835 201.836 76.7182 205.055C80.1919 208.444 83.4114 211.367 86.3768 213.824C89.3421 216.281 91.7567 217.976 93.6207 218.908V219.416H83.9621ZM23.8503 195.27C23.8503 199.59 24.8246 203.403 26.7733 206.707C28.7219 209.927 31.3907 212.469 34.7797 214.333C38.1687 216.112 41.9813 217.001 46.2175 217.001C50.1995 217.001 54.1816 216.112 58.1636 214.333C62.1456 212.469 65.8735 209.969 69.3472 206.834C66.1277 203.53 62.6963 199.887 59.0532 195.905C55.4948 191.838 52.0634 187.602 48.7592 183.196C45.455 178.791 42.532 174.512 39.9902 170.361C34.7373 173.241 30.7129 176.927 27.917 181.417C25.2059 185.823 23.8503 190.44 23.8503 195.27Z"/>
<path d="M148.3 221.449C138.895 221.449 130.635 219.543 123.518 215.73C116.401 211.833 110.851 206.411 106.869 199.463C102.972 192.431 101.023 184.213 101.023 174.809C101.023 167.692 102.167 161.126 104.455 155.11C106.742 149.095 109.919 143.884 113.986 139.479C118.053 134.988 122.84 131.515 128.347 129.058C133.939 126.601 139.954 125.372 146.393 125.372C150.46 125.372 154.273 125.838 157.831 126.77C161.474 127.617 164.694 128.634 167.49 129.82C170.37 131.006 172.827 132.15 174.861 133.251C176.894 134.268 178.377 134.946 179.309 135.285L179.817 147.612H179.309C177.953 144.393 175.581 141.427 172.192 138.716C168.888 135.92 164.948 133.675 160.373 131.981C155.798 130.201 150.968 129.312 145.885 129.312C138.429 129.312 131.778 131.091 125.932 134.649C120.171 138.208 115.638 143.122 112.334 149.391C109.115 155.661 107.505 162.863 107.505 170.996C107.505 177.181 108.522 183.069 110.555 188.661C112.588 194.253 115.511 199.209 119.324 203.53C123.136 207.766 127.669 211.113 132.922 213.57C138.175 216.027 144.021 217.255 150.46 217.255C157.492 217.255 163.804 215.688 169.396 212.553C174.988 209.419 179.139 205.055 181.85 199.463H182.359L181.723 211.41C180.876 211.748 179.986 212.13 179.054 212.553C178.207 212.977 177.233 213.443 176.131 213.951C170.794 216.578 165.965 218.484 161.644 219.67C157.323 220.856 152.875 221.449 148.3 221.449Z"/>
<path d="M236.525 221.449C227.29 221.449 219.157 219.501 212.125 215.603C205.093 211.706 199.586 206.284 195.603 199.336C191.706 192.389 189.758 184.425 189.758 175.444C189.758 168.497 190.944 162.015 193.316 156C195.688 149.9 198.992 144.562 203.229 139.987C207.465 135.412 212.379 131.853 217.971 129.312C223.562 126.685 229.578 125.372 236.017 125.372C245.252 125.372 253.343 127.363 260.29 131.345C267.323 135.327 272.83 140.834 276.812 147.866C280.794 154.898 282.785 162.99 282.785 172.14C282.785 179.003 281.599 185.399 279.226 191.33C276.854 197.261 273.55 202.513 269.314 207.089C265.077 211.579 260.163 215.095 254.572 217.637C248.98 220.178 242.964 221.449 236.525 221.449ZM238.304 217.001C245.76 217.001 252.284 215.222 257.876 211.664C263.552 208.105 267.958 203.149 271.093 196.795C274.312 190.356 275.922 182.942 275.922 174.554C275.922 168.285 274.821 162.481 272.618 157.144C270.5 151.721 267.534 146.977 263.722 142.91C259.994 138.758 255.588 135.539 250.505 133.251C245.421 130.964 239.957 129.82 234.111 129.82C227.079 129.82 220.724 131.599 215.048 135.158C209.371 138.631 204.838 143.588 201.449 150.027C198.145 156.381 196.493 163.922 196.493 172.648C196.493 178.833 197.552 184.637 199.67 190.059C201.788 195.397 204.754 200.099 208.566 204.166C212.379 208.232 216.827 211.41 221.91 213.697C226.994 215.9 232.459 217.001 238.304 217.001Z"/>
<path d="M291.926 223.356L285.699 217.128V216.62L291.926 210.393H292.434L298.662 216.62V217.128L292.434 223.356H291.926Z"/>
<path d="M6.10288 273.069L6.03813 272.94C6.45903 271.191 6.49141 269.864 6.49141 267.598V252.639C6.49141 251.539 5.77911 250.405 4.38691 249.726V249.596H7.46272L18.1795 269.605L28.7344 249.596H31.3893V249.726C29.7057 250.47 29.6733 251.377 29.6733 253.676V268.569C29.6733 270.673 29.7381 271.548 29.9647 272.94L29.8999 273.069H27.8602L27.7954 272.94C28.0545 271.548 28.1192 270.673 28.1192 268.569V253.06L17.9529 272.389H17.8233L7.59222 253.222V267.598C7.59222 269.864 7.59222 271.256 7.98075 273.005L7.91599 273.069H6.10288Z"/>
<path d="M37.1026 273.069V272.94C37.8796 271.742 38.8185 269.929 39.5308 268.213L45.5206 253.643C45.7472 253.06 46.071 252.219 46.071 251.862C46.071 251.215 45.2939 250.276 44.7111 249.758V249.628H46.7509L54.8127 267.857C55.8164 270.091 56.5287 271.612 57.3382 272.94V273.069H54.5214C54.5214 271.742 54.3918 270.738 53.3558 268.375L52.2226 265.849H41.7001L40.664 268.375C39.5956 270.997 39.4984 272.066 39.4661 273.069H37.1026ZM42.0562 264.943H51.8341L46.7509 253.514L42.0562 264.943Z"/>
<path d="M64.0349 273.069L63.9701 272.94C64.1968 271.548 64.2615 270.673 64.2615 268.569V254.129C64.2615 252.024 64.1968 251.15 63.9701 249.758L64.0349 249.628C65.9451 249.628 67.9201 249.499 69.8303 249.499C74.0717 249.499 77.6008 251.183 77.6008 255.294C77.6008 259.18 74.3955 262.061 70.3484 262.514C71.3521 263.648 72.032 264.166 73.0357 264.36L76.0791 268.083C77.8922 270.382 79.8996 272.325 80.7738 272.907L80.709 273.069H79.6082C78.1188 273.069 77.6008 272.616 76.8561 271.677L71.9025 265.59C69.5389 262.612 68.0496 262.514 66.1717 262.514H65.8156V268.569C65.8156 270.673 65.8803 271.548 66.107 272.94L66.0422 273.069H64.0349ZM68.9238 261.64C73.2947 261.64 75.8525 259.471 75.8525 255.845C75.8525 252.38 73.4242 250.438 68.9562 250.438C67.9525 250.438 66.2365 250.567 65.8156 250.697V261.446C66.884 261.576 67.9525 261.64 68.9238 261.64Z"/>
<path d="M101.953 273.069L93.2761 264.716C90.8154 262.32 89.9089 261.673 88.7109 261.673V268.569C88.7109 270.673 88.7757 271.548 89.0023 272.94L88.9375 273.069H86.9302L86.8654 272.94C87.0921 271.548 87.1568 270.673 87.1568 268.569V254.129C87.1568 252.024 87.0921 251.15 86.8654 249.758L86.9302 249.628H88.9375L89.0023 249.758C88.7757 251.15 88.7109 252.024 88.7109 254.129V260.345L97.3556 253.255C99.2982 251.668 100.237 250.697 100.982 249.628H103.54V249.758C101.694 251.021 100.302 252.121 98.3269 253.74L89.6175 260.896C91.1392 261.867 92.499 262.029 92.7257 262.029L96.0281 265.202C101.824 270.771 103.313 272.066 104.738 272.875L104.867 273.069H101.953Z"/>
<path d="M111.027 273.069L110.962 272.94C111.189 271.548 111.254 270.673 111.254 268.569V254.129C111.254 252.024 111.189 251.15 110.962 249.758L111.027 249.628H122.909V249.758L121.938 251.344C119.154 250.697 117.017 250.47 112.808 250.47V260.41C115.754 260.41 119.218 260.248 120.967 260.086L121.064 260.183L120.352 261.64C118.085 261.349 115.398 261.219 112.808 261.219V272.26C118.344 272.26 120.319 272.066 123.363 271.127L123.46 271.224L122.715 273.069H111.027Z"/>
<path d="M136.34 273.037L136.275 272.907C136.502 271.515 136.567 270.641 136.567 268.537V250.47C132.552 250.47 130.383 250.891 128.019 251.409L127.922 251.344L128.472 249.564C129.606 249.628 130.739 249.661 131.904 249.661H142.783C143.949 249.661 145.082 249.628 146.215 249.564L146.765 251.344L146.668 251.442C144.272 250.891 142.135 250.47 138.121 250.47V268.537C138.121 270.641 138.185 271.515 138.412 272.907L138.347 273.037H136.34Z"/>
<path d="M153.687 273.069L153.623 272.94C153.849 271.548 153.914 270.673 153.914 268.569V254.129C153.914 252.024 153.849 251.15 153.623 249.758L153.687 249.628H155.695L155.76 249.758C155.533 251.15 155.468 252.024 155.468 254.129V268.569C155.468 270.673 155.533 271.548 155.76 272.94L155.695 273.069H153.687Z"/>
<path d="M183.951 273.102L166.662 253.546V267.598C166.662 269.832 166.694 271.224 167.05 272.94V273.069H165.172L165.108 272.94C165.529 271.224 165.561 269.832 165.561 267.598V253.255C165.561 251.701 164.266 250.244 163.197 249.758V249.628H165.399L182.98 269.475V255.1C182.98 252.866 182.947 251.506 182.559 249.79V249.628H184.501V249.79C184.113 251.506 184.081 252.866 184.081 255.1V273.102H183.951Z"/>
<path d="M205.511 273.102C197.741 273.102 192.463 268.472 192.463 261.608C192.463 254.42 197.482 249.11 204.216 249.11C208.652 249.11 212.051 251.312 213.12 251.668L213.249 254.873H213.12C211.954 252.413 208.198 250.114 204.086 250.114C198.42 250.114 194.179 254.582 194.179 260.539C194.179 267.015 198.906 272.033 206.256 272.033C207.745 272.033 210.627 271.71 212.084 271.321V262.385C212.084 260.28 212.019 259.406 211.792 258.014L211.857 257.885H213.832L213.897 258.014C213.67 259.406 213.605 260.28 213.605 262.385V269.767C213.605 271.289 213.864 271.774 214.738 271.936L214.706 272.066C212.731 272.098 209.526 273.102 205.511 273.102Z"/>
<path d="M233.222 273.069L233.157 272.94C233.384 271.548 233.449 270.673 233.449 268.569V254.129C233.449 252.024 233.384 251.15 233.157 249.758L233.222 249.628H245.558V249.758L244.554 251.377C241.705 250.6 238.823 250.438 235.003 250.438V260.928C238.305 260.928 241.932 260.798 243.486 260.637L243.583 260.734L243.065 262.158C240.701 261.899 237.528 261.737 235.003 261.737V268.569C235.003 270.673 235.068 271.548 235.294 272.94L235.23 273.069H233.222Z"/>
<path d="M252.481 273.069L252.417 272.94C252.643 271.548 252.708 270.673 252.708 268.569V254.129C252.708 252.024 252.643 251.15 252.417 249.758L252.481 249.628H254.489L254.553 249.758C254.327 251.15 254.262 252.024 254.262 254.129V268.569C254.262 270.673 254.327 271.548 254.553 272.94L254.489 273.069H252.481Z"/>
<path d="M263.804 273.069L263.74 272.94C263.966 271.548 264.031 270.673 264.031 268.569V254.129C264.031 252.024 263.966 251.15 263.74 249.758L263.804 249.628C265.715 249.628 267.69 249.499 269.6 249.499C273.841 249.499 277.37 251.183 277.37 255.294C277.37 259.18 274.165 262.061 270.118 262.514C271.122 263.648 271.802 264.166 272.805 264.36L275.849 268.083C277.662 270.382 279.669 272.325 280.543 272.907L280.479 273.069H279.378C277.888 273.069 277.37 272.616 276.626 271.677L271.672 265.59C269.309 262.612 267.819 262.514 265.941 262.514H265.585V268.569C265.585 270.673 265.65 271.548 265.877 272.94L265.812 273.069H263.804ZM268.693 261.64C273.064 261.64 275.622 259.471 275.622 255.845C275.622 252.38 273.194 250.438 268.726 250.438C267.722 250.438 266.006 250.567 265.585 250.697V261.446C266.654 261.576 267.722 261.64 268.693 261.64Z"/>
<path d="M286.7 273.069L286.635 272.94C287.056 271.191 287.088 269.864 287.088 267.598V252.639C287.088 251.539 286.376 250.405 284.984 249.726V249.596H288.06L298.776 269.605L309.331 249.596H311.986V249.726C310.303 250.47 310.27 251.377 310.27 253.676V268.569C310.27 270.673 310.335 271.548 310.562 272.94L310.497 273.069H308.457L308.392 272.94C308.651 271.548 308.716 270.673 308.716 268.569V253.06L298.55 272.389H298.42L288.189 253.222V267.598C288.189 269.864 288.189 271.256 288.578 273.005L288.513 273.069H286.7Z"/>
</mask>
<path d="M47.6482 96.4493C38.2438 96.4493 29.9832 94.543 22.8664 90.7305C15.7495 86.8331 10.2001 81.4108 6.21804 74.4634C2.32073 67.4313 0.37207 59.213 0.37207 49.8087C0.37207 42.6918 1.51585 36.1257 3.8034 30.1103C6.09096 24.0948 9.26811 18.8843 13.3349 14.4787C17.4016 9.98827 22.1886 6.51457 27.6956 4.05757C33.2874 1.60057 39.3029 0.37207 45.7419 0.37207C49.8087 0.37207 53.6212 0.838053 57.1797 1.77002C60.8228 2.61726 64.0423 3.63395 66.8382 4.82009C69.7188 6.00623 72.1758 7.15 74.2092 8.25142C76.2426 9.26811 77.7253 9.94591 78.6573 10.2848L79.1656 22.6122H78.6573C77.3017 19.3927 74.9294 16.4273 71.5404 13.7161C68.2362 10.9202 64.2965 8.67504 59.7214 6.98056C55.1463 5.20135 50.317 4.31174 45.2336 4.31174C37.7778 4.31174 31.127 6.09095 25.281 9.64937C19.5197 13.2078 14.987 18.1218 11.6828 24.3914C8.46323 30.661 6.85347 37.8625 6.85347 45.9961C6.85347 52.1809 7.87016 58.0693 9.90355 63.6611C11.9369 69.2529 14.8599 74.2092 18.6725 78.5302C22.4851 82.7664 27.0178 86.113 32.2707 88.57C37.5236 91.027 43.3696 92.2555 49.8087 92.2555C56.8408 92.2555 63.1527 90.6881 68.7445 87.5533C74.3363 84.4185 78.4878 80.0552 81.199 74.4634H81.7073L81.0719 86.4095C80.2247 86.7484 79.3351 87.1297 78.4031 87.5533C77.5558 87.9769 76.5815 88.4429 75.4801 88.9512C70.1425 91.5777 65.3132 93.484 60.9923 94.6701C56.6713 95.8563 52.2233 96.4493 47.6482 96.4493Z" fill="#171717"/>
<path d="M95.2976 94.416L95.0434 93.9076C95.3823 92.0437 95.5942 90.3492 95.6789 88.8242C95.8483 87.2991 95.9754 85.6046 96.0601 83.7407C96.1449 81.7921 96.1872 79.4621 96.1872 76.751V20.0704C96.1872 17.2745 96.1449 14.9446 96.0601 13.0807C95.9754 11.2168 95.8483 9.52228 95.6789 7.99725C95.5942 6.38749 95.3823 4.693 95.0434 2.91379L95.2976 2.40545C99.0255 2.40545 102.796 2.32073 106.608 2.15128C110.506 1.98183 114.318 1.8971 118.046 1.8971C123.638 1.8971 128.721 2.70198 133.296 4.31174C137.956 5.83678 141.642 8.25142 144.353 11.5557C147.149 14.8599 148.547 19.2232 148.547 24.6456C148.547 29.729 147.276 34.3041 144.734 38.3709C142.192 42.4376 138.761 45.7419 134.44 48.2836C130.204 50.8253 125.417 52.3927 120.079 52.9858C122.028 55.1886 123.765 56.8408 125.29 57.9422C126.9 59.0436 128.679 59.8061 130.628 60.2297L142.574 74.8447C146.132 79.335 149.648 83.3171 153.122 86.7908C156.68 90.2645 159.307 92.5944 161.001 93.7805L160.747 94.416H156.426C153.546 94.416 151.385 93.9923 149.945 93.1451C148.504 92.2131 147.064 90.8152 145.624 88.9512L126.18 65.059C123.13 61.1617 120.334 58.3658 117.792 56.6713C115.335 54.9768 112.963 53.9601 110.675 53.6212C108.472 53.1976 106.142 52.9858 103.685 52.9858H102.287V76.751C102.287 79.4621 102.33 81.7921 102.414 83.7407C102.499 85.6046 102.626 87.2991 102.796 88.8242C102.965 90.3492 103.177 92.0437 103.431 93.9076L103.177 94.416H95.2976ZM114.488 49.5545C123.045 49.5545 129.696 47.5635 134.44 43.5814C139.269 39.5147 141.684 33.9229 141.684 26.806C141.684 20.0281 139.354 14.8175 134.694 11.1744C130.119 7.44654 123.426 5.5826 114.615 5.5826C113.344 5.5826 111.819 5.62497 110.04 5.7097C108.345 5.79442 106.778 5.9215 105.337 6.09095C103.897 6.2604 102.88 6.42985 102.287 6.5993V48.792C106.524 49.3003 110.59 49.5545 114.488 49.5545Z" fill="#171717"/>
<path d="M168.645 94.416L168.391 93.9076C168.73 92.0437 168.942 90.3492 169.027 88.8242C169.196 87.2991 169.323 85.6046 169.408 83.7407C169.493 81.7921 169.535 79.4621 169.535 76.751V20.0704C169.535 17.2745 169.493 14.9446 169.408 13.0807C169.323 11.2168 169.196 9.52228 169.027 7.99725C168.942 6.38749 168.73 4.693 168.391 2.91379L168.645 2.40545H215.286V2.91379L211.473 9.14103C207.83 8.29378 204.314 7.61599 200.925 7.10764C197.536 6.5993 193.851 6.2604 189.869 6.09095C185.887 5.83678 181.142 5.7097 175.635 5.7097V44.7252C179.532 44.7252 183.472 44.6828 187.454 44.5981C191.521 44.4287 195.333 44.2592 198.892 44.0898C202.45 43.8356 205.373 43.6238 207.661 43.4543L208.042 43.8356L205.246 49.5545C200.841 48.9614 196.054 48.5378 190.885 48.2836C185.802 48.0294 180.718 47.9024 175.635 47.9024V91.2388C181.057 91.2388 185.717 91.1964 189.615 91.1117C193.512 90.9423 196.943 90.7305 199.909 90.4763C202.959 90.1374 205.839 89.6714 208.55 89.0783C211.262 88.4853 214.1 87.7227 217.065 86.7908L217.446 87.172L214.523 94.416H168.645Z" fill="#171717"/>
<path d="M269.91 96.4493C260.675 96.4493 252.542 94.5007 245.51 90.6034C238.478 86.7061 232.971 81.2837 228.988 74.3363C225.091 67.3889 223.143 59.4249 223.143 50.4441C223.143 43.4967 224.329 37.0153 226.701 30.9999C229.073 24.8997 232.377 19.5621 236.614 14.987C240.85 10.4119 245.764 6.85347 251.356 4.31174C256.947 1.68529 262.963 0.37207 269.402 0.37207C278.637 0.37207 286.728 2.36309 293.675 6.34513C300.708 10.3272 306.215 15.8342 310.197 22.8664C314.179 29.8985 316.17 37.9896 316.17 47.1398C316.17 54.0025 314.984 60.3992 312.611 66.3299C310.239 72.2606 306.935 77.5135 302.699 82.0886C298.462 86.579 293.548 90.095 287.957 92.6367C282.365 95.1785 276.349 96.4493 269.91 96.4493ZM271.689 92.0013C279.145 92.0013 285.669 90.2221 291.261 86.6637C296.937 83.1053 301.343 78.1489 304.478 71.7946C307.697 65.3556 309.307 57.9422 309.307 49.5545C309.307 43.2849 308.206 37.4813 306.003 32.1437C303.885 26.7213 300.919 21.9767 297.107 17.91C293.379 13.7585 288.973 10.539 283.89 8.25142C278.806 5.96387 273.342 4.82009 267.496 4.82009C260.464 4.82009 254.109 6.5993 248.433 10.1577C242.756 13.6314 238.223 18.5878 234.834 25.0268C231.53 31.3811 229.878 38.9216 229.878 47.6482C229.878 53.8331 230.937 59.6367 233.055 65.059C235.173 70.3966 238.139 75.0988 241.951 79.1656C245.764 83.2324 250.212 86.4095 255.295 88.6971C260.379 90.8999 265.844 92.0013 271.689 92.0013Z" fill="#171717"/>
<path d="M83.9621 219.416C83.0301 218.992 81.5051 217.933 79.387 216.239C77.2689 214.46 74.8543 212.257 72.1431 209.63C67.4833 213.697 62.5692 216.79 57.4011 218.908C52.2329 220.941 47.1494 221.788 42.1507 221.449C35.6269 221.026 30.374 219.374 26.392 216.493C22.41 213.612 19.6988 210.054 18.2585 205.818C16.8182 201.497 16.6487 197.006 17.7501 192.347C18.8515 187.687 21.1815 183.323 24.7399 179.257C28.383 175.105 33.2547 171.759 39.3548 169.217C37.4062 165.913 35.8388 162.735 34.6526 159.685C33.5512 156.635 33.0005 153.924 33.0005 151.552C33.0005 146.892 34.0595 142.698 36.1777 138.97C38.2958 135.158 41.134 132.15 44.6924 129.947C48.3356 127.66 52.36 126.516 56.7656 126.516C60.8324 126.516 64.179 127.236 66.8055 128.676C69.4319 130.117 71.6347 131.472 73.4139 132.743L74.5577 145.07H74.0494C71.7618 139.902 69.1354 136.174 66.17 133.887C63.2047 131.515 59.6886 130.328 55.6219 130.328C52.5718 130.328 49.7759 131.176 47.2342 132.87C44.7772 134.48 42.7861 136.683 41.2611 139.479C39.8208 142.275 39.1006 145.409 39.1006 148.883C39.1006 152.187 40.1173 156.042 42.1507 160.448C44.2688 164.769 47.0224 169.386 50.4113 174.3C53.8003 179.214 57.5282 184.086 61.5949 188.915C65.7464 193.745 69.8555 198.193 73.9223 202.259C77.4807 198.108 80.4884 193.363 82.9454 188.026C85.4872 182.603 87.1816 176.842 88.0289 170.742H88.5372L91.079 180.909C89.4692 185.653 87.3935 190.059 84.8517 194.126C82.3947 198.193 79.6835 201.836 76.7182 205.055C80.1919 208.444 83.4114 211.367 86.3768 213.824C89.3421 216.281 91.7567 217.976 93.6207 218.908V219.416H83.9621ZM23.8503 195.27C23.8503 199.59 24.8246 203.403 26.7733 206.707C28.7219 209.927 31.3907 212.469 34.7797 214.333C38.1687 216.112 41.9813 217.001 46.2175 217.001C50.1995 217.001 54.1816 216.112 58.1636 214.333C62.1456 212.469 65.8735 209.969 69.3472 206.834C66.1277 203.53 62.6963 199.887 59.0532 195.905C55.4948 191.838 52.0634 187.602 48.7592 183.196C45.455 178.791 42.532 174.512 39.9902 170.361C34.7373 173.241 30.7129 176.927 27.917 181.417C25.2059 185.823 23.8503 190.44 23.8503 195.27Z" fill="#171717"/>
<path d="M148.3 221.449C138.895 221.449 130.635 219.543 123.518 215.73C116.401 211.833 110.851 206.411 106.869 199.463C102.972 192.431 101.023 184.213 101.023 174.809C101.023 167.692 102.167 161.126 104.455 155.11C106.742 149.095 109.919 143.884 113.986 139.479C118.053 134.988 122.84 131.515 128.347 129.058C133.939 126.601 139.954 125.372 146.393 125.372C150.46 125.372 154.273 125.838 157.831 126.77C161.474 127.617 164.694 128.634 167.49 129.82C170.37 131.006 172.827 132.15 174.861 133.251C176.894 134.268 178.377 134.946 179.309 135.285L179.817 147.612H179.309C177.953 144.393 175.581 141.427 172.192 138.716C168.888 135.92 164.948 133.675 160.373 131.981C155.798 130.201 150.968 129.312 145.885 129.312C138.429 129.312 131.778 131.091 125.932 134.649C120.171 138.208 115.638 143.122 112.334 149.391C109.115 155.661 107.505 162.863 107.505 170.996C107.505 177.181 108.522 183.069 110.555 188.661C112.588 194.253 115.511 199.209 119.324 203.53C123.136 207.766 127.669 211.113 132.922 213.57C138.175 216.027 144.021 217.255 150.46 217.255C157.492 217.255 163.804 215.688 169.396 212.553C174.988 209.419 179.139 205.055 181.85 199.463H182.359L181.723 211.41C180.876 211.748 179.986 212.13 179.054 212.553C178.207 212.977 177.233 213.443 176.131 213.951C170.794 216.578 165.965 218.484 161.644 219.67C157.323 220.856 152.875 221.449 148.3 221.449Z" fill="#171717"/>
<path d="M236.525 221.449C227.29 221.449 219.157 219.501 212.125 215.603C205.093 211.706 199.586 206.284 195.603 199.336C191.706 192.389 189.758 184.425 189.758 175.444C189.758 168.497 190.944 162.015 193.316 156C195.688 149.9 198.992 144.562 203.229 139.987C207.465 135.412 212.379 131.853 217.971 129.312C223.562 126.685 229.578 125.372 236.017 125.372C245.252 125.372 253.343 127.363 260.29 131.345C267.323 135.327 272.83 140.834 276.812 147.866C280.794 154.898 282.785 162.99 282.785 172.14C282.785 179.003 281.599 185.399 279.226 191.33C276.854 197.261 273.55 202.513 269.314 207.089C265.077 211.579 260.163 215.095 254.572 217.637C248.98 220.178 242.964 221.449 236.525 221.449ZM238.304 217.001C245.76 217.001 252.284 215.222 257.876 211.664C263.552 208.105 267.958 203.149 271.093 196.795C274.312 190.356 275.922 182.942 275.922 174.554C275.922 168.285 274.821 162.481 272.618 157.144C270.5 151.721 267.534 146.977 263.722 142.91C259.994 138.758 255.588 135.539 250.505 133.251C245.421 130.964 239.957 129.82 234.111 129.82C227.079 129.82 220.724 131.599 215.048 135.158C209.371 138.631 204.838 143.588 201.449 150.027C198.145 156.381 196.493 163.922 196.493 172.648C196.493 178.833 197.552 184.637 199.67 190.059C201.788 195.397 204.754 200.099 208.566 204.166C212.379 208.232 216.827 211.41 221.91 213.697C226.994 215.9 232.459 217.001 238.304 217.001Z" fill="#171717"/>
<path d="M291.926 223.356L285.699 217.128V216.62L291.926 210.393H292.434L298.662 216.62V217.128L292.434 223.356H291.926Z" fill="#171717"/>
<path d="M6.10288 273.069L6.03813 272.94C6.45903 271.191 6.49141 269.864 6.49141 267.598V252.639C6.49141 251.539 5.77911 250.405 4.38691 249.726V249.596H7.46272L18.1795 269.605L28.7344 249.596H31.3893V249.726C29.7057 250.47 29.6733 251.377 29.6733 253.676V268.569C29.6733 270.673 29.7381 271.548 29.9647 272.94L29.8999 273.069H27.8602L27.7954 272.94C28.0545 271.548 28.1192 270.673 28.1192 268.569V253.06L17.9529 272.389H17.8233L7.59222 253.222V267.598C7.59222 269.864 7.59222 271.256 7.98075 273.005L7.91599 273.069H6.10288Z" fill="#171717"/>
<path d="M37.1026 273.069V272.94C37.8796 271.742 38.8185 269.929 39.5308 268.213L45.5206 253.643C45.7472 253.06 46.071 252.219 46.071 251.862C46.071 251.215 45.2939 250.276 44.7111 249.758V249.628H46.7509L54.8127 267.857C55.8164 270.091 56.5287 271.612 57.3382 272.94V273.069H54.5214C54.5214 271.742 54.3918 270.738 53.3558 268.375L52.2226 265.849H41.7001L40.664 268.375C39.5956 270.997 39.4984 272.066 39.4661 273.069H37.1026ZM42.0562 264.943H51.8341L46.7509 253.514L42.0562 264.943Z" fill="#171717"/>
<path d="M64.0349 273.069L63.9701 272.94C64.1968 271.548 64.2615 270.673 64.2615 268.569V254.129C64.2615 252.024 64.1968 251.15 63.9701 249.758L64.0349 249.628C65.9451 249.628 67.9201 249.499 69.8303 249.499C74.0717 249.499 77.6008 251.183 77.6008 255.294C77.6008 259.18 74.3955 262.061 70.3484 262.514C71.3521 263.648 72.032 264.166 73.0357 264.36L76.0791 268.083C77.8922 270.382 79.8996 272.325 80.7738 272.907L80.709 273.069H79.6082C78.1188 273.069 77.6008 272.616 76.8561 271.677L71.9025 265.59C69.5389 262.612 68.0496 262.514 66.1717 262.514H65.8156V268.569C65.8156 270.673 65.8803 271.548 66.107 272.94L66.0422 273.069H64.0349ZM68.9238 261.64C73.2947 261.64 75.8525 259.471 75.8525 255.845C75.8525 252.38 73.4242 250.438 68.9562 250.438C67.9525 250.438 66.2365 250.567 65.8156 250.697V261.446C66.884 261.576 67.9525 261.64 68.9238 261.64Z" fill="#171717"/>
<path d="M101.953 273.069L93.2761 264.716C90.8154 262.32 89.9089 261.673 88.7109 261.673V268.569C88.7109 270.673 88.7757 271.548 89.0023 272.94L88.9375 273.069H86.9302L86.8654 272.94C87.0921 271.548 87.1568 270.673 87.1568 268.569V254.129C87.1568 252.024 87.0921 251.15 86.8654 249.758L86.9302 249.628H88.9375L89.0023 249.758C88.7757 251.15 88.7109 252.024 88.7109 254.129V260.345L97.3556 253.255C99.2982 251.668 100.237 250.697 100.982 249.628H103.54V249.758C101.694 251.021 100.302 252.121 98.3269 253.74L89.6175 260.896C91.1392 261.867 92.499 262.029 92.7257 262.029L96.0281 265.202C101.824 270.771 103.313 272.066 104.738 272.875L104.867 273.069H101.953Z" fill="#171717"/>
<path d="M111.027 273.069L110.962 272.94C111.189 271.548 111.254 270.673 111.254 268.569V254.129C111.254 252.024 111.189 251.15 110.962 249.758L111.027 249.628H122.909V249.758L121.938 251.344C119.154 250.697 117.017 250.47 112.808 250.47V260.41C115.754 260.41 119.218 260.248 120.967 260.086L121.064 260.183L120.352 261.64C118.085 261.349 115.398 261.219 112.808 261.219V272.26C118.344 272.26 120.319 272.066 123.363 271.127L123.46 271.224L122.715 273.069H111.027Z" fill="#171717"/>
<path d="M136.34 273.037L136.275 272.907C136.502 271.515 136.567 270.641 136.567 268.537V250.47C132.552 250.47 130.383 250.891 128.019 251.409L127.922 251.344L128.472 249.564C129.606 249.628 130.739 249.661 131.904 249.661H142.783C143.949 249.661 145.082 249.628 146.215 249.564L146.765 251.344L146.668 251.442C144.272 250.891 142.135 250.47 138.121 250.47V268.537C138.121 270.641 138.185 271.515 138.412 272.907L138.347 273.037H136.34Z" fill="#171717"/>
<path d="M153.687 273.069L153.623 272.94C153.849 271.548 153.914 270.673 153.914 268.569V254.129C153.914 252.024 153.849 251.15 153.623 249.758L153.687 249.628H155.695L155.76 249.758C155.533 251.15 155.468 252.024 155.468 254.129V268.569C155.468 270.673 155.533 271.548 155.76 272.94L155.695 273.069H153.687Z" fill="#171717"/>
<path d="M183.951 273.102L166.662 253.546V267.598C166.662 269.832 166.694 271.224 167.05 272.94V273.069H165.172L165.108 272.94C165.529 271.224 165.561 269.832 165.561 267.598V253.255C165.561 251.701 164.266 250.244 163.197 249.758V249.628H165.399L182.98 269.475V255.1C182.98 252.866 182.947 251.506 182.559 249.79V249.628H184.501V249.79C184.113 251.506 184.081 252.866 184.081 255.1V273.102H183.951Z" fill="#171717"/>
<path d="M205.511 273.102C197.741 273.102 192.463 268.472 192.463 261.608C192.463 254.42 197.482 249.11 204.216 249.11C208.652 249.11 212.051 251.312 213.12 251.668L213.249 254.873H213.12C211.954 252.413 208.198 250.114 204.086 250.114C198.42 250.114 194.179 254.582 194.179 260.539C194.179 267.015 198.906 272.033 206.256 272.033C207.745 272.033 210.627 271.71 212.084 271.321V262.385C212.084 260.28 212.019 259.406 211.792 258.014L211.857 257.885H213.832L213.897 258.014C213.67 259.406 213.605 260.28 213.605 262.385V269.767C213.605 271.289 213.864 271.774 214.738 271.936L214.706 272.066C212.731 272.098 209.526 273.102 205.511 273.102Z" fill="#171717"/>
<path d="M233.222 273.069L233.157 272.94C233.384 271.548 233.449 270.673 233.449 268.569V254.129C233.449 252.024 233.384 251.15 233.157 249.758L233.222 249.628H245.558V249.758L244.554 251.377C241.705 250.6 238.823 250.438 235.003 250.438V260.928C238.305 260.928 241.932 260.798 243.486 260.637L243.583 260.734L243.065 262.158C240.701 261.899 237.528 261.737 235.003 261.737V268.569C235.003 270.673 235.068 271.548 235.294 272.94L235.23 273.069H233.222Z" fill="#171717"/>
<path d="M252.481 273.069L252.417 272.94C252.643 271.548 252.708 270.673 252.708 268.569V254.129C252.708 252.024 252.643 251.15 252.417 249.758L252.481 249.628H254.489L254.553 249.758C254.327 251.15 254.262 252.024 254.262 254.129V268.569C254.262 270.673 254.327 271.548 254.553 272.94L254.489 273.069H252.481Z" fill="#171717"/>
<path d="M263.804 273.069L263.74 272.94C263.966 271.548 264.031 270.673 264.031 268.569V254.129C264.031 252.024 263.966 251.15 263.74 249.758L263.804 249.628C265.715 249.628 267.69 249.499 269.6 249.499C273.841 249.499 277.37 251.183 277.37 255.294C277.37 259.18 274.165 262.061 270.118 262.514C271.122 263.648 271.802 264.166 272.805 264.36L275.849 268.083C277.662 270.382 279.669 272.325 280.543 272.907L280.479 273.069H279.378C277.888 273.069 277.37 272.616 276.626 271.677L271.672 265.59C269.309 262.612 267.819 262.514 265.941 262.514H265.585V268.569C265.585 270.673 265.65 271.548 265.877 272.94L265.812 273.069H263.804ZM268.693 261.64C273.064 261.64 275.622 259.471 275.622 255.845C275.622 252.38 273.194 250.438 268.726 250.438C267.722 250.438 266.006 250.567 265.585 250.697V261.446C266.654 261.576 267.722 261.64 268.693 261.64Z" fill="#171717"/>
<path d="M286.7 273.069L286.635 272.94C287.056 271.191 287.088 269.864 287.088 267.598V252.639C287.088 251.539 286.376 250.405 284.984 249.726V249.596H288.06L298.776 269.605L309.331 249.596H311.986V249.726C310.303 250.47 310.27 251.377 310.27 253.676V268.569C310.27 270.673 310.335 271.548 310.562 272.94L310.497 273.069H308.457L308.392 272.94C308.651 271.548 308.716 270.673 308.716 268.569V253.06L298.55 272.389H298.42L288.189 253.222V267.598C288.189 269.864 288.189 271.256 288.578 273.005L288.513 273.069H286.7Z" fill="#171717"/>
<path d="M47.6482 96.4493C38.2438 96.4493 29.9832 94.543 22.8664 90.7305C15.7495 86.8331 10.2001 81.4108 6.21804 74.4634C2.32073 67.4313 0.37207 59.213 0.37207 49.8087C0.37207 42.6918 1.51585 36.1257 3.8034 30.1103C6.09096 24.0948 9.26811 18.8843 13.3349 14.4787C17.4016 9.98827 22.1886 6.51457 27.6956 4.05757C33.2874 1.60057 39.3029 0.37207 45.7419 0.37207C49.8087 0.37207 53.6212 0.838053 57.1797 1.77002C60.8228 2.61726 64.0423 3.63395 66.8382 4.82009C69.7188 6.00623 72.1758 7.15 74.2092 8.25142C76.2426 9.26811 77.7253 9.94591 78.6573 10.2848L79.1656 22.6122H78.6573C77.3017 19.3927 74.9294 16.4273 71.5404 13.7161C68.2362 10.9202 64.2965 8.67504 59.7214 6.98056C55.1463 5.20135 50.317 4.31174 45.2336 4.31174C37.7778 4.31174 31.127 6.09095 25.281 9.64937C19.5197 13.2078 14.987 18.1218 11.6828 24.3914C8.46323 30.661 6.85347 37.8625 6.85347 45.9961C6.85347 52.1809 7.87016 58.0693 9.90355 63.6611C11.9369 69.2529 14.8599 74.2092 18.6725 78.5302C22.4851 82.7664 27.0178 86.113 32.2707 88.57C37.5236 91.027 43.3696 92.2555 49.8087 92.2555C56.8408 92.2555 63.1527 90.6881 68.7445 87.5533C74.3363 84.4185 78.4878 80.0552 81.199 74.4634H81.7073L81.0719 86.4095C80.2247 86.7484 79.3351 87.1297 78.4031 87.5533C77.5558 87.9769 76.5815 88.4429 75.4801 88.9512C70.1425 91.5777 65.3132 93.484 60.9923 94.6701C56.6713 95.8563 52.2233 96.4493 47.6482 96.4493Z" stroke="#171717" stroke-width="0.744298" mask="url(#path-1-outside-1_249_219)"/>
<path d="M95.2976 94.416L95.0434 93.9076C95.3823 92.0437 95.5942 90.3492 95.6789 88.8242C95.8483 87.2991 95.9754 85.6046 96.0601 83.7407C96.1449 81.7921 96.1872 79.4621 96.1872 76.751V20.0704C96.1872 17.2745 96.1449 14.9446 96.0601 13.0807C95.9754 11.2168 95.8483 9.52228 95.6789 7.99725C95.5942 6.38749 95.3823 4.693 95.0434 2.91379L95.2976 2.40545C99.0255 2.40545 102.796 2.32073 106.608 2.15128C110.506 1.98183 114.318 1.8971 118.046 1.8971C123.638 1.8971 128.721 2.70198 133.296 4.31174C137.956 5.83678 141.642 8.25142 144.353 11.5557C147.149 14.8599 148.547 19.2232 148.547 24.6456C148.547 29.729 147.276 34.3041 144.734 38.3709C142.192 42.4376 138.761 45.7419 134.44 48.2836C130.204 50.8253 125.417 52.3927 120.079 52.9858C122.028 55.1886 123.765 56.8408 125.29 57.9422C126.9 59.0436 128.679 59.8061 130.628 60.2297L142.574 74.8447C146.132 79.335 149.648 83.3171 153.122 86.7908C156.68 90.2645 159.307 92.5944 161.001 93.7805L160.747 94.416H156.426C153.546 94.416 151.385 93.9923 149.945 93.1451C148.504 92.2131 147.064 90.8152 145.624 88.9512L126.18 65.059C123.13 61.1617 120.334 58.3658 117.792 56.6713C115.335 54.9768 112.963 53.9601 110.675 53.6212C108.472 53.1976 106.142 52.9858 103.685 52.9858H102.287V76.751C102.287 79.4621 102.33 81.7921 102.414 83.7407C102.499 85.6046 102.626 87.2991 102.796 88.8242C102.965 90.3492 103.177 92.0437 103.431 93.9076L103.177 94.416H95.2976ZM114.488 49.5545C123.045 49.5545 129.696 47.5635 134.44 43.5814C139.269 39.5147 141.684 33.9229 141.684 26.806C141.684 20.0281 139.354 14.8175 134.694 11.1744C130.119 7.44654 123.426 5.5826 114.615 5.5826C113.344 5.5826 111.819 5.62497 110.04 5.7097C108.345 5.79442 106.778 5.9215 105.337 6.09095C103.897 6.2604 102.88 6.42985 102.287 6.5993V48.792C106.524 49.3003 110.59 49.5545 114.488 49.5545Z" stroke="#171717" stroke-width="0.744298" mask="url(#path-1-outside-1_249_219)"/>
<path d="M168.645 94.416L168.391 93.9076C168.73 92.0437 168.942 90.3492 169.027 88.8242C169.196 87.2991 169.323 85.6046 169.408 83.7407C169.493 81.7921 169.535 79.4621 169.535 76.751V20.0704C169.535 17.2745 169.493 14.9446 169.408 13.0807C169.323 11.2168 169.196 9.52228 169.027 7.99725C168.942 6.38749 168.73 4.693 168.391 2.91379L168.645 2.40545H215.286V2.91379L211.473 9.14103C207.83 8.29378 204.314 7.61599 200.925 7.10764C197.536 6.5993 193.851 6.2604 189.869 6.09095C185.887 5.83678 181.142 5.7097 175.635 5.7097V44.7252C179.532 44.7252 183.472 44.6828 187.454 44.5981C191.521 44.4287 195.333 44.2592 198.892 44.0898C202.45 43.8356 205.373 43.6238 207.661 43.4543L208.042 43.8356L205.246 49.5545C200.841 48.9614 196.054 48.5378 190.885 48.2836C185.802 48.0294 180.718 47.9024 175.635 47.9024V91.2388C181.057 91.2388 185.717 91.1964 189.615 91.1117C193.512 90.9423 196.943 90.7305 199.909 90.4763C202.959 90.1374 205.839 89.6714 208.55 89.0783C211.262 88.4853 214.1 87.7227 217.065 86.7908L217.446 87.172L214.523 94.416H168.645Z" stroke="#171717" stroke-width="0.744298" mask="url(#path-1-outside-1_249_219)"/>
<path d="M269.91 96.4493C260.675 96.4493 252.542 94.5007 245.51 90.6034C238.478 86.7061 232.971 81.2837 228.988 74.3363C225.091 67.3889 223.143 59.4249 223.143 50.4441C223.143 43.4967 224.329 37.0153 226.701 30.9999C229.073 24.8997 232.377 19.5621 236.614 14.987C240.85 10.4119 245.764 6.85347 251.356 4.31174C256.947 1.68529 262.963 0.37207 269.402 0.37207C278.637 0.37207 286.728 2.36309 293.675 6.34513C300.708 10.3272 306.215 15.8342 310.197 22.8664C314.179 29.8985 316.17 37.9896 316.17 47.1398C316.17 54.0025 314.984 60.3992 312.611 66.3299C310.239 72.2606 306.935 77.5135 302.699 82.0886C298.462 86.579 293.548 90.095 287.957 92.6367C282.365 95.1785 276.349 96.4493 269.91 96.4493ZM271.689 92.0013C279.145 92.0013 285.669 90.2221 291.261 86.6637C296.937 83.1053 301.343 78.1489 304.478 71.7946C307.697 65.3556 309.307 57.9422 309.307 49.5545C309.307 43.2849 308.206 37.4813 306.003 32.1437C303.885 26.7213 300.919 21.9767 297.107 17.91C293.379 13.7585 288.973 10.539 283.89 8.25142C278.806 5.96387 273.342 4.82009 267.496 4.82009C260.464 4.82009 254.109 6.5993 248.433 10.1577C242.756 13.6314 238.223 18.5878 234.834 25.0268C231.53 31.3811 229.878 38.9216 229.878 47.6482C229.878 53.8331 230.937 59.6367 233.055 65.059C235.173 70.3966 238.139 75.0988 241.951 79.1656C245.764 83.2324 250.212 86.4095 255.295 88.6971C260.379 90.8999 265.844 92.0013 271.689 92.0013Z" stroke="#171717" stroke-width="0.744298" mask="url(#path-1-outside-1_249_219)"/>
<path d="M83.9621 219.416C83.0301 218.992 81.5051 217.933 79.387 216.239C77.2689 214.46 74.8543 212.257 72.1431 209.63C67.4833 213.697 62.5692 216.79 57.4011 218.908C52.2329 220.941 47.1494 221.788 42.1507 221.449C35.6269 221.026 30.374 219.374 26.392 216.493C22.41 213.612 19.6988 210.054 18.2585 205.818C16.8182 201.497 16.6487 197.006 17.7501 192.347C18.8515 187.687 21.1815 183.323 24.7399 179.257C28.383 175.105 33.2547 171.759 39.3548 169.217C37.4062 165.913 35.8388 162.735 34.6526 159.685C33.5512 156.635 33.0005 153.924 33.0005 151.552C33.0005 146.892 34.0595 142.698 36.1777 138.97C38.2958 135.158 41.134 132.15 44.6924 129.947C48.3356 127.66 52.36 126.516 56.7656 126.516C60.8324 126.516 64.179 127.236 66.8055 128.676C69.4319 130.117 71.6347 131.472 73.4139 132.743L74.5577 145.07H74.0494C71.7618 139.902 69.1354 136.174 66.17 133.887C63.2047 131.515 59.6886 130.328 55.6219 130.328C52.5718 130.328 49.7759 131.176 47.2342 132.87C44.7772 134.48 42.7861 136.683 41.2611 139.479C39.8208 142.275 39.1006 145.409 39.1006 148.883C39.1006 152.187 40.1173 156.042 42.1507 160.448C44.2688 164.769 47.0224 169.386 50.4113 174.3C53.8003 179.214 57.5282 184.086 61.5949 188.915C65.7464 193.745 69.8555 198.193 73.9223 202.259C77.4807 198.108 80.4884 193.363 82.9454 188.026C85.4872 182.603 87.1816 176.842 88.0289 170.742H88.5372L91.079 180.909C89.4692 185.653 87.3935 190.059 84.8517 194.126C82.3947 198.193 79.6835 201.836 76.7182 205.055C80.1919 208.444 83.4114 211.367 86.3768 213.824C89.3421 216.281 91.7567 217.976 93.6207 218.908V219.416H83.9621ZM23.8503 195.27C23.8503 199.59 24.8246 203.403 26.7733 206.707C28.7219 209.927 31.3907 212.469 34.7797 214.333C38.1687 216.112 41.9813 217.001 46.2175 217.001C50.1995 217.001 54.1816 216.112 58.1636 214.333C62.1456 212.469 65.8735 209.969 69.3472 206.834C66.1277 203.53 62.6963 199.887 59.0532 195.905C55.4948 191.838 52.0634 187.602 48.7592 183.196C45.455 178.791 42.532 174.512 39.9902 170.361C34.7373 173.241 30.7129 176.927 27.917 181.417C25.2059 185.823 23.8503 190.44 23.8503 195.27Z" stroke="#171717" stroke-width="0.744298" mask="url(#path-1-outside-1_249_219)"/>
<path d="M148.3 221.449C138.895 221.449 130.635 219.543 123.518 215.73C116.401 211.833 110.851 206.411 106.869 199.463C102.972 192.431 101.023 184.213 101.023 174.809C101.023 167.692 102.167 161.126 104.455 155.11C106.742 149.095 109.919 143.884 113.986 139.479C118.053 134.988 122.84 131.515 128.347 129.058C133.939 126.601 139.954 125.372 146.393 125.372C150.46 125.372 154.273 125.838 157.831 126.77C161.474 127.617 164.694 128.634 167.49 129.82C170.37 131.006 172.827 132.15 174.861 133.251C176.894 134.268 178.377 134.946 179.309 135.285L179.817 147.612H179.309C177.953 144.393 175.581 141.427 172.192 138.716C168.888 135.92 164.948 133.675 160.373 131.981C155.798 130.201 150.968 129.312 145.885 129.312C138.429 129.312 131.778 131.091 125.932 134.649C120.171 138.208 115.638 143.122 112.334 149.391C109.115 155.661 107.505 162.863 107.505 170.996C107.505 177.181 108.522 183.069 110.555 188.661C112.588 194.253 115.511 199.209 119.324 203.53C123.136 207.766 127.669 211.113 132.922 213.57C138.175 216.027 144.021 217.255 150.46 217.255C157.492 217.255 163.804 215.688 169.396 212.553C174.988 209.419 179.139 205.055 181.85 199.463H182.359L181.723 211.41C180.876 211.748 179.986 212.13 179.054 212.553C178.207 212.977 177.233 213.443 176.131 213.951C170.794 216.578 165.965 218.484 161.644 219.67C157.323 220.856 152.875 221.449 148.3 221.449Z" stroke="#171717" stroke-width="0.744298" mask="url(#path-1-outside-1_249_219)"/>
<path d="M236.525 221.449C227.29 221.449 219.157 219.501 212.125 215.603C205.093 211.706 199.586 206.284 195.603 199.336C191.706 192.389 189.758 184.425 189.758 175.444C189.758 168.497 190.944 162.015 193.316 156C195.688 149.9 198.992 144.562 203.229 139.987C207.465 135.412 212.379 131.853 217.971 129.312C223.562 126.685 229.578 125.372 236.017 125.372C245.252 125.372 253.343 127.363 260.29 131.345C267.323 135.327 272.83 140.834 276.812 147.866C280.794 154.898 282.785 162.99 282.785 172.14C282.785 179.003 281.599 185.399 279.226 191.33C276.854 197.261 273.55 202.513 269.314 207.089C265.077 211.579 260.163 215.095 254.572 217.637C248.98 220.178 242.964 221.449 236.525 221.449ZM238.304 217.001C245.76 217.001 252.284 215.222 257.876 211.664C263.552 208.105 267.958 203.149 271.093 196.795C274.312 190.356 275.922 182.942 275.922 174.554C275.922 168.285 274.821 162.481 272.618 157.144C270.5 151.721 267.534 146.977 263.722 142.91C259.994 138.758 255.588 135.539 250.505 133.251C245.421 130.964 239.957 129.82 234.111 129.82C227.079 129.82 220.724 131.599 215.048 135.158C209.371 138.631 204.838 143.588 201.449 150.027C198.145 156.381 196.493 163.922 196.493 172.648C196.493 178.833 197.552 184.637 199.67 190.059C201.788 195.397 204.754 200.099 208.566 204.166C212.379 208.232 216.827 211.41 221.91 213.697C226.994 215.9 232.459 217.001 238.304 217.001Z" stroke="#171717" stroke-width="0.744298" mask="url(#path-1-outside-1_249_219)"/>
<path d="M291.926 223.356L285.699 217.128V216.62L291.926 210.393H292.434L298.662 216.62V217.128L292.434 223.356H291.926Z" stroke="#171717" stroke-width="0.744298" mask="url(#path-1-outside-1_249_219)"/>
<path d="M6.10288 273.069L6.03813 272.94C6.45903 271.191 6.49141 269.864 6.49141 267.598V252.639C6.49141 251.539 5.77911 250.405 4.38691 249.726V249.596H7.46272L18.1795 269.605L28.7344 249.596H31.3893V249.726C29.7057 250.47 29.6733 251.377 29.6733 253.676V268.569C29.6733 270.673 29.7381 271.548 29.9647 272.94L29.8999 273.069H27.8602L27.7954 272.94C28.0545 271.548 28.1192 270.673 28.1192 268.569V253.06L17.9529 272.389H17.8233L7.59222 253.222V267.598C7.59222 269.864 7.59222 271.256 7.98075 273.005L7.91599 273.069H6.10288Z" stroke="#171717" stroke-width="0.744298" mask="url(#path-1-outside-1_249_219)"/>
<path d="M37.1026 273.069V272.94C37.8796 271.742 38.8185 269.929 39.5308 268.213L45.5206 253.643C45.7472 253.06 46.071 252.219 46.071 251.862C46.071 251.215 45.2939 250.276 44.7111 249.758V249.628H46.7509L54.8127 267.857C55.8164 270.091 56.5287 271.612 57.3382 272.94V273.069H54.5214C54.5214 271.742 54.3918 270.738 53.3558 268.375L52.2226 265.849H41.7001L40.664 268.375C39.5956 270.997 39.4984 272.066 39.4661 273.069H37.1026ZM42.0562 264.943H51.8341L46.7509 253.514L42.0562 264.943Z" stroke="#171717" stroke-width="0.744298" mask="url(#path-1-outside-1_249_219)"/>
<path d="M64.0349 273.069L63.9701 272.94C64.1968 271.548 64.2615 270.673 64.2615 268.569V254.129C64.2615 252.024 64.1968 251.15 63.9701 249.758L64.0349 249.628C65.9451 249.628 67.9201 249.499 69.8303 249.499C74.0717 249.499 77.6008 251.183 77.6008 255.294C77.6008 259.18 74.3955 262.061 70.3484 262.514C71.3521 263.648 72.032 264.166 73.0357 264.36L76.0791 268.083C77.8922 270.382 79.8996 272.325 80.7738 272.907L80.709 273.069H79.6082C78.1188 273.069 77.6008 272.616 76.8561 271.677L71.9025 265.59C69.5389 262.612 68.0496 262.514 66.1717 262.514H65.8156V268.569C65.8156 270.673 65.8803 271.548 66.107 272.94L66.0422 273.069H64.0349ZM68.9238 261.64C73.2947 261.64 75.8525 259.471 75.8525 255.845C75.8525 252.38 73.4242 250.438 68.9562 250.438C67.9525 250.438 66.2365 250.567 65.8156 250.697V261.446C66.884 261.576 67.9525 261.64 68.9238 261.64Z" stroke="#171717" stroke-width="0.744298" mask="url(#path-1-outside-1_249_219)"/>
<path d="M101.953 273.069L93.2761 264.716C90.8154 262.32 89.9089 261.673 88.7109 261.673V268.569C88.7109 270.673 88.7757 271.548 89.0023 272.94L88.9375 273.069H86.9302L86.8654 272.94C87.0921 271.548 87.1568 270.673 87.1568 268.569V254.129C87.1568 252.024 87.0921 251.15 86.8654 249.758L86.9302 249.628H88.9375L89.0023 249.758C88.7757 251.15 88.7109 252.024 88.7109 254.129V260.345L97.3556 253.255C99.2982 251.668 100.237 250.697 100.982 249.628H103.54V249.758C101.694 251.021 100.302 252.121 98.3269 253.74L89.6175 260.896C91.1392 261.867 92.499 262.029 92.7257 262.029L96.0281 265.202C101.824 270.771 103.313 272.066 104.738 272.875L104.867 273.069H101.953Z" stroke="#171717" stroke-width="0.744298" mask="url(#path-1-outside-1_249_219)"/>
<path d="M111.027 273.069L110.962 272.94C111.189 271.548 111.254 270.673 111.254 268.569V254.129C111.254 252.024 111.189 251.15 110.962 249.758L111.027 249.628H122.909V249.758L121.938 251.344C119.154 250.697 117.017 250.47 112.808 250.47V260.41C115.754 260.41 119.218 260.248 120.967 260.086L121.064 260.183L120.352 261.64C118.085 261.349 115.398 261.219 112.808 261.219V272.26C118.344 272.26 120.319 272.066 123.363 271.127L123.46 271.224L122.715 273.069H111.027Z" stroke="#171717" stroke-width="0.744298" mask="url(#path-1-outside-1_249_219)"/>
<path d="M136.34 273.037L136.275 272.907C136.502 271.515 136.567 270.641 136.567 268.537V250.47C132.552 250.47 130.383 250.891 128.019 251.409L127.922 251.344L128.472 249.564C129.606 249.628 130.739 249.661 131.904 249.661H142.783C143.949 249.661 145.082 249.628 146.215 249.564L146.765 251.344L146.668 251.442C144.272 250.891 142.135 250.47 138.121 250.47V268.537C138.121 270.641 138.185 271.515 138.412 272.907L138.347 273.037H136.34Z" stroke="#171717" stroke-width="0.744298" mask="url(#path-1-outside-1_249_219)"/>
<path d="M153.687 273.069L153.623 272.94C153.849 271.548 153.914 270.673 153.914 268.569V254.129C153.914 252.024 153.849 251.15 153.623 249.758L153.687 249.628H155.695L155.76 249.758C155.533 251.15 155.468 252.024 155.468 254.129V268.569C155.468 270.673 155.533 271.548 155.76 272.94L155.695 273.069H153.687Z" stroke="#171717" stroke-width="0.744298" mask="url(#path-1-outside-1_249_219)"/>
<path d="M183.951 273.102L166.662 253.546V267.598C166.662 269.832 166.694 271.224 167.05 272.94V273.069H165.172L165.108 272.94C165.529 271.224 165.561 269.832 165.561 267.598V253.255C165.561 251.701 164.266 250.244 163.197 249.758V249.628H165.399L182.98 269.475V255.1C182.98 252.866 182.947 251.506 182.559 249.79V249.628H184.501V249.79C184.113 251.506 184.081 252.866 184.081 255.1V273.102H183.951Z" stroke="#171717" stroke-width="0.744298" mask="url(#path-1-outside-1_249_219)"/>
<path d="M205.511 273.102C197.741 273.102 192.463 268.472 192.463 261.608C192.463 254.42 197.482 249.11 204.216 249.11C208.652 249.11 212.051 251.312 213.12 251.668L213.249 254.873H213.12C211.954 252.413 208.198 250.114 204.086 250.114C198.42 250.114 194.179 254.582 194.179 260.539C194.179 267.015 198.906 272.033 206.256 272.033C207.745 272.033 210.627 271.71 212.084 271.321V262.385C212.084 260.28 212.019 259.406 211.792 258.014L211.857 257.885H213.832L213.897 258.014C213.67 259.406 213.605 260.28 213.605 262.385V269.767C213.605 271.289 213.864 271.774 214.738 271.936L214.706 272.066C212.731 272.098 209.526 273.102 205.511 273.102Z" stroke="#171717" stroke-width="0.744298" mask="url(#path-1-outside-1_249_219)"/>
<path d="M233.222 273.069L233.157 272.94C233.384 271.548 233.449 270.673 233.449 268.569V254.129C233.449 252.024 233.384 251.15 233.157 249.758L233.222 249.628H245.558V249.758L244.554 251.377C241.705 250.6 238.823 250.438 235.003 250.438V260.928C238.305 260.928 241.932 260.798 243.486 260.637L243.583 260.734L243.065 262.158C240.701 261.899 237.528 261.737 235.003 261.737V268.569C235.003 270.673 235.068 271.548 235.294 272.94L235.23 273.069H233.222Z" stroke="#171717" stroke-width="0.744298" mask="url(#path-1-outside-1_249_219)"/>
<path d="M252.481 273.069L252.417 272.94C252.643 271.548 252.708 270.673 252.708 268.569V254.129C252.708 252.024 252.643 251.15 252.417 249.758L252.481 249.628H254.489L254.553 249.758C254.327 251.15 254.262 252.024 254.262 254.129V268.569C254.262 270.673 254.327 271.548 254.553 272.94L254.489 273.069H252.481Z" stroke="#171717" stroke-width="0.744298" mask="url(#path-1-outside-1_249_219)"/>
<path d="M263.804 273.069L263.74 272.94C263.966 271.548 264.031 270.673 264.031 268.569V254.129C264.031 252.024 263.966 251.15 263.74 249.758L263.804 249.628C265.715 249.628 267.69 249.499 269.6 249.499C273.841 249.499 277.37 251.183 277.37 255.294C277.37 259.18 274.165 262.061 270.118 262.514C271.122 263.648 271.802 264.166 272.805 264.36L275.849 268.083C277.662 270.382 279.669 272.325 280.543 272.907L280.479 273.069H279.378C277.888 273.069 277.37 272.616 276.626 271.677L271.672 265.59C269.309 262.612 267.819 262.514 265.941 262.514H265.585V268.569C265.585 270.673 265.65 271.548 265.877 272.94L265.812 273.069H263.804ZM268.693 261.64C273.064 261.64 275.622 259.471 275.622 255.845C275.622 252.38 273.194 250.438 268.726 250.438C267.722 250.438 266.006 250.567 265.585 250.697V261.446C266.654 261.576 267.722 261.64 268.693 261.64Z" stroke="#171717" stroke-width="0.744298" mask="url(#path-1-outside-1_249_219)"/>
<path d="M286.7 273.069L286.635 272.94C287.056 271.191 287.088 269.864 287.088 267.598V252.639C287.088 251.539 286.376 250.405 284.984 249.726V249.596H288.06L298.776 269.605L309.331 249.596H311.986V249.726C310.303 250.47 310.27 251.377 310.27 253.676V268.569C310.27 270.673 310.335 271.548 310.562 272.94L310.497 273.069H308.457L308.392 272.94C308.651 271.548 308.716 270.673 308.716 268.569V253.06L298.55 272.389H298.42L288.189 253.222V267.598C288.189 269.864 288.189 271.256 288.578 273.005L288.513 273.069H286.7Z" stroke="#171717" stroke-width="0.744298" mask="url(#path-1-outside-1_249_219)"/>
</svg>
