<svg width="316" height="223" viewBox="0 0 316 223" fill="none" xmlns="http://www.w3.org/2000/svg">
<path d="M47.2761 96.0773C37.8717 96.0773 29.6111 94.171 22.4943 90.3584C15.3774 86.4611 9.82801 81.0387 5.84597 74.0913C1.94866 67.0592 0 58.841 0 49.4366C0 42.3197 1.14378 35.7536 3.43133 29.7382C5.71889 23.7228 8.89604 18.5122 12.9628 14.1066C17.0296 9.6162 21.8165 6.1425 27.3236 3.6855C32.9154 1.2285 38.9308 0 45.3698 0C49.4366 0 53.2492 0.465982 56.8076 1.39795C60.4507 2.24519 63.6703 3.26188 66.4662 4.44802C69.3468 5.63416 71.8038 6.77793 73.8372 7.87935C75.8705 8.89604 77.3532 9.57383 78.2852 9.91273L78.7935 22.2401H78.2852C76.9296 19.0206 74.5573 16.0552 71.1684 13.3441C67.8641 10.5482 63.9244 8.30297 59.3493 6.60849C54.7742 4.82928 49.9449 3.93967 44.8615 3.93967C37.4057 3.93967 30.7549 5.71888 24.9089 9.2773C19.1477 12.8357 14.6149 17.7497 11.3107 24.0193C8.09116 30.2889 6.4814 37.4905 6.4814 45.624C6.4814 51.8089 7.49809 57.6972 9.53148 63.289C11.5649 68.8808 14.4878 73.8372 18.3004 78.1581C22.113 82.3943 26.6458 85.7409 31.8987 88.1979C37.1516 90.6549 42.9975 91.8834 49.4366 91.8834C56.4687 91.8834 62.7807 90.316 68.3725 87.1812C73.9642 84.0464 78.1157 79.6831 80.8269 74.0913H81.3353L80.6998 86.0375C79.8526 86.3763 78.963 86.7576 78.031 87.1812C77.1838 87.6048 76.2094 88.0708 75.108 88.5792C69.7704 91.2056 64.9411 93.1119 60.6202 94.2981C56.2992 95.4842 51.8512 96.0773 47.2761 96.0773Z" fill="#253937"/>
<path d="M94.9256 94.0439L94.6714 93.5355C95.0103 91.6716 95.2221 89.9771 95.3068 88.4521C95.4763 86.9271 95.6033 85.2326 95.6881 83.3686C95.7728 81.42 95.8152 79.0901 95.8152 76.3789V19.6984C95.8152 16.9025 95.7728 14.5726 95.6881 12.7086C95.6033 10.8447 95.4763 9.15021 95.3068 7.62518C95.2221 6.01542 95.0103 4.32093 94.6714 2.54172L94.9256 2.03338C98.6534 2.03338 102.424 1.94865 106.236 1.77921C110.134 1.60976 113.946 1.52503 117.674 1.52503C123.266 1.52503 128.349 2.32991 132.924 3.93967C137.584 5.46471 141.27 7.87935 143.981 11.1836C146.777 14.4878 148.175 18.8511 148.175 24.2735C148.175 29.3569 146.904 33.9321 144.362 37.9988C141.82 42.0656 138.389 45.3698 134.068 47.9115C129.832 50.4533 125.045 52.0207 119.707 52.6137C121.656 54.8166 123.393 56.4687 124.918 57.5701C126.528 58.6715 128.307 59.434 130.256 59.8577L142.202 74.4726C145.76 78.963 149.276 82.945 152.75 86.4187C156.308 89.8924 158.935 92.2223 160.629 93.4085L160.375 94.0439H156.054C153.173 94.0439 151.013 93.6203 149.573 92.773C148.132 91.8411 146.692 90.4431 145.252 88.5792L125.808 64.6869C122.757 60.7896 119.962 57.9937 117.42 56.2992C114.963 54.6048 112.591 53.5881 110.303 53.2492C108.1 52.8256 105.77 52.6137 103.313 52.6137H101.915V76.3789C101.915 79.0901 101.958 81.42 102.042 83.3686C102.127 85.2326 102.254 86.9271 102.424 88.4521C102.593 89.9771 102.805 91.6716 103.059 93.5355L102.805 94.0439H94.9256ZM114.116 49.1824C122.673 49.1824 129.324 47.1914 134.068 43.2094C138.897 39.1426 141.312 33.5508 141.312 26.434C141.312 19.656 138.982 14.4455 134.322 10.8023C129.747 7.07447 123.054 5.21053 114.243 5.21053C112.972 5.21053 111.447 5.2529 109.668 5.33763C107.973 5.42235 106.406 5.54943 104.965 5.71888C103.525 5.88833 102.508 6.05778 101.915 6.22723V48.4199C106.152 48.9282 110.218 49.1824 114.116 49.1824Z" fill="#253937"/>
<path d="M168.273 94.0439L168.019 93.5355C168.358 91.6716 168.57 89.9771 168.654 88.4521C168.824 86.9271 168.951 85.2326 169.036 83.3686C169.12 81.42 169.163 79.0901 169.163 76.3789V19.6984C169.163 16.9025 169.12 14.5726 169.036 12.7086C168.951 10.8447 168.824 9.15021 168.654 7.62518C168.57 6.01542 168.358 4.32093 168.019 2.54172L168.273 2.03338H214.914V2.54172L211.101 8.76896C207.458 7.92171 203.942 7.24392 200.553 6.73557C197.164 6.22723 193.479 5.88833 189.497 5.71888C185.515 5.46471 180.77 5.33763 175.263 5.33763V44.3531C179.16 44.3531 183.1 44.3108 187.082 44.226C191.149 44.0566 194.961 43.8871 198.52 43.7177C202.078 43.4635 205.001 43.2517 207.289 43.0823L207.67 43.4635L204.874 49.1824C200.468 48.5893 195.682 48.1657 190.513 47.9115C185.43 47.6574 180.346 47.5303 175.263 47.5303V90.8667C180.685 90.8667 185.345 90.8244 189.242 90.7396C193.14 90.5702 196.571 90.3584 199.536 90.1042C202.587 89.7653 205.467 89.2993 208.178 88.7063C210.89 88.1132 213.728 87.3507 216.693 86.4187L217.074 86.8L214.151 94.0439H168.273Z" fill="#253937"/>
<path d="M269.538 96.0773C260.303 96.0773 252.17 94.1286 245.138 90.2313C238.106 86.334 232.598 80.9116 228.616 73.9642C224.719 67.0169 222.77 59.0528 222.77 50.072C222.77 43.1246 223.957 36.6432 226.329 30.6278C228.701 24.5277 232.005 19.19 236.242 14.6149C240.478 10.0398 245.392 6.4814 250.984 3.93967C256.575 1.31322 262.591 0 269.03 0C278.265 0 286.356 1.99102 293.303 5.97306C300.335 9.95509 305.843 15.4622 309.825 22.4943C313.807 29.5264 315.798 37.6176 315.798 46.7678C315.798 53.6304 314.612 60.0271 312.239 65.9578C309.867 71.8885 306.563 77.1414 302.326 81.7165C298.09 86.2069 293.176 89.723 287.584 92.2647C281.993 94.8064 275.977 96.0773 269.538 96.0773ZM271.317 91.6292C278.773 91.6292 285.297 89.85 290.889 86.2916C296.565 82.7332 300.971 77.7768 304.106 71.4225C307.325 64.9835 308.935 57.5701 308.935 49.1824C308.935 42.9128 307.834 37.1092 305.631 31.7716C303.513 26.3492 300.547 21.6047 296.735 17.5379C293.007 13.3864 288.601 10.1669 283.518 7.87935C278.434 5.59179 272.97 4.44802 267.124 4.44802C260.091 4.44802 253.737 6.22723 248.061 9.78564C242.384 13.2593 237.851 18.2157 234.462 24.6547C231.158 31.0091 229.506 38.5495 229.506 47.2761C229.506 53.461 230.565 59.2646 232.683 64.6869C234.801 70.0246 237.767 74.7268 241.579 78.7935C245.392 82.8603 249.84 86.0375 254.923 88.325C260.007 90.5278 265.471 91.6292 271.317 91.6292Z" fill="#253937"/>
<path d="M83.59 219.044C82.6581 218.62 81.133 217.561 79.0149 215.867C76.8968 214.088 74.4822 211.885 71.771 209.258C67.1112 213.325 62.1972 216.417 57.029 218.536C51.8608 220.569 46.7774 221.416 41.7786 221.077C35.2549 220.654 30.002 219.002 26.0199 216.121C22.0379 213.24 19.3267 209.682 17.8864 205.446C16.4461 201.125 16.2766 196.634 17.3781 191.975C18.4795 187.315 20.8094 182.951 24.3678 178.885C28.011 174.733 32.8826 171.387 38.9827 168.845C37.0341 165.541 35.4667 162.363 34.2805 159.313C33.1791 156.263 32.6284 153.552 32.6284 151.18C32.6284 146.52 33.6875 142.326 35.8056 138.598C37.9237 134.786 40.7619 131.778 44.3204 129.575C47.9635 127.288 51.9879 126.144 56.3936 126.144C60.4603 126.144 63.8069 126.864 66.4334 128.304C69.0598 129.745 71.2627 131.1 73.0419 132.371L74.1857 144.698H73.6773C71.3898 139.53 68.7633 135.802 65.798 133.515C62.8326 131.143 59.3166 129.956 55.2498 129.956C52.1997 129.956 49.4038 130.804 46.8621 132.498C44.4051 134.108 42.4141 136.311 40.889 139.107C39.4487 141.902 38.7286 145.037 38.7286 148.511C38.7286 151.815 39.7453 155.67 41.7786 160.076C43.8967 164.397 46.6503 169.014 50.0393 173.928C53.4282 178.842 57.1561 183.714 61.2229 188.543C65.3743 193.372 69.4835 197.82 73.5502 201.887C77.1086 197.736 80.1164 192.991 82.5734 187.654C85.1151 182.231 86.8096 176.47 87.6568 170.37H88.1652L90.7069 180.537C89.0971 185.281 87.0214 189.687 84.4797 193.754C82.0227 197.82 79.3115 201.464 76.3461 204.683C79.8198 208.072 83.0393 210.995 86.0047 213.452C88.97 215.909 91.3847 217.604 93.2486 218.536V219.044H83.59ZM23.4782 194.897C23.4782 199.218 24.4525 203.031 26.4012 206.335C28.3499 209.555 31.0187 212.097 34.4076 213.96C37.7966 215.74 41.6092 216.629 45.8454 216.629C49.8274 216.629 53.8095 215.74 57.7915 213.96C61.7736 212.097 65.5014 209.597 68.9751 206.462C65.7556 203.158 62.3243 199.515 58.6811 195.533C55.1227 191.466 51.6914 187.23 48.3871 182.824C45.0829 178.419 42.1599 174.14 39.6182 169.989C34.3653 172.869 30.3409 176.555 27.545 181.045C24.8338 185.451 23.4782 190.068 23.4782 194.897Z" fill="#253937"/>
<path d="M147.928 221.077C138.523 221.077 130.263 219.171 123.146 215.358C116.029 211.461 110.479 206.039 106.497 199.091C102.6 192.059 100.651 183.841 100.651 174.437C100.651 167.32 101.795 160.754 104.083 154.738C106.37 148.723 109.547 143.512 113.614 139.107C117.681 134.616 122.468 131.143 127.975 128.686C133.567 126.228 139.582 125 146.021 125C150.088 125 153.901 125.466 157.459 126.398C161.102 127.245 164.322 128.262 167.118 129.448C169.998 130.634 172.455 131.778 174.489 132.879C176.522 133.896 178.005 134.574 178.937 134.913L179.445 147.24H178.937C177.581 144.021 175.209 141.055 171.82 138.344C168.515 135.548 164.576 133.303 160.001 131.608C155.426 129.829 150.596 128.94 145.513 128.94C138.057 128.94 131.406 130.719 125.56 134.277C119.799 137.836 115.266 142.75 111.962 149.019C108.743 155.289 107.133 162.49 107.133 170.624C107.133 176.809 108.149 182.697 110.183 188.289C112.216 193.881 115.139 198.837 118.952 203.158C122.764 207.394 127.297 210.741 132.55 213.198C137.803 215.655 143.649 216.883 150.088 216.883C157.12 216.883 163.432 215.316 169.024 212.181C174.616 209.046 178.767 204.683 181.478 199.091H181.987L181.351 211.037C180.504 211.376 179.614 211.758 178.682 212.181C177.835 212.605 176.861 213.071 175.759 213.579C170.422 216.206 165.593 218.112 161.272 219.298C156.951 220.484 152.503 221.077 147.928 221.077Z" fill="#253937"/>
<path d="M236.153 221.077C226.918 221.077 218.785 219.129 211.753 215.231C204.721 211.334 199.213 205.912 195.231 198.964C191.334 192.017 189.385 184.053 189.385 175.072C189.385 168.125 190.572 161.643 192.944 155.628C195.316 149.528 198.62 144.19 202.857 139.615C207.093 135.04 212.007 131.481 217.599 128.94C223.19 126.313 229.206 125 235.645 125C244.88 125 252.971 126.991 259.918 130.973C266.95 134.955 272.458 140.462 276.44 147.494C280.422 154.526 282.413 162.618 282.413 171.768C282.413 178.63 281.226 185.027 278.854 190.958C276.482 196.889 273.178 202.141 268.941 206.717C264.705 211.207 259.791 214.723 254.199 217.265C248.608 219.806 242.592 221.077 236.153 221.077ZM237.932 216.629C245.388 216.629 251.912 214.85 257.504 211.292C263.18 207.733 267.586 202.777 270.721 196.423C273.94 189.983 275.55 182.57 275.55 174.182C275.55 167.913 274.449 162.109 272.246 156.772C270.128 151.349 267.162 146.605 263.35 142.538C259.622 138.386 255.216 135.167 250.133 132.879C245.049 130.592 239.585 129.448 233.739 129.448C226.706 129.448 220.352 131.227 214.676 134.786C208.999 138.259 204.466 143.216 201.077 149.655C197.773 156.009 196.121 163.55 196.121 172.276C196.121 178.461 197.18 184.265 199.298 189.687C201.416 195.025 204.382 199.727 208.194 203.794C212.007 207.86 216.455 211.037 221.538 213.325C226.622 215.528 232.086 216.629 237.932 216.629Z" fill="#253937"/>
<path d="M291.554 222.984L285.327 216.756V216.248L291.554 210.021H292.062L298.289 216.248V216.756L292.062 222.984H291.554Z" fill="#253937"/>
</svg>
